<?xml version="1.0" encoding="UTF-8"?>
<svg id="_圖層_1" data-name="圖層_1" xmlns="http://www.w3.org/2000/svg" version="1.1" viewBox="0 0 32 32">
  <!-- Generator: Adobe Illustrator 30.8.2, SVG Export Plug-In . SVG Version: 2.1.4 Build 7)  -->
  <defs>
    <style>
      .st0 {
        fill: #fff;
        fill-rule: evenodd;
      }
    </style>
  </defs>
  <path class="st0" d="M16,2.7c5,0,9,4.1,9,9.2s-.5,3.6-1.5,5l-7.5,12.5-7.5-12.3c-.2-.3-.3-.5-.5-.8h0s0,0,0,0c-.7-1.3-1.1-2.8-1.1-4.4,0-5.1,4-9.2,9-9.2h0ZM16,7.7c2.2,0,4.1,1.9,4.1,4.1s-1.8,4.1-4.1,4.1-4.1-1.9-4.1-4.1,1.8-4.1,4.1-4.1h0Z"/>
</svg>