<?xml version="1.0" encoding="UTF-8"?>
<svg id="_圖層_2" data-name="圖層 2" xmlns="http://www.w3.org/2000/svg" viewBox="0 0 566.83 245.13">
  <defs>
    <style>
      .cls-1 {
        fill: #ddb282;
      }

      .cls-2 {
        fill: #fff;
      }
    </style>
  </defs>
  <g id="_圖層_1-2" data-name="圖層 1">
    <g>
      <path class="cls-2" d="M26.22,67.97h41.67v1.48H26.67l-.45-1.48Z"/>
      <path class="cls-2" d="M106.72,72.56h4.41v13.77c0,1.47-.31,2.55-.94,3.24-.63.69-2.01,1.14-4.14,1.35-.12-1.26-.36-2.1-.72-2.52-.57-.57-1.56-.98-2.97-1.21v-.67c2.1.15,3.42.22,3.96.22.57,0,.85-.25.85-.76v-12.11h-17.28v15.75c0,.21-.36.46-1.08.77-.72.33-1.46.49-2.21.49h-.63v-19.93c-.3.51-.74.79-1.31.85-.57.06-1.15-.16-1.75-.67-.12-1.8-.81-3.87-2.07-6.21v24.79c0,.24-.36.5-1.08.77-.69.3-1.4.45-2.12.45h-.86v-18.45c-1.44,2.88-3.27,5.52-5.49,7.92l-.63-.54c2.64-4.56,4.51-10.71,5.62-18.45h-4.9l-.36-1.3h5.76v-10.85l4.05.58v10.26h6.48v1.3h-6.48v2.38c2.37,1.05,3.94,2.25,4.73,3.6.81,1.35.97,2.5.5,3.46l4.09,1.71h16.56ZM112.62,58.88h-9.63c2.43,2.13,5.82,3.54,10.17,4.23l-.04.45c-1.5.42-2.45,1.61-2.83,3.55-1.68-.75-3.14-1.63-4.37-2.66v4.91c-.03.18-.42.42-1.17.72-.75.3-1.44.45-2.07.45h-.63v-1.35h-7.2v.81c0,.12-.17.27-.5.45-.3.15-.72.3-1.26.45-.51.15-.99.22-1.44.22h-.54v-7.38c-1.74,1.26-3.68,2.33-5.81,3.2l-.36-.58c2.88-1.95,5.22-4.44,7.02-7.47h-6.03l-.36-1.26h7.06c.57-1.14,1-2.22,1.31-3.24-2.91.15-5.51.22-7.79.22l-.09-.81c3.27-.42,6.73-1.06,10.39-1.93s6.58-1.72,8.78-2.57l1.35,3.92c-2.34.24-4.89.5-7.65.77-.48,1.29-1.11,2.5-1.89,3.64h15.57v1.26ZM104.11,78v6.21c-.03.18-.38.42-1.04.72-.63.3-1.2.45-1.71.45h-.54v-1.67h-4.81v1.53c0,.09-.14.21-.4.36-.27.15-.63.3-1.08.45-.45.12-.87.18-1.26.18h-.45v-9.76h11.29v1.53ZM101.59,58.88h-5.44c-.81,1.05-1.67,1.98-2.57,2.79l8.15.63,1.17-1.17c-.57-.84-1.01-1.59-1.31-2.25ZM94.84,67.88h7.2v-4.28h-7.2v4.28ZM96.01,82.41h4.81v-4.68h-4.81v4.68Z"/>
      <path class="cls-2" d="M158.07,53.07v1.31h-14.4v7.88h11.07v26.73c0,.09-.15.22-.45.41-.27.18-.71.34-1.3.5-.57.18-1.17.27-1.8.27h-.72v-3.55h-26.91v2.56c0,.09-.14.23-.4.41-.27.18-.69.34-1.26.5-.57.18-1.17.27-1.8.27h-.72v-28.08h10.75v-7.88h-13.63l-.36-1.31h41.94ZM123.55,85.29h26.91v-7.92c-.99.18-2.4.27-4.23.27h-2.79c-1.56,0-2.58-.24-3.06-.72-.48-.51-.72-1.46-.72-2.83v-10.53h-5.54c-.03,1.38-.11,2.62-.22,3.73-.12,1.11-.39,2.34-.81,3.69-.42,1.32-.99,2.52-1.71,3.6-.69,1.08-1.67,2.18-2.93,3.29-1.23,1.11-2.69,2.09-4.36,2.92l-.45-.54c2.52-2.16,4.21-4.59,5.08-7.29.9-2.73,1.36-5.87,1.39-9.41h-6.57v21.73ZM139.66,62.25v-7.88h-5.54v7.88h5.54ZM150.46,63.56h-6.79v9.41c0,.36.06.6.18.72.15.12.43.18.85.18h1.98c1.05,0,1.69-.01,1.94-.04.45,0,.75-.01.9-.04.51-.09.82-.15.94-.18v-10.04Z"/>
      <path class="cls-2" d="M174.85,52.49h4.45v15.79c-.06.18-.49.42-1.31.72-.78.3-1.47.45-2.07.45h-.63v-2.56h-7.6v22.46c0,.33-.36.67-1.08,1.04-.72.39-1.53.58-2.43.58h-.77v-38.48h11.43ZM175.3,53.79h-7.6v5.13h7.6v-5.13ZM167.7,65.58h7.6v-5.35h-7.6v5.35ZM200.28,52.49v32.94c0,1.14-.13,2.04-.41,2.7-.27.66-.9,1.24-1.89,1.75-.96.51-2.39.85-4.28,1.03-.18-1.47-.65-2.49-1.39-3.06-1.05-.75-2.7-1.29-4.95-1.62v-.63c4.14.27,6.6.41,7.38.41s1.21-.36,1.21-1.08v-18.04h-7.88v1.08c0,.12-.17.29-.5.5s-.78.4-1.35.58c-.57.15-1.12.22-1.67.22h-.58v-16.79h16.29ZM195.96,53.79h-7.88v5.13h7.88v-5.13ZM188.08,65.58h7.88v-5.35h-7.88v5.35Z"/>
      <path class="cls-2" d="M248.25,53.57v1.3h-7.83v30.24c0,1.74-.4,3.06-1.21,3.96-.81.93-2.46,1.5-4.95,1.71-.09-1.5-.46-2.52-1.12-3.06-.84-.75-2.29-1.28-4.36-1.58v-.63c3.51.24,5.62.36,6.35.36s1.08-.32,1.08-.95v-30.06h-8.91c-.21.51-.8.86-1.75,1.04v27.58c-.03.21-.42.48-1.17.81-.75.3-1.44.45-2.07.45h-.58v-2.93h-9.95v2.83c0,.27-.34.57-1.03.9-.66.33-1.38.5-2.16.5h-.63v-32.13h13.32l2.03-2.25,3.64,2.92-.27-1.04h21.6ZM215.04,55.23h-3.29v11.83h3.29v-11.83ZM211.75,68.37v12.15h3.29v-12.15h-3.29ZM221.7,55.23h-3.29v11.83h3.29v-11.83ZM218.41,80.52h3.29v-12.15h-3.29v12.15Z"/>
      <path class="cls-2" d="M287.76,77.73v5.94c3.6-.39,6.79-.75,9.58-1.08l.09.63c-5.49,1.86-12.14,3.84-19.94,5.94-.27.54-.67.88-1.21,1.04l-2.21-5.22c1.74-.12,4.89-.41,9.45-.86v-6.39h-6.75l-.36-1.26h7.11v-5.85h-7.83l-.32-1.3h11.79c.66-2.04,1.29-4.63,1.89-7.79h-9.99c2.82,1.32,4.38,2.92,4.68,4.82.18,1.23-.17,2.12-1.04,2.66-.9.57-1.8.39-2.7-.54.12-2.19-.52-4.5-1.94-6.93h-3.96l-.36-1.3h7.29v-11.03l3.33.5v10.53h2.61v-11.03l3.38.5v10.53h9.04v1.3h-9.04l2.7,1.08c-1.23,2.34-2.83,4.58-4.82,6.71h9.04v1.3h-9.54v5.85h8.37v1.26h-8.37ZM274.35,51l.49-.27c3.03,1.35,4.8,3.04,5.31,5.08.36,1.29.1,2.27-.77,2.92-.84.63-1.73.5-2.65-.4,0-1.14-.24-2.39-.72-3.74-.45-1.38-1.01-2.58-1.67-3.6ZM291.36,59.06l-.63-.36c.96-2.1,1.98-4.83,3.06-8.19l3.55,2.16c-2.19,2.94-4.18,5.07-5.98,6.39ZM310.98,61.89h4.64v1.3h-4.64v22.41c0,1.74-.36,3-1.08,3.78-.72.81-2.28,1.33-4.68,1.58-.15-1.44-.49-2.43-1.03-2.97-.75-.72-2.06-1.21-3.92-1.48v-.68c3.09.21,4.96.32,5.62.32.39,0,.65-.06.77-.18.15-.15.22-.39.22-.72v-22.05h-9.58l-.36-1.3h9.94v-12.15l4.1.58v11.57ZM298.38,66.71l.5-.22c3.42,1.89,5.38,4.11,5.9,6.66.33,1.65.03,2.88-.9,3.69-.9.78-1.88.71-2.92-.22-.06-.06-.14-.13-.23-.22.18-2.94-.6-6.17-2.34-9.68Z"/>
      <path class="cls-2" d="M334.2,68.19l.13.54c-1.47.93-3.35,2.06-5.62,3.38v13.23c0,1.77-.35,3.07-1.04,3.92-.69.84-2.16,1.38-4.41,1.62-.15-1.56-.45-2.62-.9-3.19-.66-.75-1.8-1.25-3.42-1.49v-.72c2.61.18,4.2.27,4.77.27.36,0,.6-.06.72-.18.15-.12.23-.33.23-.63v-10.49c-.27.15-.71.39-1.31.72-.6.3-1.06.54-1.4.72-.21.6-.54.97-.99,1.12l-2.25-5.08c.66-.12,2.64-.55,5.94-1.31v-9.76h-5.22l-.36-1.3h5.58v-10.44l4.05.58v9.86h6.44v1.3h-6.44v8.78c1.2-.3,3.03-.78,5.49-1.44ZM360.57,73.41v1.31h-7.65c-.9,3.36-2.36,6.1-4.37,8.23,4.95,1.74,7.79,3.57,8.51,5.49.36.99.06,1.72-.9,2.21-.96.45-2,.34-3.11-.32-1.65-1.53-4.08-3.17-7.29-4.9-3.57,2.49-8.57,4.33-14.98,5.54l-.27-.63c5.55-1.56,9.77-3.64,12.65-6.25-3.09-1.44-5.97-2.61-8.64-3.51.84-1.41,1.8-3.36,2.88-5.85h-6.35l-.36-1.31h7.25c1.05-2.49,1.81-4.6,2.29-6.34l3.82,1.26c-.66,2.28-1.25,3.98-1.75,5.08h6.62c.21-1.14.38-2.58.5-4.32l4.18.99c-.09,1.47-.22,2.58-.4,3.33h7.38ZM332.22,66.84l-.31-1.31h15.71c1.17-2.7,2.13-5.55,2.88-8.55l3.87,1.49c-1.47,2.67-3.27,5.03-5.4,7.06h10.75v1.31h-27.5ZM358.27,56.72h-24.12l-.36-1.31h24.48v1.31ZM336.58,57.35l.5-.27c3.27,1.2,5.22,2.81,5.85,4.82.39,1.26.2,2.24-.58,2.92-.84.66-1.77.58-2.79-.22-.24-2.16-1.23-4.58-2.97-7.25ZM348.64,74.72h-6.89c-.99,2.16-1.92,4.07-2.79,5.71,2.46.51,4.55,1,6.26,1.48,1.59-1.95,2.73-4.35,3.42-7.2ZM341.53,49.07l.4-.31c3.27.57,5.23,1.71,5.9,3.42.42,1.05.24,1.92-.54,2.61-.87.75-1.84.75-2.92,0-.24-2.04-1.19-3.94-2.83-5.71Z"/>
      <path class="cls-2" d="M390.18,56.22l.45-.41c6,1.95,10.02,4.59,12.06,7.92,1.17,1.89,1.44,3.48.81,4.77-.51,1.02-1.35,1.32-2.52.9-.24-.09-.49-.21-.77-.36-.42-1.32-1.25-2.9-2.47-4.73-8.16,1.44-17.66,2.81-28.49,4.09-.36.45-.74.74-1.12.86l-1.71-5.04c.72-.15,1.23-.32,1.53-.5,2.34-1.35,4.95-3.55,7.83-6.62,2.91-3.09,5-5.77,6.25-8.05l4.23,2.61c-1.68,2.31-3.99,4.58-6.93,6.79-2.91,2.22-5.8,4.16-8.68,5.8,5.46-.09,14.23-.42,26.32-.99-1.83-2.49-4.1-4.84-6.8-7.06ZM393.78,72.42h4.95v16.92c-.03.15-.49.36-1.4.63-.87.3-1.65.45-2.34.45h-.72v-3.56h-18.77v2.48c0,.24-.42.54-1.26.9-.84.36-1.68.54-2.52.54h-.68v-18.36h22.73ZM375.51,85.56h18.77v-11.83h-18.77v11.83Z"/>
      <path class="cls-2" d="M426.13,82.37l4.01-.67.09.54c-5.34,2.52-11.09,4.96-17.23,7.33-.27.63-.66.99-1.17,1.08l-2.21-5.62c1.89-.18,6-.83,12.33-1.93v-18.27h-10.8l-.41-1.3h11.21v-13.41l4.18.58v31.68ZM448.99,78.18l.22,6.71c1.11.42,1.67,1.02,1.67,1.8,0,.96-.63,1.63-1.89,2.03-1.26.42-3.6.63-7.02.63h-4.19c-2.01,0-3.39-.32-4.14-.95-.75-.6-1.12-1.74-1.12-3.42v-34.2h4.23v12.74h12.74v1.3h-12.74v18.99c0,.57.12.96.36,1.17.27.21.79.31,1.57.31h3.6c1.83,0,2.92-.03,3.29-.09.51-.06.87-.25,1.08-.58.3-.51.93-2.65,1.89-6.43h.45Z"/>
      <path class="cls-2" d="M457.05,74.09v-14.45c-.96,1.02-1.92,1.89-2.88,2.61l-.63-.45c2.52-3.51,4.42-7.75,5.71-12.74l3.2,1.75c-.63,1.8-1.23,3.15-1.8,4.05l13.95.23v1.3h-6.66v3.87h5.58c2.04-2.97,3.52-6.71,4.46-11.21l3.28,1.62c-.6,1.92-1.14,3.3-1.62,4.14l15.07.27v1.3h-7.25v3.87h6.35v1.3h-6.35v4.05h6.39v1.3h-6.39v3.96h8.01v1.3h-15.7v.5c0,.12-.12.27-.36.45-.24.18-.62.36-1.12.54-.48.15-1.01.22-1.58.22h-.63v-14.22c-.81.84-1.67,1.61-2.56,2.29l-5.58-.41v4.05h5.94v1.3h-5.94v3.96h7.34v1.3h-14.58v.72c0,.09-.12.23-.36.41-.24.18-.62.36-1.12.54-.48.15-.99.23-1.53.23h-.63ZM488.14,75.08v2.12c-2.43,2.67-5.35,4.92-8.77,6.75,4.86,1.26,10.42,2.04,16.69,2.34l-.04.58c-1.86.48-3.03,1.83-3.51,4.05-7.08-.93-12.96-2.52-17.64-4.77-5.76,2.4-12.63,3.97-20.61,4.72l-.27-.72c6.63-1.26,12.58-3.15,17.86-5.67-3.48-2.1-6.27-4.8-8.37-8.1h-7.65l-.41-1.31h32.72ZM464.52,56.4h-3.82v3.87h3.82v-3.87ZM464.52,65.63v-4.05h-3.82v4.05h3.82ZM464.52,70.89v-3.96h-3.82v3.96h3.82ZM462.94,49.38l.4-.32c3,.48,4.8,1.49,5.4,3.01.36.99.16,1.77-.58,2.34-.78.6-1.64.54-2.56-.18-.09-.81-.39-1.67-.9-2.56-.51-.93-1.1-1.69-1.75-2.29ZM482.97,76.38h-18.31c2.49,2.61,5.98,4.72,10.48,6.34,3.21-1.92,5.82-4.03,7.83-6.34ZM483.96,56.4h-4.18v3.87h4.18v-3.87ZM483.96,65.63v-4.05h-4.18v4.05h4.18ZM483.96,70.89v-3.96h-4.18v3.96h4.18ZM482.34,49.34l.45-.32c3,.48,4.78,1.49,5.35,3.01.36.96.18,1.74-.54,2.34-.78.63-1.65.57-2.61-.18-.06-.81-.36-1.67-.9-2.56-.51-.9-1.1-1.67-1.75-2.29Z"/>
      <path class="cls-2" d="M540.61,88.26v1.3h-41.18l-.36-1.3h19.04v-6.66h-12.24l-.36-1.3h12.6v-5.72h-8.33c-2.49,3-5.35,5.34-8.59,7.02l-.5-.45c3.36-3.36,5.98-7.65,7.88-12.87-.6.15-1.16.23-1.67.23h-.67v-16.47h27.81v14.76c-.03.18-.5.42-1.39.72-.9.3-1.68.45-2.34.45h-.77v-1.94h-18.85v1.04c0,.12-.15.29-.45.5l2.61,1.84c-.6,1.53-1.28,2.82-2.02,3.87h7.29v-6.03l4.5.54v5.49h14.98v1.3h-14.98v5.72h14.35v1.3h-14.35v6.66h18ZM529.54,53.34h-18.85v5h18.85v-5ZM510.69,64.73h18.85v-5.13h-18.85v5.13Z"/>
    </g>
    <g>
      <path class="cls-2" d="M64.95,154.77v.75h-23.92l-.23-.75h4.37v-14.79h5.25c.1-.73.21-1.65.31-2.76h-9.23l-.23-.75h9.54c.12-1.18.25-2.57.39-4.19l2.76.49c-.12.95-.4,2.18-.83,3.69h11.18v.75h-11.39c-.07.22-.21.67-.42,1.33-.21.64-.36,1.12-.44,1.43h8.24v14.79h4.65ZM57.72,140.73h-10.09v2.86h10.09v-2.86ZM57.72,147.31v-2.96h-10.09v2.96h10.09ZM57.72,148.06h-10.09v2.96h10.09v-2.96ZM47.63,151.78v2.99h10.09v-2.99h-10.09Z"/>
      <path class="cls-2" d="M75.17,144.73v.91c-.62,2.15-1.71,4-3.25,5.56.16.02.34.12.55.31,1.02.92,2.32,1.54,3.9,1.85,1.59.29,3.86.44,6.79.44,4.06-.04,6.98-.1,8.76-.21v.34c-.5.09-.91.31-1.22.68-.29.38-.48.83-.55,1.35h-7.77c-2.77,0-4.89-.26-6.34-.78-1.44-.5-2.72-1.44-3.85-2.81-.35-.43-.63-.43-.86.03-.88,1.47-1.52,2.61-1.9,3.41.05.22,0,.4-.18.52l-1.82-2.42c.36-.22.94-.62,1.72-1.2.78-.59,1.29-.96,1.53-1.12,1.04-1.71,1.74-3.75,2.11-6.11h-3.61v-1.22c.83-1.2,1.73-2.7,2.7-4.52h-3.72l-.23-.75h6.03v1.33c-.9,1.59-1.8,3.07-2.7,4.42h3.93ZM68.67,132.95l.26-.18c2.25.36,3.66,1.14,4.21,2.31.33.69.28,1.29-.16,1.79-.45.48-1.01.54-1.69.18-.05-.04-.1-.07-.16-.1-.14-.66-.44-1.35-.91-2.08-.47-.75-.99-1.39-1.56-1.92ZM74.49,138.47h6.97v-2.47h-5.28l-.21-.75h5.49v-2.86l2.42.31v2.55h6.14v.75h-6.14v2.47h7.88v.75h-6.03l2.68.78-.96.49c-.71.66-1.54,1.33-2.5,2h5.82v.75h-6.89v2.34h6.21v.75h-6.21v2.44h7.57v.75h-7.57v3.2c0,.05-.08.13-.23.23-.16.1-.4.21-.73.31-.33.09-.68.13-1.04.13h-.42v-3.87h-6.45l-.21-.75h6.66v-2.44h-5.17l-.21-.75h5.38v-2.34h-5.95l-.21-.75h4.19c-.21-.1-.36-.2-.44-.29-.05-1.01-.45-1.99-1.2-2.94l-3.15-.05-.21-.75ZM80.57,142.5h3.48c.47-1.13.84-2.22,1.12-3.28h-6.66c.99.26,1.7.62,2.13,1.09.45.47.64.9.57,1.3-.07.4-.29.69-.65.88Z"/>
      <path class="cls-2" d="M118.92,143.09v.75h-10.82v11.99c0,.07-.09.17-.26.29-.17.12-.44.23-.81.34-.35.1-.72.16-1.12.16h-.49v-12.77h-10.35l-.21-.75h10.56v-6.6c-3.21.29-6.09.44-8.66.44l-.08-.44c2.93-.31,5.99-.83,9.18-1.56,3.21-.73,5.75-1.47,7.62-2.24l1.01,2.47c-1.8.36-3.94.71-6.4,1.04v6.89h10.82Z"/>
      <path class="cls-2" d="M126.7,139.43v16.41c-.02.12-.23.27-.65.44-.42.19-.82.29-1.22.29h-.42v-13.81c-.85,1.23-1.73,2.29-2.65,3.17l-.36-.21c1-1.7,1.94-3.74,2.81-6.11.88-2.37,1.55-4.77,2-7.18l2.44,1.01c-.64,2.36-1.29,4.35-1.95,5.98ZM129.79,150.01l.39.03c.48,1.32.63,2.39.44,3.22-.17.83-.56,1.41-1.14,1.74-.35.21-.73.26-1.14.16-.4-.09-.66-.31-.78-.68-.21-.69.09-1.24.91-1.64.42-.26.75-.65,1.01-1.17.28-.54.38-1.09.31-1.66ZM145.96,140.03v.75h-17.97l-.21-.75h5.17c-.12-.05-.26-.15-.42-.29-.09-.94-.52-1.96-1.3-3.07l.26-.16c1.16.26,2.01.65,2.55,1.17.55.5.8.97.73,1.4-.07.42-.3.73-.7.94h3.95c.42-1.3.75-2.48,1.01-3.54l2.52.81c-.73,1.02-1.62,1.93-2.68,2.73h7.07ZM129.19,136.46l-.21-.75h15.99v.75h-15.78ZM141.26,149.07h-.44v-.73h-8.74v.42c0,.05-.08.13-.23.23-.14.09-.36.17-.68.26-.29.07-.62.1-.99.1h-.42v-7.02h13.49v6.19s-.08.09-.23.18c-.16.09-.4.17-.73.26-.33.07-.68.1-1.04.1ZM141.31,151.75l.08,2.03c.57.19.86.49.86.88,0,.49-.35.82-1.04,1.01-.69.19-2.05.29-4.06.29h-2.78c-1.13,0-1.85-.13-2.18-.39-.33-.24-.49-.75-.49-1.51v-4.37l2.18.29v3.67c0,.16.05.26.16.31.1.03.36.05.78.05h4.78c.28-.02.48-.1.6-.26.19-.26.46-.93.81-2h.31ZM140.82,143.09h-8.74v1.92h8.74v-1.92ZM132.08,147.59h8.74v-1.82h-8.74v1.82ZM134.13,132.3l.23-.18c1.96.21,3.15.79,3.56,1.74.26.59.16,1.09-.29,1.51-.49.45-1.05.46-1.69.03-.23-1.16-.83-2.19-1.82-3.09ZM134.68,148.84l.26-.18c2.15.35,3.49,1.09,4.03,2.24.31.66.26,1.22-.16,1.69-.42.47-.94.52-1.59.16-.05-.04-.1-.07-.16-.1-.1-.64-.39-1.32-.86-2.03-.45-.71-.96-1.3-1.53-1.77ZM141.05,149.8l.23-.18c2.22.62,3.6,1.58,4.13,2.86.33.8.27,1.45-.18,1.95-.43.49-.97.55-1.61.18-.1-.05-.21-.12-.31-.21-.05-.76-.29-1.57-.73-2.42s-.94-1.58-1.53-2.18Z"/>
      <path class="cls-2" d="M173.08,134.72v.75h-8.32v4.55h6.4v15.44c0,.05-.09.13-.26.23-.16.1-.41.2-.75.29-.33.1-.68.16-1.04.16h-.42v-2.05h-15.55v1.48c0,.05-.08.13-.23.23-.16.1-.4.2-.73.29-.33.1-.68.16-1.04.16h-.42v-16.22h6.21v-4.55h-7.88l-.21-.75h24.23ZM153.14,153.34h15.55v-4.58c-.57.1-1.39.16-2.44.16h-1.61c-.9,0-1.49-.14-1.77-.42-.28-.29-.42-.84-.42-1.64v-6.08h-3.2c-.02.8-.06,1.52-.13,2.16s-.23,1.35-.47,2.13c-.24.76-.57,1.46-.99,2.08-.4.62-.96,1.26-1.69,1.9-.71.64-1.55,1.21-2.52,1.69l-.26-.31c1.46-1.25,2.44-2.65,2.94-4.21.52-1.58.79-3.39.81-5.43h-3.8v12.56ZM162.45,140.03v-4.55h-3.2v4.55h3.2ZM168.69,140.78h-3.93v5.43c0,.21.03.35.1.42.09.07.25.1.49.1h1.14c.61,0,.98,0,1.12-.03.26,0,.43,0,.52-.03.29-.05.48-.09.55-.1v-5.8Z"/>
      <path class="cls-2" d="M197.68,153.34c1.09.21,1.64.55,1.64,1.04,0,.33-.12.58-.36.75-.24.17-.77.31-1.59.42-.8.12-1.82.2-3.07.23-1.23.03-2.99.05-5.28.05h-6.03c-2.12,0-3.58-.21-4.39-.62-.8-.4-1.2-1.24-1.2-2.52v-17.71h-.99l-.21-.75h22.52v.75h-19.06v17.42c0,.59.21,1,.62,1.22.42.21,1.23.31,2.44.31h6.5c2.62,0,4.46-.03,5.54-.1.26-.02.71-.07,1.35-.16.33-.03.75-.15,1.25-.34h.31ZM186.65,152.48h-.34v-1.25h-2.86v1.12c0,.07-.09.16-.26.26-.17.09-.41.17-.7.26-.28.09-.55.13-.81.13h-.31v-7.72h7.02v6.6c-.02.1-.23.23-.65.39-.4.14-.76.21-1.09.21ZM183.46,150.48h2.86v-4.45h-2.86v4.45ZM192.35,143.61v-1.12h-5.98v.78c0,.12-.23.27-.68.44-.43.17-.88.26-1.33.26h-.34v-6.81h10.69v5.8c-.02.1-.27.24-.75.42-.47.16-.88.23-1.22.23h-.39ZM186.37,141.74h5.98v-3.82h-5.98v3.82ZM195.44,152.38h-.34v-1.14h-2.94v.75c0,.12-.2.26-.6.42-.38.14-.77.21-1.17.21h-.31v-7.33h7.15v6.5c-.02.09-.24.21-.68.36-.42.16-.79.23-1.12.23ZM192.17,150.48h2.94v-4.45h-2.94v4.45Z"/>
      <path class="cls-2" d="M210.86,134.38h2.57v9.12c-.04.1-.29.24-.75.42-.45.17-.85.26-1.2.26h-.36v-1.48h-4.39v12.97c0,.19-.21.39-.62.6-.42.23-.88.34-1.4.34h-.44v-22.23h6.6ZM211.12,135.14h-4.39v2.96h4.39v-2.96ZM206.73,141.95h4.39v-3.09h-4.39v3.09ZM225.55,134.38v19.03c0,.66-.08,1.18-.23,1.56-.16.38-.52.72-1.09,1.01-.56.29-1.38.49-2.47.6-.1-.85-.37-1.44-.81-1.77-.61-.43-1.56-.75-2.86-.94v-.36c2.39.16,3.81.23,4.26.23s.7-.21.7-.62v-10.43h-4.55v.62c0,.07-.1.17-.29.29-.19.12-.45.23-.78.34-.33.09-.65.13-.96.13h-.34v-9.7h9.41ZM223.05,135.14h-4.55v2.96h4.55v-2.96ZM218.5,141.95h4.55v-3.09h-4.55v3.09Z"/>
      <path class="cls-2" d="M251.03,139.71v8.5c-.03.09-.31.22-.83.39-.52.16-.96.23-1.33.23h-.42v-1.77h-12.74c-.23,2.01-.77,3.82-1.64,5.43-.87,1.61-2.24,3-4.11,4.16l-.31-.29c.8-.88,1.46-1.84,1.98-2.86.52-1.04.89-2.14,1.12-3.3.24-1.16.41-2.25.49-3.28s.13-2.21.13-3.56v-7.72h3.09c2.18-.4,4.33-.9,6.45-1.51,2.11-.62,3.8-1.25,5.04-1.87l2.81,2.7c-.35.26-.88.24-1.61-.05-3.92.87-8.34,1.34-13.26,1.43v3.35h15.13ZM235.79,146.32h12.66v-5.85h-12.56v2.94c0,1.06-.04,2.03-.1,2.91Z"/>
      <path class="cls-2" d="M268.45,148.06l-.44-.83c1.35-.78,2.21-1.9,2.57-3.35-.73-.33-1.28-.68-1.65-1.04-.37-.36-.56-.81-.56-1.33,0-.48.16-.9.48-1.23.32-.34.76-.51,1.31-.51.61,0,1.09.22,1.44.65.35.43.53,1.04.53,1.82,0,1.13-.3,2.23-.9,3.3-.6,1.08-1.53,1.92-2.79,2.52Z"/>
      <path class="cls-2" d="M310.57,142.52v.75h-10.63c-.09.38-.41.61-.96.68v1.79c3.92.07,6.56.8,7.93,2.18.66.68.85,1.32.57,1.92-.24.5-.68.7-1.3.6-.12-.02-.24-.05-.36-.1-.59-.64-1.51-1.35-2.76-2.13-1.23-.78-2.59-1.45-4.08-2v9.72c0,.12-.23.26-.7.42-.45.17-.92.26-1.4.26h-.47v-13.34h-9.93l-.23-.75h10.17v-10.06l2.57.31v4.5h8.5v.73h-8.5v4.52h11.6Z"/>
      <path class="cls-2" d="M319.02,139.56v16.25c-.04.12-.28.28-.73.47-.43.21-.87.31-1.3.31h-.44v-13.99c-1.13,1.4-2.24,2.57-3.35,3.48l-.34-.23c1.14-1.65,2.24-3.67,3.3-6.08,1.06-2.43,1.87-4.86,2.44-7.3l2.63,1.12c-.75,2.34-1.48,4.33-2.21,5.98ZM337.66,154.25v.75h-17.73l-.21-.75h9.2c1.21-4.49,2.12-9.06,2.73-13.73l2.73.86c-1.35,4.94-3,9.23-4.94,12.87h8.22ZM320.61,139.35l-.18-.75h16.64v.75h-16.46ZM322.27,141.12l.36-.18c2.65,2.79,4.11,5.54,4.37,8.24.14,1.49-.1,2.57-.73,3.22-.47.5-.95.49-1.43-.03-.09-.09-.17-.19-.26-.31-.17-4.68-.94-8.33-2.31-10.95ZM325.52,132.67l.26-.16c2.27.69,3.67,1.72,4.21,3.07.35.85.29,1.54-.18,2.08-.45.52-1.01.6-1.69.23-.12-.07-.24-.16-.36-.26-.07-.8-.32-1.65-.75-2.55-.43-.92-.93-1.72-1.48-2.42Z"/>
      <path class="cls-2" d="M350.27,140.65v.75h-9.72l-.21-.75h9.93ZM341.02,156.67l-.13-.39c1.54-.47,3.08-1.11,4.63-1.92,1.56-.83,2.76-1.64,3.61-2.42l1.4,2.03c-2.51,1.35-5.69,2.25-9.52,2.7ZM349.21,135.81h-7.8l-.21-.75h8.01v.75ZM358.54,152.66h-.44v-.75h-11.36v.62c0,.07-.09.16-.26.26-.16.1-.41.2-.75.29-.33.07-.69.1-1.09.1h-.44v-9.62h16.56v8.48c0,.05-.09.13-.26.23-.17.09-.44.17-.81.26s-.75.13-1.14.13ZM358.1,144.32h-11.36v1.82h11.36v-1.82ZM358.1,148.63v-1.74h-11.36v1.74h11.36ZM346.74,151.15h11.36v-1.77h-11.36v1.77ZM354.8,136.46l2.34.29c-.09.9-.18,1.48-.29,1.74,1.25,1.16,3.76,1.98,7.54,2.44l-.03.34c-.61.12-1.06.32-1.35.6-.28.26-.43.69-.44,1.3-2.9-.64-4.93-1.92-6.11-3.85-.95,1.73-3.56,3.02-7.83,3.85l-.23-.49c1.32-.43,2.4-.88,3.25-1.35.85-.47,1.49-.97,1.92-1.51.43-.55.73-1.07.88-1.56.17-.48.29-1.08.34-1.79ZM348.89,138.83l-.26-.26c.74-.73,1.43-1.66,2.05-2.81.62-1.16,1.09-2.31,1.4-3.46l2.63.62c-.29.76-.69,1.46-1.2,2.11h9.65v1.2c-.85.87-1.87,1.7-3.07,2.5l-.31-.18c.29-.76.6-1.68.91-2.76h-7.83c-1.27,1.32-2.59,2.33-3.98,3.04ZM353.89,152.95l.1-.39c4.63.21,7.5.92,8.63,2.13.52.54.55,1.03.1,1.48-.43.42-.98.52-1.64.31-.23-.07-.44-.18-.65-.34-1.54-1.37-3.73-2.44-6.55-3.2Z"/>
      <path class="cls-2" d="M391.35,141.98v.75h-19.01v2.13c0,1.02-.05,1.96-.16,2.81-.09.85-.28,1.84-.57,2.96-.28,1.13-.75,2.21-1.43,3.25-.68,1.02-1.53,1.92-2.55,2.7l-.29-.26c1.06-1.59,1.75-3.33,2.08-5.2.35-1.89.52-3.98.52-6.27v-2.89h21.4ZM368.65,136.31l-.21-.75h10.89c-.3-1.18-1.01-2.23-2.16-3.15l.21-.18c1.35.02,2.38.26,3.09.73.73.45,1.05.92.96,1.4-.09.49-.27.88-.55,1.2h10.56v.75h-6.58l.88,1.2c-.73.57-1.55,1.04-2.47,1.4,1.46.68,2.25,1.39,2.39,2.13.07.47-.12.76-.57.88-.23.05-.47.04-.73-.03-.78-.59-2.01-1.27-3.69-2.03-2.63.87-5.43,1.48-8.37,1.85l-.18-.39c2.15-.52,4.36-1.28,6.63-2.29-1.7-.66-3.42-1.22-5.15-1.69l.1-.42c2.81.21,5.21.59,7.2,1.14,1.18-.62,2.16-1.21,2.94-1.77h-15.21ZM391.33,154.87v.75h-19.6l-.21-.75h8.61v-3.59h-5.04l-.21-.75h5.25v-3.09h-3.98c-.92,1.35-1.92,2.39-2.99,3.12l-.36-.23c1.18-1.77,2.04-4.06,2.6-6.86l2.16.94c-.24.9-.55,1.66-.94,2.29h3.51v-3.48l2.44.31v3.17h6.71v.75h-6.71v3.09h6.16v.75h-6.16v3.59h8.76Z"/>
      <path class="cls-2" d="M399.62,140.73v7.96c1.28-.29,2.46-.58,3.54-.86l.1.31c-2.64,1.63-4.94,2.98-6.92,4.06-.1.31-.31.53-.62.65l-1.4-3.02c.43-.07,1.42-.28,2.96-.62v-8.48h-2.68l-.21-.75h2.89v-6.99l2.34.34v6.66h3.41v.75h-3.41ZM417.22,136.85v8.27c-.02.1-.26.24-.73.42-.45.16-.85.23-1.2.23h-.42v-1.07h-9.49v.81c0,.12-.22.27-.65.44l2.05.86h8.87v9c-.02.1-.26.23-.73.39-.47.17-.88.26-1.25.26h-.39v-1.54h-6.66v.88c0,.14-.22.29-.65.47-.43.19-.88.29-1.33.29h-.34v-10.48c-.29.09-.57.13-.83.13l-.36.03v-9.39h8.45c.62-1.89,1.08-3.37,1.38-4.45l2.55,1.01c-.97,1.34-2.05,2.48-3.25,3.43h4.97ZM404.92,132.75l.26-.18c2.04.38,3.3,1.12,3.77,2.21.28.68.18,1.22-.29,1.64-.49.43-1.06.43-1.72,0-.24-1.26-.92-2.49-2.03-3.67ZM405.39,137.61v6.34h3.77v-6.34h-3.77ZM405.65,138.88l.31-.16c1.54.73,2.43,1.59,2.65,2.57.16.61.02,1.04-.42,1.3-.36.23-.75.16-1.17-.21-.05-1.07-.51-2.24-1.38-3.51ZM413.3,147.57h-6.66v2.86h6.66v-2.86ZM406.64,154.17h6.66v-2.99h-6.66v2.99ZM411.16,143.95h3.72v-4.06c-.17.12-.39.16-.65.13-.85,1.33-1.5,2.26-1.95,2.78l-.47-.18c.29-.97.65-2.3,1.07-3.98l2,.78v-1.82h-3.72v6.34Z"/>
      <path class="cls-2" d="M426.92,139.56v16.25c-.02.12-.25.28-.7.47-.43.19-.87.29-1.3.29h-.47v-13.65c-.92,1.25-1.89,2.31-2.91,3.2l-.34-.21c1.06-1.72,2.06-3.78,3.02-6.19.95-2.41,1.69-4.84,2.21-7.28l2.65,1.09c-.66,2.27-1.38,4.28-2.16,6.03ZM442.65,154.84h2.73v.75h-17.5l-.21-.75h2.91v-15.24h4.32c0-.17,0-.57.03-1.2.03-.64.06-1.15.08-1.53h-5.93l-.21-.75h6.16c0-.28,0-.67.03-1.17.02-.52.03-.98.03-1.38.02-.42.03-.8.03-1.14l2.55.31c0,.55-.04,1.17-.1,1.85-.07.66-.12,1.17-.16,1.54h7.83v.75h-7.93l-.29,2.73h5.64v15.24ZM440.23,140.36h-7.31v2.94h7.31v-2.94ZM440.23,146.97v-2.91h-7.31v2.91h7.31ZM432.93,147.72v2.94h7.31v-2.94h-7.31ZM432.93,151.41v3.43h7.31v-3.43h-7.31Z"/>
      <path class="cls-2" d="M460.98,136.07h-7.54c-1.33,1.82-2.9,3.28-4.71,4.37l-.31-.26c1.75-2.04,3.12-4.69,4.11-7.93l2.31,1.14c-.38.97-.67,1.61-.86,1.92h6.99v.75ZM468.44,148.08h2.65v1.12c-.29,2.91-.94,4.68-1.92,5.3-.71.45-1.64.68-2.78.68.03-.78-.11-1.32-.44-1.61-.36-.35-1.08-.61-2.13-.78v-.39c1.46.12,2.45.18,2.99.18.4,0,.67-.06.81-.18.47-.35.81-1.53,1.01-3.56h-6.68v7.1c-.02.07-.1.15-.26.23-.16.1-.4.2-.73.29-.33.1-.68.16-1.07.16h-.47v-5.98c-2.5,2.34-5.97,4.12-10.43,5.36l-.21-.36c1.87-.8,3.59-1.79,5.15-2.96,1.58-1.2,2.87-2.47,3.87-3.82h-6.55v-1.01c.42-1.75.7-2.96.86-3.61h7.31v-3.12h-8.61l-.23-.75h19.21v5.04c-.02.1-.27.25-.75.44-.47.17-.89.26-1.27.26h-.39v-1.12h-5.43v3.12h6.5ZM453.6,148.08h5.82v-3.12h-5.2c-.24,1.25-.45,2.29-.62,3.12ZM454.35,136.75l.26-.18c1.73.24,2.75.8,3.04,1.66.17.52.04.94-.39,1.25-.43.31-.91.27-1.43-.13-.07-.45-.25-.92-.55-1.4-.28-.49-.59-.88-.94-1.2ZM472.71,135.32v.75h-9.05c-1.11,1.42-2.38,2.55-3.8,3.38l-.34-.23c1.4-1.8,2.5-4.12,3.3-6.97l2.26,1.25c-.14.54-.43,1.14-.86,1.82h8.48ZM461.94,141.09v3.12h5.43v-3.12h-5.43ZM464.57,136.78l.23-.18c1.79.14,2.85.63,3.2,1.48.23.54.12.97-.31,1.3-.47.35-.98.32-1.53-.08-.07-.43-.26-.88-.57-1.35-.31-.49-.65-.88-1.01-1.17Z"/>
      <path class="cls-2" d="M475.67,143.33h24.08v.86h-23.82l-.26-.86Z"/>
      <path class="cls-2" d="M510.95,142.81l.08.31c-.78.56-1.77,1.23-2.96,2.03v8.48c0,.97-.19,1.68-.57,2.13-.38.45-1.2.74-2.44.86-.09-.83-.25-1.39-.49-1.66-.35-.4-.97-.67-1.87-.81v-.39c1.4.1,2.26.16,2.57.16.36,0,.55-.16.55-.47v-6.84c-.23.14-.57.36-1.04.65-.45.28-.74.45-.86.52-.07.33-.26.57-.57.73l-1.14-2.91c.8-.19,2-.55,3.61-1.09v-5.23h-3.02l-.21-.75h3.22v-6.06l2.26.34v5.72h3.56v.75h-3.56v4.5c.21-.07.5-.17.88-.29.4-.14.76-.26,1.09-.36.33-.1.63-.21.91-.31ZM514.62,137.37v-4.63l2.34.31v11.73c-.03,2.86-.62,5.26-1.74,7.2-1.11,1.94-3.01,3.49-5.69,4.65l-.26-.31c1.52-1.04,2.69-2.23,3.51-3.56.83-1.35,1.38-2.92,1.64-4.71-1.61,1.2-2.73,2.01-3.35,2.44-.12.36-.32.58-.6.65l-1.09-2.86c.87-.17,2.58-.58,5.15-1.22.07-.64.1-1.4.1-2.29v-1.43h-3.48l-.21-.75h3.69v-4.5h-3.43l-.23-.73h3.67ZM527.15,148.68v.73h-5.56v6.34c0,.16-.23.34-.68.55-.43.21-.87.31-1.3.31h-.44v-23.84l2.42.34v4.26h5.25v.73h-5.25v4.58h4.94v.75h-4.94v5.25h5.56Z"/>
      <path class="cls-2" d="M102.58,187.28l.39,2.78c-1.11.35-1.94.6-2.5.75v6.58c0,.73-.07,1.3-.22,1.72-.15.42-.41.75-.79.99-.66.42-1.86.61-3.61.57-.1-.94-.36-1.89-.78-2.86.99.05,1.67.07,2.04.05.37-.02.56-.17.56-.47v-5.75c-.5.16-1.33.39-2.47.7l-.68-2.96c.26-.05,1.31-.3,3.15-.75v-4.5h-2.73v-2.83h2.73v-4.89h2.81v4.89h2.37v2.83h-2.37v3.74l2.11-.6ZM112.04,195.28v2.39c.62.07,1.79.1,3.51.1s2.93-.02,3.64-.05c-.43.71-.72,1.59-.86,2.65h-4.32c-1.94,0-3.59-.22-4.94-.66-1.35-.44-2.5-1.24-3.43-2.4-.62,1.42-1.39,2.57-2.29,3.46-.49-.47-1.27-1.03-2.34-1.69,1.7-1.47,2.76-3.93,3.2-7.36l2.81.36c-.17,1.08-.33,1.88-.47,2.42.62,1.09,1.5,1.9,2.63,2.42v-5.56h-4.86v-2.29h4.86v-1.33h-6.37v-2.39h6.37v-1.2h-4.86v-2.31h4.86v-1.09h-5.95v-2.42h5.95v-1.95h2.86v1.95h6.53v2.42h-6.53v1.09h5.51v3.51h1.61v2.39h-1.61v3.61h-5.51v1.51h5.69v2.42h-5.69ZM112.04,184.16v1.2h2.65v-1.2h-2.65ZM112.04,187.74v1.33h2.65v-1.33h-2.65Z"/>
      <path class="cls-2" d="M127.72,188.63l1.3.54c-.24,1.92-.66,3.71-1.25,5.36.71,1.23,1.73,2.04,3.06,2.43,1.33.39,3.2.59,5.63.61,3.6,0,6.92-.15,9.96-.44-.42.59-.75,1.54-.99,2.86-2.7.16-5.53.23-8.48.23s-5.17-.21-6.66-.64c-1.49-.43-2.7-1.27-3.64-2.54-.83,1.52-1.86,2.76-3.09,3.69-.19-.31-.5-.68-.92-1.11-.42-.42-.78-.74-1.08-.95,2.17-1.51,3.65-4.04,4.45-7.59h-1.82c-.78,0-1.32.13-1.61.39-.1-.4-.42-1.23-.96-2.5.48-.12.93-.4,1.33-.83.43-.42,1.25-1.5,2.44-3.25h-3.3v-2.44h5.1l.42-.18,1.87.86c-1.46,2.18-2.76,4.04-3.9,5.56h1.72l.44-.08ZM128.27,180.31l-2.42,1.66c-.62-1.07-1.66-2.48-3.12-4.21l2.31-1.35c1.33,1.4,2.41,2.7,3.22,3.9ZM131.39,183.22v-1.01h-2.11v-5.02h15.73v5.02h-1.95v1.01h-4.34v.96h5.28v7.62h-5.28v1.09h6.58v2.26h-6.58v1.69h-3.02v-1.69h-6.16v-2.26h6.16v-1.09h-5.07v-7.62h5.07v-.96h-4.32ZM142.05,179.45h-9.96v1.64h3.61v-.94h3.02v.94h3.33v-1.64ZM133.15,186.08v1.04h2.55v-1.04h-2.55ZM133.15,189.93h2.55v-1.04h-2.55v1.04ZM141.4,186.08h-2.68v1.04h2.68v-1.04ZM141.4,189.93v-1.04h-2.68v1.04h2.68Z"/>
      <path class="cls-2" d="M149.66,195.93h22.57v3.17h-22.57v-3.17ZM151.12,178.88h19.71v3.12h-19.71v-3.12ZM152.91,187.17h15.86v3.15h-15.86v-3.15Z"/>
      <path class="cls-2" d="M189.47,197.49h10.37v2.44h-23.58v-2.44h10.09v-1.38h-8.19v-2.31h8.19v-1.17h-7.33v-8.24h7.33v-.99h-9.93v-2.42h9.93v-1.14c-2.76.12-5.22.19-7.38.21-.02-.64-.23-1.43-.62-2.37,7.38-.16,13.22-.59,17.5-1.3l1.43,2.39c-2.17.35-4.77.63-7.8.86v1.35h10.19v2.42h-10.19v.99h7.72v8.24h-7.72v1.17h8.68v2.31h-8.68v1.38ZM182.03,186.42v1.17h4.32v-1.17h-4.32ZM182.03,190.6h4.32v-1.17h-4.32v1.17ZM194.02,186.42h-4.55v1.17h4.55v-1.17ZM194.02,190.6v-1.17h-4.55v1.17h4.55Z"/>
      <path class="cls-2" d="M210.82,194.58l2.29-.49.31,3.02c-2.77.69-6.17,1.49-10.19,2.39l-.7-3.22c.83-.12,2.72-.49,5.67-1.09.69-3.07,1.21-6.48,1.53-10.24l2.99.49c-.68,3.88-1.31,6.93-1.9,9.15ZM210.37,180.44l-2.21.73h5.54v2.99h-10.97v-2.99h4.63c-.31-1.13-.83-2.41-1.56-3.85l2.78-.81c.78,1.23,1.38,2.54,1.79,3.93ZM203.64,185.58l2.5-.44c.64,3.19,1.05,6.2,1.22,9.02l-2.65.55c-.07-2.39-.43-5.43-1.07-9.13ZM227.82,184.52h-6.37v4.71h5.43v11.41h-13.03v-11.41h4.26v-12.84h3.33v5.04h6.37v3.09ZM223.53,197.62v-5.36h-6.47v5.36h6.47Z"/>
      <path class="cls-2" d="M248.67,196.96l-6.14-6.14-6.14,6.14h-.36v-.37l6.14-6.13-6.14-6.14v-.36h.36l6.14,6.13,6.14-6.13h.36v.36l-6.14,6.14,6.14,6.13v.37h-.36Z"/>
      <path class="cls-2" d="M265.03,189.04l-1.35,2.05c-.17-.55-.53-1.39-1.07-2.52v12.06h-2.65v-9.98c-.55,1.94-1.14,3.48-1.77,4.6-.28-1.02-.69-2.04-1.22-3.04,1.18-1.79,2.12-4.5,2.83-8.14h-2.13v-2.86h2.29v-4.84h2.65v4.84h1.77v2.86h-1.77v1.14c.61.83,1.41,2.11,2.42,3.82ZM269.08,192.11l-.05.57c1.68,1.35,2.78,2.28,3.3,2.78l-1.87,1.85c-.23-.26-.88-.89-1.95-1.9-.66,2.17-1.84,3.91-3.54,5.23-.21-.26-.53-.58-.98-.96-.44-.38-.8-.65-1.08-.81,2.25-1.66,3.43-3.92,3.54-6.76h-1.53v-2.37h7.25c-.38-2.32-.68-5.36-.88-9.1-1.11,2.06-2.29,3.87-3.54,5.41l1.46-.16c-.07-.26-.18-.65-.34-1.17l1.79-.47c.49,1.3.82,2.55,1.01,3.74l-1.9.57c-.02-.24-.07-.54-.16-.88-2.31.33-3.67.6-4.08.81-.17-.68-.41-1.38-.7-2.11.38-.1.81-.49,1.27-1.17.31-.38.73-1.01,1.25-1.87-1.09.14-1.79.29-2.08.44-.23-.82-.47-1.51-.73-2.08.35-.12.66-.43.94-.94.75-1.21,1.32-2.6,1.72-4.16l2.24.6c-.61,1.53-1.35,2.96-2.24,4.32l1.17-.08c.35-.73.59-1.26.73-1.61l2.16.7c-.04-.83-.09-2.15-.16-3.95h2.55c.1,5.41.47,9.79,1.09,13.16h2.39c-.19-.16-.64-.53-1.35-1.12l1.17-.96c-.97.16-1.59.31-1.85.47-.16-.66-.39-1.37-.7-2.13.35-.1.77-.5,1.27-1.2.29-.33.69-.95,1.2-1.85-1.04.14-1.72.29-2.03.44-.14-.5-.38-1.2-.73-2.08.28-.07.57-.36.88-.88.71-1.35,1.23-2.66,1.56-3.93l2.21.6c-.5,1.35-1.18,2.69-2.03,4l1.17-.08c.19-.42.42-.95.68-1.61l2.24.73c-.99,2.01-2.15,3.85-3.48,5.51l1.46-.18c-.04-.09-.09-.26-.17-.51-.08-.25-.14-.44-.19-.56l1.77-.49c.55,1.4.95,2.66,1.2,3.77l-1.85.62c-.07-.35-.15-.69-.23-1.04-.8.1-1.34.19-1.64.26,1,.75,1.66,1.27,1.98,1.59l-.68.62h2.08v2.37h-3.02l2.05.78c-.71,1.4-1.66,2.68-2.83,3.82.47.54,1,.85,1.61.94.47.05.8-.85.99-2.7.43.59,1.08,1.14,1.95,1.64-.57,2.77-1.52,4.12-2.83,4.06-1.49-.12-2.76-.86-3.82-2.21-1.21.85-2.58,1.57-4.11,2.16-.47-.76-1-1.42-1.59-1.98,1.63-.55,3.12-1.33,4.47-2.34-.5-1.09-.95-2.48-1.33-4.16h-3.54ZM277.48,192.11h-2.24c.19.78.42,1.53.7,2.26.62-.73,1.13-1.48,1.53-2.26Z"/>
      <path class="cls-2" d="M292.22,187.28l.39,2.78c-1.11.35-1.94.6-2.5.75v6.58c0,.73-.07,1.3-.22,1.72-.15.42-.41.75-.79.99-.66.42-1.86.61-3.61.57-.1-.94-.36-1.89-.78-2.86.99.05,1.67.07,2.04.05.37-.02.56-.17.56-.47v-5.75c-.5.16-1.33.39-2.47.7l-.68-2.96c.26-.05,1.31-.3,3.15-.75v-4.5h-2.73v-2.83h2.73v-4.89h2.81v4.89h2.37v2.83h-2.37v3.74l2.11-.6ZM301.69,195.28v2.39c.62.07,1.79.1,3.51.1s2.93-.02,3.64-.05c-.43.71-.72,1.59-.86,2.65h-4.32c-1.94,0-3.59-.22-4.94-.66-1.35-.44-2.5-1.24-3.43-2.4-.62,1.42-1.39,2.57-2.29,3.46-.49-.47-1.27-1.03-2.34-1.69,1.7-1.47,2.76-3.93,3.2-7.36l2.81.36c-.17,1.08-.33,1.88-.47,2.42.62,1.09,1.5,1.9,2.63,2.42v-5.56h-4.86v-2.29h4.86v-1.33h-6.37v-2.39h6.37v-1.2h-4.86v-2.31h4.86v-1.09h-5.95v-2.42h5.95v-1.95h2.86v1.95h6.53v2.42h-6.53v1.09h5.51v3.51h1.61v2.39h-1.61v3.61h-5.51v1.51h5.69v2.42h-5.69ZM301.69,184.16v1.2h2.65v-1.2h-2.65ZM301.69,187.74v1.33h2.65v-1.33h-2.65Z"/>
      <path class="cls-2" d="M310.47,198.4l6.16-19.27h4.52l6.19,19.27h-4.03l-1.35-4.94h-6.24l-1.35,4.94h-3.9ZM317.13,188.37l-.57,2.11h4.58l-.57-2.11c-.07-.23-.62-2.32-1.66-6.29h-.13c-.49,2.08-1.03,4.18-1.64,6.29Z"/>
      <path class="cls-2" d="M329.4,198.4v-2.21c2.79-2.5,4.88-4.65,6.25-6.45,1.38-1.8,2.07-3.41,2.07-4.81,0-.99-.25-1.75-.75-2.3-.5-.54-1.21-.82-2.13-.82-1.14,0-2.32.66-3.54,1.98l-2.08-2.08c.94-1.01,1.87-1.74,2.81-2.21.94-.47,2.04-.7,3.3-.7,1.82,0,3.28.54,4.39,1.62,1.11,1.08,1.66,2.52,1.66,4.3,0,2.93-2.13,6.48-6.4,10.66,1.28-.14,2.33-.21,3.15-.21h4.16v3.22h-12.9Z"/>
      <path class="cls-2" d="M356.35,196.08v-14.74h1.25v14.74h-1.25Z"/>
      <path class="cls-2" d="M369.5,189.54v-5.85c-.42.45-.73.77-.94.96-.42-.85-.91-1.59-1.48-2.21,1.68-1.54,2.92-3.54,3.72-6.01l2.37.65c-.16.5-.42,1.17-.81,2h1.98c-.19-.59-.45-1.22-.78-1.9l2.55-.7c.59,1.23.97,2.1,1.14,2.6h1.9v1.95h-2.7v.99h2.18v.05c1.42-1.56,2.5-3.44,3.25-5.64l2.42.68c-.12.36-.39,1.03-.81,2h1.98c-.19-.59-.44-1.2-.75-1.85l2.55-.7c.52,1.06.9,1.91,1.14,2.55h2.34v1.92h-3.22v.99h2.55v1.79h-2.55v.99h2.55v1.82h-2.55v.99h3.54v1.92h-10.43v-5.82c-.19.24-.51.61-.96,1.09-.28-.45-.62-.94-1.04-1.46v.47h-2.18v.99h2.18v1.82h-2.18v.99h2.94v1.92h-9.88ZM386.51,190.5l2.08,1.27c-1.14,1.84-2.81,3.43-4.99,4.78,2.27.49,4.78.82,7.51,1.01-.69.78-1.33,1.76-1.9,2.94-3.74-.35-6.99-1.03-9.75-2.05-3.03,1.08-6.6,1.82-10.71,2.24-.29-1.08-.71-2-1.25-2.78,2.95-.21,5.66-.61,8.14-1.2-1.39-.81-2.69-1.83-3.9-3.04l1.2-.54h-3.98v-2.5h16.98l.57-.13ZM373.98,182.02v-.99h-1.87v.99h1.87ZM373.98,184.81v-.99h-1.87v.99h1.87ZM373.98,187.61v-.99h-1.87v.99h1.87ZM383.47,193.13h-8.09c1.07.85,2.5,1.6,4.26,2.26,1.59-.68,2.87-1.43,3.82-2.26ZM385.05,182.02v-.99h-1.82v.99h1.82ZM385.05,184.81v-.99h-1.82v.99h1.82ZM385.05,187.61v-.99h-1.82v.99h1.82Z"/>
      <path class="cls-2" d="M415.55,196.87c0,.4.13.6.39.6h.36c.14,0,.26-.05.36-.16.07-.22.13-.48.18-.75.05-1.07.07-2.14.05-3.2.61.55,1.3.94,2.08,1.17-.03,1.84-.13,3.12-.27,3.85-.15.73-.41,1.26-.79,1.61-.43.33-.94.49-1.51.49h-1.35c-.78,0-1.38-.24-1.79-.73-.21-.22-.35-.52-.43-.9s-.12-.98-.12-1.83v-12.48h-1.66v1.12c0,1.56-.05,2.93-.14,4.11-.1,1.18-.29,2.46-.58,3.85-.59,2.83-1.88,5.24-3.87,7.23-.82-.85-1.62-1.48-2.42-1.9.75-.71,1.39-1.52,1.92-2.42h-4.21v4.11h-2.86v-4.11h-4.6v-2.68h4.6v-1.53h-3.69v-9.39h3.69v-1.4h-4.24v-2.68h4.24v-2.44h2.91v2.44h4.13v2.68h-4.13v1.4h3.82v9.39h-3.87v1.53h4.37v2.42c.85-1.46,1.41-3.04,1.69-4.75s.42-3.66.42-5.86v-1.12h-2.03v-2.71h2.03v-5.41h2.83v5.41h4.5v15.03ZM397.56,185.09v1.56h1.64v-1.56h-1.64ZM397.56,188.65v1.53h1.64v-1.53h-1.64ZM403.17,186.65v-1.56h-1.72v1.56h1.72ZM403.17,190.19v-1.53h-1.72v1.53h1.72Z"/>
      <path class="cls-2" d="M436.84,187.38l3.12.91c-1.02,2.39-2.39,4.43-4.11,6.11,2.51,1.65,5.66,2.76,9.44,3.33-.71.71-1.33,1.64-1.87,2.78-4.07-.78-7.4-2.14-9.98-4.08-2.57,1.82-5.88,3.22-9.93,4.21-.54-1.02-1.16-1.94-1.87-2.76,3.93-.76,7.11-1.94,9.52-3.54-1.54-1.68-2.81-3.67-3.8-5.98l2.78-.86c.8,1.92,1.91,3.59,3.33,4.99,1.53-1.44,2.65-3.15,3.38-5.12ZM428.19,182.91l2.99,1.14c-.85,1.11-1.91,2.21-3.18,3.31-1.27,1.1-2.51,2.02-3.71,2.74-.87-.94-1.68-1.69-2.44-2.26,2.65-1.35,4.77-3,6.34-4.94ZM444.83,179.66v3.02h-22.8v-3.02h10.14c-.35-.83-.79-1.69-1.33-2.57l2.96-1.04c.99,1.56,1.62,2.76,1.9,3.59l-.08.03h9.2ZM435.91,184.49l2.44-1.74c3.19,2.18,5.42,4.01,6.68,5.49l-2.65,2c-.61-.76-1.53-1.68-2.76-2.76-1.23-1.07-2.47-2.07-3.72-2.99Z"/>
      <path class="cls-2" d="M452.55,197.23h19.73v2.57h-22.75v-22.62h22.23v2.57h-10.3l1.92.57c-.3.82-.62,1.58-.96,2.29h2.81l-.78-1.87,2.73-.78c.54.97.93,1.85,1.17,2.65h3.04v2.34h-3.87v1.38h3.12v2.11h-3.12v1.38h3.12v2.13h-3.12v1.43h4.06v2.34h-12.22v-8.16l-1.04,1.14-1.12-1.56-1.3,1.53c-.64-.69-1.76-1.53-3.35-2.52v11.08ZM455.25,179.76h-2.7v6.21l1.46-1.69c1.14.59,2.12,1.21,2.94,1.87,1.68-1.75,2.97-3.88,3.87-6.4h-5.41c1.52.75,2.65,1.48,3.38,2.21l-1.74,1.98-3.35-2.44,1.56-1.74ZM455.25,196.53l-2.08-1.98c1.13-1.53,2.29-3.35,3.48-5.46l1.74,1.82c-.75,1.46-1.79,3.33-3.15,5.62ZM464.77,186.34v-1.38h-2.73v1.38h2.73ZM464.77,189.82v-1.38h-2.73v1.38h2.73ZM464.77,193.39v-1.43h-2.73v1.43h2.73Z"/>
      <path class="cls-2" d="M21.74,222.41v18.93c0,.99-.22,1.72-.65,2.18-.43.47-1.36.76-2.78.88-.09-.83-.28-1.4-.57-1.72-.45-.42-1.2-.7-2.24-.86v-.39c1.75.14,2.81.21,3.17.21.4,0,.6-.19.6-.57v-5.56h-5.88v8.11c0,.07-.08.16-.23.26-.14.1-.37.2-.7.29-.33.1-.68.16-1.07.16h-.42v-8.81h-5.64c-.59,3.9-2.25,6.89-4.99,8.97l-.34-.23c1.3-1.75,2.16-3.73,2.57-5.95s.62-4.84.62-7.85v-8.03h18.54ZM5.43,234.76h5.54v-5.49h-5.33v1.14c0,1.77-.07,3.22-.21,4.34ZM10.97,223.16h-5.33v5.36h5.33v-5.36ZM19.27,223.16h-5.88v5.36h5.88v-5.36ZM13.39,234.76h5.88v-5.49h-5.88v5.49Z"/>
      <path class="cls-2" d="M42.3,224.54l.26-.23c3.47,1.13,5.79,2.65,6.97,4.58.68,1.09.83,2.01.47,2.76-.29.59-.78.76-1.46.52-.14-.05-.29-.12-.44-.21-.24-.76-.72-1.67-1.43-2.73-4.72.83-10.2,1.62-16.46,2.37-.21.26-.43.43-.65.49l-.99-2.91c.42-.09.71-.18.88-.29,1.35-.78,2.86-2.05,4.52-3.82,1.68-1.79,2.89-3.34,3.61-4.65l2.44,1.51c-.97,1.34-2.31,2.64-4,3.93-1.68,1.28-3.35,2.4-5.02,3.35,3.15-.05,8.22-.24,15.21-.57-1.06-1.44-2.37-2.8-3.93-4.08ZM44.38,233.9h2.86v9.78c-.02.09-.29.21-.81.37-.5.17-.95.26-1.35.26h-.42v-2.05h-10.84v1.43c0,.14-.24.31-.73.52-.49.21-.97.31-1.46.31h-.39v-10.61h13.13ZM33.83,241.49h10.84v-6.84h-10.84v6.84Z"/>
      <path class="cls-2" d="M64.12,239.65l2.31-.39.05.31c-3.09,1.46-6.41,2.87-9.96,4.24-.16.36-.38.57-.68.62l-1.27-3.25c1.09-.1,3.47-.48,7.12-1.12v-10.56h-6.24l-.23-.75h6.47v-7.75l2.42.34v18.3ZM77.32,237.23l.13,3.87c.64.24.96.59.96,1.04,0,.55-.36.94-1.09,1.17-.73.24-2.08.36-4.06.36h-2.42c-1.16,0-1.96-.18-2.39-.54-.43-.35-.65-1.01-.65-1.98v-19.76h2.44v7.36h7.36v.75h-7.36v10.97c0,.33.07.55.21.68.16.12.46.18.91.18h2.08c1.06,0,1.69-.02,1.9-.05.29-.03.5-.15.62-.34.17-.29.54-1.53,1.09-3.72h.26Z"/>
      <path class="cls-2" d="M105.4,224.78v.75h-10.87v3.51h7.44v9.15c0,.95-.22,1.66-.65,2.13-.42.45-1.32.74-2.7.86-.09-.81-.26-1.38-.52-1.69-.42-.42-1.12-.69-2.11-.83v-.39c1.54.1,2.51.16,2.91.16s.57-.16.57-.49v-8.14h-4.94v14.09c0,.07-.09.16-.26.26-.16.12-.41.22-.75.31-.33.1-.69.16-1.09.16h-.47v-14.82h-4.94v10.43c0,.14-.23.31-.7.52-.45.19-.91.29-1.38.29h-.39v-11.99h7.41v-3.51h-10.5l-.23-.75h24.18ZM90.35,220.59l.21-.18c2.3.19,3.76.85,4.37,1.98.36.68.32,1.27-.13,1.79-.45.54-1.04.63-1.77.29-.09-.04-.17-.08-.26-.13-.16-.64-.47-1.3-.94-1.98-.47-.69-.96-1.28-1.48-1.77Z"/>
      <path class="cls-2" d="M115.26,232.86v.88c-.57,2.05-1.59,3.84-3.04,5.38.16.02.32.1.49.26,1.01.9,2.31,1.5,3.9,1.79,1.59.29,3.92.44,6.97.44,4.14-.04,7.11-.1,8.89-.18v.34c-.99.17-1.58.84-1.77,2h-7.93c-2.88,0-5.04-.25-6.5-.75-1.46-.49-2.74-1.41-3.85-2.78-.35-.38-.62-.36-.83.05-.54.99-1.06,2.09-1.56,3.3.07.21.03.38-.13.52l-1.85-2.39c.31-.21.84-.61,1.59-1.2.74-.61,1.26-1,1.53-1.17.92-1.7,1.51-3.62,1.77-5.77h-3.22v-1.14c.8-1.39,1.53-2.87,2.21-4.45h-3.22l-.23-.75h5.54v1.2c-.76,1.59-1.51,3.07-2.24,4.42h3.48ZM109.59,221l.23-.16c2.06.5,3.32,1.34,3.77,2.5.28.71.18,1.29-.29,1.74-.47.45-1.02.45-1.66,0-.19-1.33-.88-2.7-2.05-4.08ZM118.72,230.34v9.39c0,.14-.21.3-.62.49-.4.17-.81.26-1.22.26h-.34v-11h2.13v-7.38h10.11v7.49h1.85v8.87c0,.8-.18,1.39-.55,1.77-.36.38-1.1.6-2.21.65,0-.55-.11-1-.34-1.35-.24-.36-.76-.61-1.56-.73v-.37c.83.05,1.5.08,2,.08.28,0,.42-.09.42-.29v-7.88h-9.67ZM125.22,238.24h-.31v-.99h-2.76v.91c0,.05-.08.13-.23.23-.16.09-.36.17-.62.26-.26.07-.51.1-.75.1h-.29v-6.34h6.55v5.17c-.02.1-.22.24-.6.42-.36.16-.69.23-.99.23ZM126.59,222.85h-5.8v6.73h1.77v-4.37h4.03v-2.37ZM122.15,236.5h2.76v-3.33h-2.76v3.33ZM124.38,225.97v3.61h2.21v-3.61h-2.21Z"/>
      <path class="cls-2" d="M159.46,235.38v.75h-10.89v7.57c0,.17-.23.37-.7.6-.47.22-.93.34-1.38.34h-.52v-8.5h-10.48l-.21-.75h10.69v-5.2h-8.84l-.21-.73h9.05v-8.97l2.6.36v8.61h9.57v.73h-9.57v5.2h10.89ZM138.11,221.79l.29-.16c2.46,1,4.01,2.3,4.65,3.9.38.97.34,1.76-.13,2.37-.42.54-.97.62-1.66.26-.12-.07-.24-.16-.36-.26-.1-.97-.43-2.01-.96-3.12-.54-1.11-1.14-2.11-1.82-2.99ZM153.66,221.32l2.39,1.43c-1.51,2.44-3.22,4.39-5.15,5.82l-.34-.26c1.14-1.94,2.17-4.27,3.09-6.99Z"/>
      <path class="cls-2" d="M172.69,225.3v16.85c-.02.12-.26.27-.73.44-.45.19-.87.29-1.25.29h-.36v-2h-4.6v2c0,.16-.2.33-.6.52-.4.21-.82.31-1.27.31h-.39v-18.41h2.86c.31-1.82.55-3.42.73-4.81l2.55.86c-.52,1.23-1.27,2.55-2.26,3.95h5.33ZM170.35,226.05h-4.6v6.47h4.6v-6.47ZM165.75,240.12h4.6v-6.84h-4.6v6.84ZM185.35,225.24v1.14c-.1,5.3-.29,9.26-.57,11.86-.26,2.58-.71,4.24-1.35,4.97-.78.9-1.93,1.35-3.46,1.35,0-.88-.18-1.48-.55-1.79-.45-.43-1.34-.76-2.68-.99l.03-.42c1.63.17,2.85.26,3.67.26.43,0,.77-.11,1.01-.34.45-.43.78-1.88.99-4.34.21-2.46.36-6.11.47-10.95h-5.46c-1.27,2.29-2.65,4.11-4.16,5.46l-.36-.23c1.72-2.95,2.99-6.53,3.82-10.74l2.47,1.01c-.36,1.42-.82,2.67-1.38,3.74h7.51ZM175.11,230.73l.23-.16c2.41.85,3.91,2,4.5,3.46.35.87.29,1.58-.18,2.13-.43.5-.98.55-1.64.16-.1-.05-.21-.12-.31-.21-.1-.83-.41-1.74-.91-2.73-.49-.99-1.05-1.87-1.69-2.65Z"/>
      <path class="cls-2" d="M197.39,235.85v5.36c1.37.36,3.46.54,6.27.54,5.08,0,8.41-.03,9.98-.08v.34c-.9.21-1.39.86-1.46,1.95h-8.61c-3.03,0-5.37-.37-7.02-1.09-1.63-.73-2.92-2.12-3.87-4.19-.71,2.76-1.83,4.91-3.35,6.45l-.31-.26c.83-1.49,1.44-3.35,1.82-5.56.4-2.22.6-4.44.6-6.66l2.13.57c-.14,1.82-.36,3.36-.65,4.63.62,1,1.36,1.79,2.21,2.37v-9.21l2.26.34v3.74h4.6v.75h-4.6ZM189.44,229.74h5.07v-4.08h-3.95l-.21-.75h4.16v-4.42l2.37.31v4.11h4.32v.75h-4.32v4.08h5.2v.75h-12.43l-.21-.75ZM208.05,239.28h-2.6c-1.14,0-1.92-.16-2.31-.47-.4-.33-.6-.94-.6-1.82v-13.81h9.02v7.93c-.02.1-.26.23-.73.39-.45.14-.86.21-1.22.21h-.39v-1.33h-4.37v6.08c0,.26.07.44.21.55.14.09.42.13.86.13h2.31c.94,0,1.63-.02,2.08-.05.26-.02.45-.15.57-.39.14-.31.48-1.65,1.04-4h.31l.08,4.19c.61.24.91.56.91.96,0,.52-.36.89-1.09,1.12-.73.21-2.09.31-4.08.31ZM209.22,223.94h-4.37v5.69h4.37v-5.69Z"/>
      <path class="cls-2" d="M216.16,226.93l.23-.18c2.03.38,3.24,1.1,3.64,2.16.24.64.13,1.16-.34,1.56-.49.43-1.04.42-1.66-.03-.24-1.23-.87-2.4-1.87-3.51ZM222.12,225.04l.47.08c-1.18,5.34-1.91,8.8-2.18,10.37-.19,1.08-.28,1.88-.26,2.42,0,.31.15.95.44,1.92.29.97.42,1.88.39,2.73-.04.61-.21,1.08-.52,1.43-.31.36-.73.55-1.25.55-.28,0-.52-.11-.73-.34s-.34-.55-.39-.96c.21-1.33.29-2.51.23-3.54-.05-1.04-.22-1.66-.49-1.85-.29-.23-.71-.36-1.25-.42v-.52h1.09c.12,0,.21,0,.26-.03.05-.02.1-.06.16-.13.07-.09.14-.22.21-.42.29-.62,1.57-4.39,3.82-11.31ZM217.39,220.75l.23-.18c2.1.43,3.36,1.2,3.8,2.29.28.66.18,1.2-.29,1.61-.49.45-1.05.47-1.69.05-.07-.05-.14-.1-.21-.16-.14-1.14-.75-2.35-1.85-3.61ZM228.59,233.56v1.07c-.07,2.82-.23,4.93-.49,6.32-.26,1.39-.64,2.31-1.14,2.76-.62.55-1.48.83-2.57.83,0-.73-.13-1.21-.39-1.46-.29-.28-.89-.51-1.79-.7v-.42c1.04.1,1.88.16,2.52.16.35,0,.6-.08.75-.23.54-.49.88-3.01,1.04-7.57h-4.29v-1.01c.38-2.34.61-4.1.7-5.28h3.82v-5.2h-4.24l-.23-.75h6.53v7.36c-.03.09-.26.21-.68.37-.4.14-.75.21-1.07.21h-.31v-1.22h-1.92c-.21,1.94-.42,3.54-.62,4.78h4.39ZM238.21,234.03l1.9,1.66c-.81.59-2.18,1.29-4.11,2.11,1.25,2.04,2.88,3.45,4.89,4.21l-.03.29c-.94.24-1.55.98-1.85,2.21-1.53-1.02-2.69-2.4-3.48-4.13-.8-1.75-1.37-3.99-1.72-6.71h-1.25v7.49c1.16-.35,2.1-.63,2.81-.86l.1.31c-1.32,1.14-2.69,2.23-4.11,3.25-.21.42-.45.69-.73.83l-1.53-2.73c.49-.26.8-.46.94-.6.14-.16.21-.36.21-.62v-7.07h-1.22l-.21-.75h1.61v-10.71h9.49v.75h-7.2v2.81h6.42v.75h-6.42v2.89h6.53v.75h-6.53v2.76h8.01v.75h-6.45c.33,1.32.8,2.51,1.4,3.59,1.04-1.16,1.88-2.24,2.52-3.22Z"/>
      <path class="cls-2" d="M248.09,220.46l2.63,1.09c-.68,2.3-1.35,4.31-2.03,6.01v16.33c-.04.12-.27.27-.7.44-.42.19-.84.29-1.27.29h-.44v-13.68c-.88,1.25-1.79,2.33-2.73,3.25l-.36-.21c.97-1.72,1.91-3.79,2.81-6.21.9-2.44,1.6-4.88,2.11-7.3ZM249.78,244.59l-.16-.34c1.18-.5,2.37-1.17,3.56-2,1.21-.85,2.14-1.64,2.78-2.37l1.72,1.71c-.9.73-2.09,1.34-3.56,1.85-1.46.52-2.9.9-4.34,1.14ZM267.62,222.36v.75h-5.64v2.08h4.63v4.5c-.02.1-.27.24-.75.42-.49.16-.91.23-1.27.23l1.85,1.46c-.17.24-.48.4-.91.47v7.64c-.02.1-.27.24-.75.42-.47.17-.89.26-1.27.26h-.42v-1.04h-8.53v.6c0,.07-.1.16-.29.29-.19.1-.45.21-.78.31-.31.09-.62.13-.94.13h-.36v-10.32c-.24.05-.49.08-.73.08h-.34v-5.43h4.47v-2.08h-4.37l-.21-.75h16.61ZM264,229.95l.16.13v-.47h-10.71v.31c0,.12-.23.27-.7.44l1.95.83h8.16l1.14-1.25ZM255.58,225.92h-2.13v2.96h2.13v-2.96ZM254.54,233.69h8.53v-1.74h-8.53v1.74ZM254.54,234.45v1.79h8.53v-1.79h-8.53ZM254.54,238.79h8.53v-1.82h-8.53v1.82ZM259.87,225.19v-2.08h-2.16v2.08h2.16ZM257.71,228.88h2.16v-2.96h-2.16v2.96ZM259.77,240.74l.13-.34c3.97.31,6.4,1.07,7.31,2.26.43.59.41,1.11-.08,1.56-.45.42-.99.51-1.61.29-.23-.07-.43-.19-.6-.36-1.14-1.4-2.86-2.54-5.15-3.41ZM264.16,225.92h-2.18v2.96h2.18v-2.96Z"/>
      <path class="cls-2" d="M281.97,236.06l-.44-.83c1.35-.78,2.21-1.9,2.57-3.35-.73-.33-1.28-.68-1.65-1.04-.37-.36-.56-.81-.56-1.33,0-.48.16-.9.48-1.23s.76-.51,1.31-.51c.61,0,1.09.22,1.44.65.35.43.53,1.04.53,1.82,0,1.13-.3,2.23-.9,3.3-.6,1.08-1.53,1.92-2.8,2.52Z"/>
      <path class="cls-2" d="M310.28,222.83l1.22-1.9,3.25,2.37c-.43.5-1.45.84-3.04,1.01v1.04c.81,8.1,4.94,13.67,12.38,16.72l-.1.31c-1.2.1-2.05.86-2.55,2.26-2.06-1.18-3.98-2.94-5.76-5.29-1.78-2.35-2.96-4.92-3.55-7.71-.9,2.93-2.4,5.51-4.5,7.75-2.1,2.24-4.64,3.98-7.62,5.23l-.23-.34c2.96-1.61,5.47-4.11,7.53-7.49s3.25-7.2,3.6-11.47v-1.74h-6.03l-.18-.75h5.59Z"/>
      <path class="cls-2" d="M351,242.69v.75h-23.95l-.21-.75h10.66v-7.77h-7.62l-.21-.75h7.83v-6.66h-8.71l-.23-.75h21.35v.75h-9.72v6.66h8.63v.75h-8.63v7.77h10.82ZM334.57,220.8l.21-.23c2.96.33,4.95,1.2,5.95,2.6.57.8.68,1.51.31,2.13-.33.59-.86.77-1.59.54-.14-.03-.28-.09-.42-.16-.36-.83-.97-1.7-1.82-2.6-.85-.9-1.73-1.66-2.65-2.29Z"/>
      <path class="cls-2" d="M377.75,237.51l-.55,4.16c.78,1.14,1,1.9.65,2.26-.29.33-.69.47-1.2.42s-1.01-.2-1.51-.44c-.49-.22-.95-.52-1.38-.88-1.33-1.04-2.49-2.3-3.46-3.77-2.18,2.27-4.85,4-7.98,5.17l-.21-.31c2.86-1.58,5.27-3.77,7.23-6.58-1.42-2.86-2.31-6.54-2.68-11.05h-7.83v4.21h6.24v1.09c-.07,2.72-.22,4.71-.44,5.95-.23,1.25-.6,2.09-1.12,2.52-.64.52-1.5.78-2.57.78,0-.76-.13-1.28-.39-1.56-.26-.31-.82-.55-1.66-.73l.03-.42c.87.1,1.62.16,2.26.16.35,0,.59-.08.73-.23.45-.43.73-2.7.83-6.81h-3.9c0,1.26-.05,2.39-.16,3.38-.09.97-.29,2.1-.6,3.38-.29,1.27-.8,2.45-1.51,3.56s-1.61,2.1-2.7,2.96l-.29-.26c1.13-1.75,1.87-3.68,2.24-5.8.36-2.13.55-4.58.55-7.33v-5.59h10.24c-.12-1.58-.18-3.33-.18-5.25l2.5.34c-.02,1.91,0,3.54.08,4.91h8.94v.73h-8.89c.26,3.43.85,6.29,1.77,8.58,1.06-1.99,1.85-4.09,2.37-6.29l2.44,1.12c-.94,2.95-2.16,5.42-3.67,7.41.87,1.39,1.92,2.5,3.17,3.35.22.19.4.28.52.26.12-.02.24-.15.36-.39.42-.66.88-1.69,1.4-3.09l.31.08ZM370.4,221.34l.21-.23c2.24-.02,3.67.48,4.29,1.48.36.59.35,1.11-.03,1.56-.38.43-.89.49-1.53.18-.23-.52-.62-1.06-1.2-1.61-.57-.57-1.15-1.03-1.74-1.38Z"/>
      <path class="cls-2" d="M392.5,233.82l.13.34c-2.62,1.63-5.82,3.42-9.62,5.36-.09.37-.28.6-.57.7l-1.64-2.81c1.35-.35,2.78-.75,4.29-1.22v-11.21h-3.59l-.21-.75h11.08v.75h-4.86v10.45c1.92-.59,3.59-1.13,4.99-1.61ZM403.99,227.09v1.12c-.16,4.54-.42,8.02-.78,10.43-.36,2.41-.89,3.96-1.59,4.65-.83.83-1.97,1.24-3.41,1.22.03-.83-.14-1.4-.52-1.71-.4-.4-1.25-.72-2.55-.96v-.42c1.91.17,3.1.26,3.59.26.42,0,.76-.11,1.04-.34.92-.85,1.52-5.36,1.79-13.52h-4.52c-.09,1.53-.23,2.88-.44,4.06-.19,1.18-.53,2.41-1.01,3.69-.47,1.28-1.07,2.43-1.82,3.43-.75,1.01-1.73,1.99-2.96,2.96-1.21.97-2.65,1.85-4.32,2.62l-.29-.39c1.3-.85,2.43-1.77,3.38-2.76.97-.99,1.76-1.98,2.37-2.96.61-1.01,1.1-2.11,1.48-3.3.38-1.21.65-2.38.81-3.51.17-1.14.29-2.43.36-3.85h-4.24l-.23-.73h4.5c.04-.92.05-3.09.05-6.53l2.52.34c-.04,2.96-.08,5.03-.13,6.19h6.92Z"/>
      <path class="cls-2" d="M408.2,239.99h23.79v.73h-23.58l-.21-.73ZM410.67,225.4h18.72v.73h-18.51l-.21-.73Z"/>
      <path class="cls-2" d="M439.56,225.74l2.13,1.64c-.64,1.16-1.18,2.24-1.61,3.25v13.18c-.02.14-.24.3-.68.49-.42.21-.85.31-1.3.31h-.44v-12.01c-1.06,1.06-1.98,1.9-2.78,2.52l-.29-.26c.94-1.28,1.87-2.79,2.81-4.52.94-1.75,1.66-3.28,2.16-4.6ZM439.53,220.46l2,1.69c-1.94,2.36-4.1,4.24-6.47,5.64l-.29-.29c.9-.97,1.79-2.13,2.68-3.48.9-1.35,1.59-2.54,2.08-3.56ZM452.69,238.14l.08.34c-2.13.94-5.35,2.16-9.65,3.67-.12.31-.34.51-.65.6l-1.53-2.83c1.06-.12,2.5-.32,4.34-.6v-3.8h-3.43l-.21-.75h3.64v-3.74l2.37.26v3.48h4.78v.75h-4.78v3.46c.54-.09,1.37-.23,2.5-.42,1.13-.19,1.98-.33,2.55-.42ZM459.45,228.81v.73h-2.65v11.78c0,.99-.23,1.74-.7,2.26-.47.54-1.4.87-2.81.99-.05-.85-.27-1.44-.65-1.77-.45-.43-1.28-.74-2.5-.91v-.36c1.99.14,3.2.21,3.61.21s.6-.16.6-.49v-11.7h-2.47c.35.31.58.53.7.65-.07.28-.3.42-.7.42h-10.48l-.21-.75h4.08v-4.08h-3.35l-.21-.75h3.56v-3.93l2.37.29v3.64h4.45v.75h-4.45v4.08h3.74v-.73l-.08-.31h8.14ZM459,223.87h-7.25l-.21-.75h7.46v.75Z"/>
      <path class="cls-2" d="M461.79,229.58h4.45v-2.39h-3.04l-.21-.75h3.25v-2.26h-3.69l-.21-.75h3.9v-2.99l2.31.31v2.68h4.68v.75h-4.68v2.26h4.16v.75h-4.16v2.39h5.2v.75h-11.75l-.21-.75ZM483.96,232.94h1.85v.75h-1.85v4.65c-.02.09-.23.22-.65.39-.42.16-.79.23-1.12.23h-.36v-1.35h-2.31v3.85c0,.95-.21,1.68-.62,2.18-.4.5-1.22.81-2.47.94-.03-.78-.2-1.33-.49-1.66-.36-.42-1.09-.69-2.18-.83v-.39c1.68.12,2.7.18,3.04.18.23,0,.37-.04.44-.1.09-.09.13-.22.13-.39v-3.77h-3.46l-.23-.75h3.69v-3.17h-4.24l-.16-.6c-.19.23-.53.39-1.01.49v8.4c0,.83-.17,1.44-.52,1.82-.35.4-1.1.65-2.26.75-.03-.66-.17-1.13-.42-1.4-.31-.31-.85-.54-1.61-.68v-.39c1.18.09,1.91.13,2.18.13.19,0,.31-.04.36-.1.07-.07.1-.19.1-.36v-2.96h-4.52c-.29,2.58-1.33,4.51-3.09,5.77l-.29-.26c.42-.73.73-1.6.94-2.6.21-1.02.32-1.87.34-2.55.04-.68.05-1.61.05-2.81v-3.9h9.75v.65l4.39-.16v-3.02h-3.22l-.23-.75h10.06v3.77ZM465.35,238.04h4.45v-2.03h-4.39v.34c0,.73-.02,1.29-.05,1.69ZM469.79,233.2h-4.39v2.05h4.39v-2.05ZM482.95,220.38l.96,2.24c-3.15.52-6.65.75-10.48.7l-.1-.44c1.59-.24,3.31-.61,5.15-1.09,1.85-.49,3.34-.95,4.47-1.4ZM473.62,224.36l.31-.16c1.58.71,2.48,1.59,2.7,2.63.16.66,0,1.14-.44,1.46-.43.31-.89.24-1.38-.21,0-1.14-.4-2.38-1.2-3.72ZM476.92,224.05l.31-.13c1.61.75,2.52,1.66,2.73,2.76.14.69-.03,1.2-.49,1.51-.43.31-.88.24-1.35-.21.07-.62-.02-1.3-.26-2.03-.24-.73-.56-1.36-.94-1.9ZM479.52,229.92v3.02h2.31v-3.02h-2.31ZM481.83,236.87v-3.17h-2.31v3.17h2.31ZM480.95,228.73l-.36-.21c.64-1.35,1.29-3.09,1.95-5.23l1.98,1.14c-1.23,1.96-2.42,3.39-3.56,4.29Z"/>
      <path class="cls-2" d="M513.21,229.74h-7.96c.92,1.09,2.13,2.05,3.64,2.89,1.52.81,3.1,1.41,4.73,1.79l-.03.29c-.97.22-1.6.93-1.87,2.11-1.65-.75-3.09-1.73-4.32-2.96l-.13,4.45c0,.1-.25.23-.75.39-.49.16-.91.23-1.27.23h-.39v-1.07h-7.44v3.38c0,.29.1.49.31.6.21.09.69.13,1.46.13h4.55c2.01,0,3.32-.03,3.93-.08.43-.02.73-.13.88-.34.31-.37.69-1.21,1.14-2.55h.29l.1,2.6c.76.21,1.14.54,1.14.99,0,.42-.2.73-.6.94-.38.23-1.12.38-2.21.47-1.09.1-2.72.16-4.89.16h-4.52c-1.6,0-2.66-.16-3.2-.47-.54-.31-.81-.97-.81-1.98v-7.72c-1.77,1.51-3.8,2.74-6.08,3.69l-.21-.36c1.49-.94,2.85-2.08,4.08-3.43,1.23-1.37,2.15-2.75,2.76-4.13h-6.24l-.21-.73h6.79v-3.77h-4.97l-.23-.75h5.2v-4l2.47.29v3.72h5.28v-4l2.5.29v3.72h5.8v.75h-5.8v3.77h7.07v.73ZM504.66,232.83l1.04-1.14c-.42-.59-.78-1.24-1.09-1.95h-6.01c-.49.87-1.14,1.75-1.95,2.65l1.12.44h6.89ZM497.43,237.1h7.44v-3.54h-7.44v3.54ZM498.37,225.24v3.77h5.28v-3.77h-5.28Z"/>
      <path class="cls-2" d="M536.51,231.43h-16.61c.05.78-.06,1.46-.34,2.03-.28.57-.64.98-1.09,1.22-.38.21-.79.26-1.22.16-.43-.12-.71-.37-.83-.75-.23-.76.1-1.33.96-1.72.49-.23.89-.61,1.22-1.17.35-.57.48-1.18.42-1.82l.42-.03c.19.47.32.91.39,1.33h19.27v1.2c-1.04.83-2.09,1.53-3.15,2.08l-.31-.18c.35-.83.64-1.61.88-2.34ZM535.05,234l2.44,1.95c-.21.24-.53.28-.96.1-1.3.49-2.95.94-4.94,1.35,1.54,1.99,4.32,3.3,8.35,3.93v.29c-.95.26-1.58,1-1.87,2.24-1.75-.68-3.21-1.51-4.37-2.5-1.16-1-2.06-2.28-2.7-3.82-.55.1-.96.17-1.22.21.55,1.2.81,2.34.78,3.43-.03,1.08-.29,1.89-.78,2.45-.43.62-1.46.94-3.09.94-.02-.64-.19-1.1-.52-1.38-.28-.22-.92-.45-1.92-.68v-.36c1.18.1,2.2.16,3.07.16.29,0,.49-.07.6-.21.38-.47.53-1.28.44-2.44-3.5,1.91-7.42,3.23-11.75,3.98l-.16-.42c2.1-.57,4.19-1.38,6.29-2.42,2.11-1.04,3.84-2.12,5.17-3.25-.05-.17-.12-.37-.21-.6-1.4.73-3.06,1.4-4.97,2.03-1.89.61-3.74,1.05-5.54,1.33l-.16-.44c1.8-.47,3.61-1.11,5.41-1.92,1.8-.83,3.26-1.7,4.37-2.6-.1-.14-.19-.25-.26-.34-2.48,1.06-5.48,1.81-9,2.26l-.18-.39c2.98-.76,5.55-1.77,7.7-3.02h-4.06l-.21-.75h14.48v.75h-6.42c-.54.33-1.09.62-1.66.86.99.71,1.76,1.57,2.31,2.57,2.2-1.04,4.05-2.13,5.54-3.28ZM516.88,224.13l-.21-.75h11.47l-.31-.16c-.1-.47-.34-.95-.7-1.43-.35-.5-.72-.91-1.12-1.22l.18-.21c2.01-.02,3.25.43,3.72,1.35.28.54.2,1.01-.23,1.43-.09.1-.19.18-.31.23h10.5v.75h-22.98ZM533.16,229.98h-.42v-.78h-9.05v.31c0,.12-.23.28-.7.47-.47.17-.93.26-1.38.26h-.34v-4.63h13.91v3.74c-.02.1-.27.23-.75.39-.49.16-.91.23-1.27.23ZM523.69,228.44h9.05v-2.08h-9.05v2.08Z"/>
      <path class="cls-2" d="M557.47,229.72v.75h-4.65c.33,4.21,1.15,7.22,2.47,9.02.21.33.41.3.6-.08.35-.68.68-1.55.99-2.63l.31.05-.42,3.9c.54,1.16.61,1.91.21,2.24-.35.26-.73.35-1.14.26-.4-.09-.78-.27-1.14-.55-.36-.28-.68-.61-.94-.99-1.66-2.48-2.69-6.22-3.07-11.23h-3.77v7.57c.78-.28,2.05-.75,3.82-1.4l.1.29c-1.61,1.39-3.28,2.71-5.02,3.98-.14.45-.41.79-.81,1.01l-1.53-2.89c.48-.26.8-.47.94-.62s.21-.37.21-.65v-14.72h2.73c2.93-.76,5.3-1.59,7.12-2.47l.94,2.47c-.64.05-1.54.16-2.7.31-.1,2.13-.1,4.26.03,6.37h4.73ZM553.54,242.69v.75h-8.29l-.21-.75h8.5ZM546.91,229.72h3.69c-.1-1.6-.16-3.63-.16-6.11-1.16.1-2.34.18-3.54.23v5.88ZM566.46,221.92v1.4c-1.68,3.12-2.98,5.29-3.9,6.53,1.46.95,2.53,2.02,3.22,3.2.69,1.16,1.04,2.34,1.04,3.54.02,1.35-.28,2.37-.88,3.04-.61.66-1.62,1.01-3.04,1.04,0-.92-.12-1.54-.36-1.87-.21-.24-.68-.43-1.4-.55v-.39h2.08c.28,0,.49-.05.62-.16.49-.28.73-.86.73-1.74,0-2.2-.88-4.21-2.63-6.03.76-2.5,1.42-4.91,1.98-7.25h-3.72v20.77c0,.07-.08.16-.23.26-.14.12-.36.23-.68.34-.29.1-.62.16-.96.16h-.39v-22.28h8.53Z"/>
    </g>
    <g>
      <path class="cls-1" d="M235.31,1.76l5.5,15.2h.13c.11-.36.27-.88.48-1.54s.45-1.4.7-2.21c.26-.81.53-1.67.82-2.59.29-.92.57-1.81.85-2.69.28-.88.53-1.71.77-2.51.23-.8.44-1.49.61-2.06.15-.51.24-.88.27-1.1.03-.22.05-.42.05-.59,0-.23-.09-.43-.27-.58s-.59-.22-1.23-.22c-.09,0-.15-.03-.19-.1-.04-.06-.06-.12-.06-.16,0-.13.16-.19.48-.19.73,0,1.35.01,1.89.03.53.02.86.03.99.03.04,0,.14,0,.3-.02s.35-.02.58-.02.46,0,.7-.02.47-.02.69-.02c.26,0,.38.05.38.16,0,.06-.02.13-.05.19-.03.06-.1.1-.21.1-.04,0-.17.01-.38.03-.21.02-.41.05-.58.1-.43.15-.77.48-1.02.99-.26.51-.52,1.14-.8,1.89-.21.58-.46,1.28-.74,2.11-.28.83-.58,1.72-.9,2.67-.32.95-.65,1.93-.99,2.94-.34,1.01-.67,1.98-.98,2.91-.31.93-.6,1.78-.86,2.56-.27.78-.5,1.42-.69,1.94-.19.51-.35.92-.46,1.22s-.22.53-.3.7c-.09.17-.16.28-.22.34-.06.05-.14.08-.22.08-.15,0-.29-.1-.43-.3-.14-.2-.3-.57-.5-1.1l-5.5-14.91c-.17.41-.41.99-.7,1.76-.3.77-.64,1.63-1.01,2.59-.37.96-.76,1.97-1.17,3.02s-.79,2.07-1.17,3.04c-.37.97-.71,1.85-1.02,2.64-.31.79-.55,1.4-.72,1.82-.23.58-.42.96-.54,1.15-.13.19-.28.29-.45.29-.06,0-.13-.03-.21-.08-.08-.05-.15-.16-.22-.3-.07-.15-.17-.36-.27-.64-.11-.28-.23-.65-.38-1.12l-4.99-16.13c-.11-.36-.21-.66-.3-.9-.1-.23-.2-.43-.32-.58-.12-.15-.24-.27-.37-.35-.13-.08-.29-.16-.48-.22-.19-.06-.43-.11-.7-.13-.28-.02-.47-.03-.58-.03-.17,0-.26-.08-.26-.26,0-.13.15-.19.45-.19.75,0,1.45.01,2.11.03.66.02,1.07.03,1.22.03.13,0,.47-.01,1.04-.03.56-.02,1.2-.03,1.9-.03.34,0,.51.06.51.19,0,.09-.03.15-.1.19s-.13.06-.19.06c-.11,0-.26,0-.45.02-.19.01-.37.06-.54.14-.11.04-.2.11-.27.19s-.11.21-.11.38.05.48.14.93c.1.45.23.98.4,1.6.06.3.2.79.4,1.49.2.69.43,1.48.67,2.37.25.89.51,1.81.8,2.78s.55,1.89.8,2.75c.25.86.46,1.61.64,2.22.18.62.3,1.02.37,1.22h.06l5.89-15.23c.21-.55.37-.9.48-1.04s.2-.21.29-.21c.11,0,.22.1.34.29s.26.52.43.99Z"/>
      <path class="cls-1" d="M251.09,10.66c0-1.09.22-2.26.66-3.5.44-1.25,1.11-2.4,2.02-3.46.91-1.06,2.06-1.93,3.47-2.62,1.41-.69,3.08-1.04,5.02-1.04,1.58,0,3.05.24,4.42.7,1.36.47,2.54,1.15,3.54,2.03.99.89,1.77,1.96,2.34,3.22.56,1.26.85,2.68.85,4.26s-.27,2.95-.82,4.3-1.31,2.53-2.29,3.54c-.98,1-2.17,1.8-3.57,2.38-1.4.59-2.94.88-4.62.88-1.92,0-3.57-.33-4.96-.98-1.39-.65-2.53-1.49-3.42-2.53-.9-1.04-1.56-2.19-1.98-3.46s-.64-2.51-.64-3.73ZM254,9.94c0,1.58.22,3.01.67,4.28.45,1.27,1.07,2.36,1.87,3.25.8.9,1.74,1.59,2.82,2.07,1.08.48,2.26.72,3.54.72.64,0,1.39-.11,2.26-.34.86-.22,1.7-.67,2.5-1.33.8-.66,1.48-1.6,2.03-2.8.55-1.21.83-2.79.83-4.76,0-1.62-.23-3.06-.69-4.31-.46-1.25-1.08-2.29-1.86-3.12-.78-.83-1.68-1.46-2.69-1.89-1.01-.43-2.08-.64-3.18-.64-1.17,0-2.26.19-3.25.56s-1.85.93-2.56,1.67c-.71.74-1.27,1.66-1.68,2.77-.41,1.11-.61,2.4-.61,3.88Z"/>
      <path class="cls-1" d="M279.28,13.09V4.11c0-.42,0-.75-.02-.99-.01-.25-.03-.47-.05-.69-.04-.47-.13-.82-.26-1.06-.13-.24-.43-.38-.9-.45-.11-.02-.26-.04-.46-.05s-.37-.02-.5-.02c-.15,0-.22-.07-.22-.22s.15-.22.45-.22c.32,0,.67,0,1.04.02.37.01.72.02,1.04.02s.6,0,.83.02c.23.01.37.02.42.02.06,0,.25,0,.54-.02s.63-.02.99-.02.73,0,1.1-.02c.37-.01.67-.02.88-.02.9,0,1.81.07,2.74.21.93.14,1.77.46,2.51.98.17.13.37.3.59.53.22.22.44.5.64.82.2.32.37.68.51,1.07.14.39.21.83.21,1.3,0,1-.25,2.01-.75,3.02-.5,1.01-1.4,2.07-2.7,3.18,1.15,1.45,2.22,2.77,3.2,3.97.98,1.2,1.88,2.22,2.69,3.07.75.77,1.37,1.26,1.86,1.49.49.22.92.36,1.28.4.28.04.49.07.64.08.15.01.27.02.35.02.17,0,.26.07.26.22,0,.08-.05.14-.14.18s-.27.05-.53.05h-1.76c-.81,0-1.42-.04-1.84-.13s-.81-.22-1.17-.42c-.62-.32-1.21-.81-1.78-1.47s-1.25-1.5-2.06-2.53c-.3-.36-.6-.74-.9-1.14s-.58-.77-.85-1.12c-.27-.35-.51-.68-.74-.98-.22-.3-.41-.54-.56-.74-.11-.11-.23-.16-.38-.16l-3.58-.06c-.13,0-.19.07-.19.22v.64c0,1.32,0,2.49.02,3.5.01,1.01.05,1.8.11,2.35.04.41.13.73.27.98.14.25.42.4.85.46.19.04.42.08.67.1s.45.03.58.03c.15,0,.22.07.22.22s-.15.22-.45.22c-.38,0-.77,0-1.17-.02-.4-.01-.76-.02-1.09-.03-.33-.01-.61-.02-.83-.03-.22-.01-.35-.02-.37-.02-.43.02-.78.04-1.07.05-.29.01-.59.02-.91.03-.32.01-.59.02-.8.02-.3,0-.45-.07-.45-.22s.07-.22.22-.22c.13,0,.27-.01.43-.03.16-.02.3-.05.43-.1.28-.06.45-.22.53-.46.07-.25.14-.57.21-.98.08-.55.13-1.34.14-2.37.01-1.02.02-2.2.02-3.52ZM281.71,1.86v8.74c0,.15.06.27.19.35.11.06.27.12.48.16.21.04.46.09.75.13.29.04.59.08.91.1.32.02.64.03.96.03.34,0,.69-.02,1.06-.06.36-.04.71-.18,1.06-.42.49-.32.9-.83,1.22-1.54.32-.7.48-1.58.48-2.62,0-1.71-.43-3.02-1.3-3.95-.86-.93-2.05-1.39-3.57-1.39-.43,0-.83.02-1.22.05-.38.03-.65.07-.8.11-.15.09-.22.19-.22.32Z"/>
      <path class="cls-1" d="M303.34,8.29v4.86c0,1,0,1.86.02,2.58.01.71.04,1.31.08,1.79.04.48.1.86.18,1.14.07.28.18.48.3.61.23.23.64.4,1.22.5.58.1,1.42.14,2.53.14.75,0,1.41-.04,2-.11.59-.08,1.05-.32,1.39-.72.17-.21.31-.45.43-.72.12-.27.2-.54.24-.82.04-.23.14-.35.29-.35.13,0,.19.14.19.42,0,.06-.01.21-.03.43-.02.22-.05.47-.1.74-.04.27-.09.54-.13.83-.04.29-.1.53-.16.72-.04.17-.09.3-.14.4-.05.1-.14.17-.26.21-.12.04-.28.07-.5.1s-.51.03-.9.03c-1.96,0-3.59-.03-4.9-.1-.64-.02-1.21-.04-1.7-.05-.49-.01-.95-.02-1.38-.02h-.42c-.21,0-.46.01-.74.03-.3.02-.59.04-.86.05s-.53.02-.77.02c-.3,0-.45-.07-.45-.22s.07-.22.22-.22c.13,0,.27-.01.43-.03.16-.02.3-.05.43-.1.28-.06.45-.22.53-.46.07-.25.14-.57.21-.98.08-.55.13-1.34.14-2.37.01-1.02.02-2.2.02-3.52V4.11c0-.42,0-.75-.02-.99-.01-.25-.03-.47-.05-.69-.04-.47-.13-.82-.26-1.06-.13-.24-.43-.38-.9-.45-.11-.02-.26-.04-.46-.05s-.37-.02-.5-.02c-.15,0-.22-.07-.22-.22s.15-.22.45-.22c.32,0,.66,0,1.02.02.36.01.7.02,1.01.02s.57,0,.78.02c.21.01.34.02.38.02.02,0,.16,0,.42-.02s.54-.02.86-.02.65,0,.99-.02c.34-.01.62-.02.83-.02.3,0,.45.08.45.22,0,.13-.07.19-.22.19-.11,0-.25,0-.42.02-.17.01-.34.03-.51.05-.43.09-.7.24-.82.46-.12.22-.2.58-.24,1.07,0,.21,0,.44-.02.69-.01.25-.02.58-.02.99v4.18Z"/>
      <path class="cls-1" d="M317.9,13.09V4.11c0-.42,0-.75-.02-.99-.01-.25-.03-.47-.05-.69-.04-.47-.13-.82-.26-1.06-.13-.24-.43-.38-.9-.45-.11-.02-.26-.04-.46-.05s-.37-.02-.5-.02c-.15,0-.22-.07-.22-.22s.15-.22.45-.22c.32,0,.66,0,1.02.02.36.01.7.02,1.02.02s.59,0,.82.02.36.02.4.02c.08,0,.25,0,.5-.02.25-.01.54-.02.9-.02s.73,0,1.14-.02.82-.02,1.25-.02c.7,0,1.53,0,2.48.02s1.94.1,2.98.27c1.03.17,2.06.48,3.07.91,1.01.44,1.94,1.07,2.77,1.9.7.7,1.34,1.63,1.9,2.77.56,1.14.85,2.52.85,4.14,0,.85-.09,1.66-.26,2.42-.17.76-.4,1.46-.67,2.1-.28.64-.6,1.22-.98,1.74-.37.52-.75.99-1.14,1.39-.3.32-.69.66-1.17,1.02-.48.36-1.07.7-1.76,1.01-.69.31-1.5.57-2.43.78-.93.21-1.99.32-3.18.32-.62,0-1.28-.02-1.97-.05-.69-.03-1.35-.07-1.97-.11-.62-.04-1.14-.08-1.57-.11s-.67-.05-.74-.05c-.04,0-.17,0-.38.02-.21.01-.47.02-.77.02-.3.02-.6.04-.9.05-.3.01-.57.02-.8.02-.3,0-.45-.07-.45-.22s.07-.22.22-.22c.13,0,.27-.01.43-.03.16-.02.3-.05.43-.1.28-.06.45-.22.53-.46.07-.25.14-.57.21-.98.08-.55.13-1.34.14-2.37.01-1.02.02-2.2.02-3.52ZM320.46,2.14v12.94c0,.52,0,.96.02,1.33.01.36.02.61.02.74.02.34.05.71.1,1.12.04.41.12.68.22.83.08.13.22.26.42.38s.46.25.82.35.81.19,1.36.26c.55.06,1.25.1,2.08.1,1.3,0,2.51-.21,3.63-.62,1.12-.42,2.11-1.03,2.96-1.84.36-.34.68-.75.96-1.23.28-.48.51-1,.69-1.57.18-.57.32-1.16.42-1.79.1-.63.14-1.25.14-1.87,0-.85-.09-1.64-.26-2.35-.17-.71-.38-1.35-.64-1.92-.26-.56-.54-1.06-.86-1.47s-.62-.77-.9-1.07c-.66-.66-1.35-1.19-2.06-1.6-.71-.41-1.46-.71-2.22-.93-.77-.21-1.56-.35-2.37-.42-.81-.06-1.63-.1-2.46-.1-.28,0-.6.02-.96.06s-.61.08-.74.13c-.23.08-.35.27-.35.54Z"/>
      <path class="cls-1" d="M345.52,21.34c-.66,0-1.37-.05-2.11-.16-.75-.11-1.41-.3-1.98-.58-.19-.11-.31-.21-.35-.32-.04-.11-.06-.34-.06-.7,0-.68.02-1.28.06-1.78.04-.5.07-.87.1-1.1,0-.3.07-.45.22-.45.17,0,.26.11.26.32,0,.11,0,.25.02.43.01.18.04.37.08.56.11.49.31.91.61,1.25.3.34.66.62,1.07.83.42.21.86.37,1.34.46s.95.14,1.42.14c1.41,0,2.46-.35,3.17-1.04.7-.69,1.06-1.55,1.06-2.58,0-.49-.07-.93-.21-1.31-.14-.38-.35-.75-.64-1.1-.29-.35-.66-.71-1.1-1.07-.45-.36-.98-.78-1.6-1.25l-1.28-.96c-1.52-1.13-2.57-2.15-3.15-3.06-.59-.91-.88-1.83-.88-2.77,0-.79.15-1.5.45-2.14.3-.64.73-1.18,1.28-1.62.55-.44,1.21-.77,1.97-1.01.76-.23,1.6-.35,2.54-.35.55,0,1.09.03,1.62.1.52.06.95.14,1.3.22.28.06.48.1.62.11.14.01.26.02.37.02.19,0,.29.06.29.19,0,.06-.02.33-.06.78-.04.46-.06,1.16-.06,2.1,0,.41-.07.61-.22.61-.11,0-.17-.03-.19-.1-.02-.06-.04-.15-.06-.26-.02-.17-.07-.4-.16-.69s-.17-.51-.26-.66c-.04-.08-.14-.2-.29-.35-.15-.15-.37-.3-.66-.45s-.65-.28-1.09-.38c-.44-.11-.98-.16-1.62-.16-1.02,0-1.9.25-2.64.75-.74.5-1.1,1.23-1.1,2.19,0,.43.06.82.18,1.18.12.36.32.72.61,1.07.29.35.66.72,1.12,1.09.46.37,1.04.79,1.74,1.26l.8.54c.85.58,1.57,1.14,2.16,1.68.59.54,1.06,1.08,1.42,1.6.36.52.62,1.06.78,1.6.16.54.24,1.1.24,1.68,0,.81-.19,1.62-.56,2.43-.37.81-1.06,1.55-2.06,2.21-.6.38-1.3.64-2.11.77-.81.13-1.6.19-2.37.19Z"/>
    </g>
  </g>
</svg>