<svg width="12" height="56" viewBox="0 0 12 56" fill="none" xmlns="http://www.w3.org/2000/svg">
<g clip-path="url(#clip0_153_195)">
<path d="M10.3554 5.75534C10.1722 5.43834 9.87636 5.02271 9.46074 4.51551C6.6359 4.67049 3.50815 4.81138 0.0774893 4.95227L0 3.98013L1.89497 3.91673C2.75439 2.64168 3.45884 1.33845 3.99422 0L5.04385 0.373357C4.47324 1.50752 3.78993 2.6769 3.00799 3.88151L5.82579 3.7688L7.24877 3.7054L8.67175 3.642C8.12229 3.07139 7.57986 2.5501 7.03039 2.07812L7.76302 1.52865C8.43929 2.07812 9.08738 2.66986 9.70729 3.31795C10.3765 4.00831 10.8626 4.61413 11.1796 5.12134L10.3624 5.76238L10.3554 5.75534ZM1.94428 11.8911C1.61319 11.8911 1.41594 11.8699 1.36663 11.8277C1.43707 11.1021 1.4723 10.1934 1.4723 9.10147V7.73484C1.4723 7.18537 1.45116 6.73452 1.4089 6.36821C1.4089 6.30481 1.43003 6.27663 1.4723 6.27663C2.04994 6.34003 2.71917 6.36821 3.47293 6.36821H7.49533C8.24909 6.36821 8.91127 6.34003 9.49596 6.27663C9.53823 6.27663 9.55936 6.30481 9.55936 6.36821C9.51709 6.73452 9.49596 7.18537 9.49596 7.72779V9.10147C9.49596 10.1863 9.53118 11.088 9.60163 11.8136C9.55231 11.8559 9.34803 11.877 9.00285 11.877C8.65767 11.877 8.4886 11.8559 8.47451 11.8136V11.7009C8.48155 11.6304 8.4886 11.5811 8.4886 11.5459V11.2641H2.44443V11.56C2.44443 11.56 2.44443 11.6516 2.45852 11.7291V11.8418C2.45148 11.884 2.27537 11.9052 1.94428 11.9052V11.8911ZM2.44443 10.3272H8.47451V7.27695H2.44443V10.3272Z" fill="white"/>
<path d="M4.09989 26.5875C3.77584 26.5875 3.59268 26.5664 3.56451 26.5241C3.60677 26.1226 3.62791 25.6436 3.62791 25.08V23.6359C2.65577 24.0656 1.59205 24.5165 0.436758 25.0096L0 24.0586C0.457891 23.8965 1.33141 23.5655 2.6135 23.0723C3.0573 22.8892 3.39544 22.7624 3.62791 22.6778V19.0781H2.00063C1.46525 19.0781 0.922827 19.1063 0.387446 19.1556C0.359269 19.1133 0.34518 18.9302 0.34518 18.5991C0.34518 18.268 0.359269 18.0989 0.387446 18.0778C0.584692 18.106 0.852382 18.113 1.19052 18.113H3.62086V16.6055C3.62086 16.0349 3.59973 15.5136 3.55746 15.0416C3.80402 15.0275 4.05762 15.0275 4.32531 15.0557C4.6564 15.0909 4.82547 15.1473 4.82547 15.2248C4.6564 15.4995 4.57187 15.7743 4.57187 16.0419V23.6711C4.57187 24.8264 4.60709 25.7774 4.67049 26.5241C4.62118 26.5664 4.43098 26.5875 4.09284 26.5875H4.09989ZM8.19273 26.341C7.60099 26.341 7.2065 26.2212 6.98812 25.9747C6.77679 25.7281 6.67112 25.2702 6.67112 24.5869V16.2885C6.67112 15.9222 6.65703 15.5066 6.62181 15.0487C6.86837 15.0346 7.12901 15.0346 7.40375 15.0628C7.73484 15.098 7.90391 15.1543 7.90391 15.2318C7.73484 15.5066 7.65031 15.7813 7.65031 16.049V19.3669C8.94649 18.5639 9.98907 17.796 10.764 17.0634L11.4684 17.9087C10.5949 18.5991 9.32689 19.4163 7.65031 20.3673V24.608C7.65031 24.9462 7.69257 25.1716 7.77006 25.2702C7.8546 25.3688 8.03071 25.4182 8.2984 25.4182H10.1441C10.4258 25.4182 10.616 25.235 10.7217 24.8687C10.8062 24.5517 10.8696 23.8402 10.9119 22.7272C11.1866 22.9596 11.4825 23.1146 11.8065 23.1851C11.7572 24.3967 11.6304 25.2139 11.4332 25.6436C11.2219 26.1156 10.8133 26.348 10.2145 26.348H8.19273V26.341Z" fill="white"/>
<path d="M1.15529 36.0477C1.11303 36.0477 1.09189 36.0336 1.09189 35.9984C1.14121 35.7871 1.16234 35.3503 1.15529 34.7022V32.7932C0.972138 33.0397 0.767848 33.2933 0.528336 33.5469C0.380402 33.2722 0.211334 33.0538 0 32.8777C0.831249 32.0535 1.45116 30.9968 1.86679 29.7147C2.07108 29.764 2.27537 29.8415 2.47261 29.9472C2.6769 30.0599 2.76848 30.1374 2.7403 30.1937C2.72621 30.236 2.68395 30.2712 2.62759 30.2994C2.52192 30.3417 2.45148 30.4192 2.40921 30.5319C2.34581 30.7009 2.26128 30.9052 2.14152 31.1307H3.17706C3.42362 30.6446 3.59973 30.236 3.7054 29.8979C3.90969 29.9472 4.10693 30.0247 4.30418 30.1233C4.49438 30.2219 4.57891 30.2994 4.55778 30.3487C4.54369 30.391 4.50142 30.4192 4.44507 30.4403C4.36053 30.4755 4.29009 30.5389 4.24078 30.6305C4.19851 30.7009 4.14215 30.7996 4.07171 30.9264C4.0224 31.018 3.98013 31.0884 3.959 31.1307H4.83251C5.12838 31.1307 5.4172 31.1166 5.70603 31.0954C5.73421 31.1095 5.74125 31.2363 5.74125 31.4688C5.74125 31.7013 5.72716 31.821 5.70603 31.8422C5.49469 31.814 5.19883 31.8069 4.83251 31.8069H3.94491V32.5466H5.44538V32.8777C6.24141 32.0042 6.84019 30.9546 7.24877 29.7288C7.45306 29.7922 7.64326 29.8697 7.82642 29.9754C8.02366 30.081 8.1082 30.1515 8.09411 30.2008C8.08002 30.2501 8.0448 30.2853 7.98844 30.3135C7.90391 30.3558 7.84051 30.4333 7.79824 30.546C7.67848 30.8207 7.5869 31.018 7.51646 31.1448H8.552C8.58018 31.0814 8.6154 30.9968 8.66471 30.8771C8.87604 30.4192 9.01693 30.0951 9.08738 29.919C9.29167 29.9683 9.48891 30.0458 9.67207 30.1444C9.85523 30.2431 9.93272 30.3205 9.91158 30.3699C9.89749 30.4051 9.85523 30.4333 9.79887 30.4473C9.71434 30.4755 9.64389 30.5389 9.59458 30.6375C9.55936 30.715 9.503 30.8207 9.42551 30.9546C9.3762 31.0391 9.33394 31.1025 9.3128 31.1448H10.2849C10.609 31.1448 10.933 31.1307 11.243 31.1095C11.2712 31.1236 11.2782 31.2504 11.2782 31.4829C11.2782 31.7154 11.2641 31.8351 11.243 31.8562C11.0105 31.8281 10.7006 31.821 10.3061 31.821H9.36916V32.5607H10.1722C10.447 32.5607 10.7147 32.5466 10.9753 32.5255C11.0035 32.5396 11.0176 32.6593 11.0176 32.8847C11.0176 33.1102 11.0035 33.2229 10.9753 33.244C10.7851 33.2158 10.5174 33.2088 10.1722 33.2088H9.36916V33.9625H10.1722C10.447 33.9625 10.7147 33.9485 10.9753 33.9273C11.0035 33.9414 11.0176 34.0612 11.0176 34.2795C11.0176 34.4979 11.0035 34.6177 10.9753 34.6318C10.7851 34.6036 10.5174 34.5965 10.1722 34.5965H9.36916V35.3644H10.4047C10.6372 35.3644 10.9823 35.3503 11.4402 35.3151C11.4684 35.3433 11.4755 35.4701 11.4755 35.7025C11.4755 35.935 11.4614 36.0618 11.4402 36.0829C11.0457 36.0477 10.6442 36.0336 10.2215 36.0336H7.77711C7.36148 36.0336 6.9529 36.0477 6.55841 36.0829C6.5091 36.0829 6.48092 36.0688 6.48092 36.0336C6.53728 35.8082 6.56545 35.3644 6.55841 34.6881V32.8072C6.27663 33.2017 6.04416 33.4906 5.86805 33.6808C5.74125 33.5047 5.59332 33.3215 5.43129 33.1454V33.2229H3.93082V33.9766H4.68458C4.93818 33.9766 5.18474 33.9625 5.42425 33.9414C5.45243 33.9555 5.45947 34.0753 5.45947 34.2936C5.45947 34.512 5.44538 34.6318 5.42425 34.6459C5.24109 34.6177 4.99454 34.6106 4.68458 34.6106H3.93082V35.3785H4.88887C5.21291 35.3785 5.52992 35.3644 5.83283 35.3362C5.86101 35.3503 5.8751 35.4771 5.8751 35.7096C5.8751 35.942 5.86101 36.0688 5.83283 36.09C5.45947 36.0548 5.06498 36.0407 4.67049 36.0407H2.31059C1.90905 36.0407 1.52161 36.0548 1.14825 36.09L1.15529 36.0477ZM10.933 41.5283C9.02398 41.317 7.34035 40.9014 5.88918 40.2885C4.37462 40.8802 2.59237 41.2888 0.53538 41.5213C0.47198 41.2324 0.34518 40.9366 0.147934 40.6407C1.84565 40.5069 3.38839 40.211 4.7832 39.7672C3.79697 39.2107 3.00095 38.5837 2.41626 37.8863L2.96573 37.6186H1.90201C1.6625 37.6186 1.31027 37.6327 0.852382 37.6679C0.824204 37.6398 0.81716 37.4918 0.81716 37.21C0.81716 36.9283 0.831249 36.7803 0.852382 36.7522C1.19756 36.7874 1.54274 36.8015 1.90201 36.8015H9.30576L9.49596 36.7522L10.1088 37.1607C9.46074 38.1822 8.46042 39.0487 7.11492 39.7461C8.45338 40.1758 9.92567 40.4576 11.5177 40.6055C11.3134 40.8168 11.1162 41.1268 10.926 41.5283H10.933ZM1.97245 32.5396H3.13479V31.7999H1.97245V32.5396ZM1.97245 33.9344H3.13479V33.1806H1.97245V33.9344ZM1.97245 35.3362H3.13479V34.5684H1.97245V35.3362ZM5.98076 39.3163C7.10084 38.8373 7.96731 38.2738 8.59426 37.6116H3.42362C4.05762 38.2949 4.91 38.8655 5.98076 39.3163ZM7.37557 32.5396H8.56609V31.7999H7.37557V32.5396ZM7.37557 33.9344H8.56609V33.1806H7.37557V33.9344ZM7.37557 35.3362H8.56609V34.5684H7.37557V35.3362Z" fill="white"/>
<path d="M0.197245 55.7717C0.169068 55.7224 0.162023 55.5463 0.162023 55.2434C0.162023 54.9405 0.176112 54.7714 0.197245 54.715C0.852382 54.7855 1.68363 54.8137 2.68395 54.8137H5.18474V53.4188H3.41657C2.83188 53.4188 2.24014 53.447 1.6625 53.4963C1.63432 53.4541 1.62727 53.292 1.62727 53.0244C1.62727 52.7567 1.64136 52.5946 1.6625 52.5665C2.09926 52.6158 2.68395 52.644 3.41657 52.644H5.18474V51.4253H2.1063C1.6625 52.0029 1.22574 52.4819 0.796026 52.8553C0.598781 52.658 0.338135 52.4608 0 52.2565C0.457891 51.8972 0.894649 51.4534 1.31027 50.9321C1.71885 50.4038 2.04994 49.8614 2.2965 49.2978C2.54306 49.3753 2.77552 49.4669 2.98686 49.5655C3.21228 49.6782 3.31091 49.7557 3.28977 49.805C3.26864 49.8543 3.22637 49.8825 3.17002 49.9037C3.08548 49.9389 3.01504 50.0023 2.96573 50.0939C2.87415 50.27 2.77553 50.4461 2.66986 50.6081H5.17769V50.0798C5.17769 49.9459 5.17065 49.7557 5.14951 49.5162C5.38198 49.5021 5.6215 49.5021 5.8751 49.5303C6.1921 49.5655 6.34708 49.6219 6.34708 49.6994C6.20619 49.8332 6.14279 49.9882 6.14279 50.1432V50.6011H8.24204C8.84082 50.6011 9.53823 50.5729 10.3413 50.5095C10.3695 50.5517 10.3836 50.7208 10.3836 51.0096C10.3836 51.2985 10.3695 51.4675 10.3413 51.5098C9.72843 51.4534 9.02398 51.4182 8.24204 51.4182H6.14279V52.6369H7.97435C8.60131 52.6369 9.20714 52.6087 9.80592 52.5594C9.83409 52.5946 9.84818 52.7496 9.84818 53.0173C9.84818 53.285 9.83409 53.447 9.80592 53.4893C9.36211 53.44 8.74924 53.4118 7.97435 53.4118H6.14279V54.8066H8.64358C9.42551 54.8066 10.2568 54.7714 11.1303 54.708C11.1585 54.7573 11.1725 54.9334 11.1725 55.2293C11.1725 55.5252 11.1585 55.6872 11.1303 55.7224C10.764 55.6801 10.3061 55.659 9.76365 55.659H2.9305C2.08517 55.659 1.17643 55.6942 0.20429 55.7647L0.197245 55.7717ZM1.50752 49.3824C1.50752 49.3824 1.45821 49.3542 1.45821 49.2908C1.50047 49.1358 1.51456 48.8399 1.50752 48.3961V47.0154C1.50752 46.1067 1.4723 45.3459 1.40185 44.7471C1.40185 44.6907 1.43707 44.6555 1.50752 44.6555C2.1063 44.7189 2.8037 44.7471 3.59268 44.7471H7.77006C8.56609 44.7471 9.25645 44.7189 9.85523 44.6555C9.89045 44.6555 9.90454 44.6837 9.90454 44.7471C9.86932 45.1205 9.85523 45.5009 9.85523 45.8883V47.0295C9.85523 47.9453 9.89045 48.699 9.96089 49.2978C9.96089 49.3542 9.92567 49.3894 9.85523 49.3894C9.25645 49.3331 8.55904 49.2978 7.77006 49.2978H3.59268C2.79666 49.2978 2.1063 49.326 1.50752 49.3894V49.3824ZM2.41626 46.6421H8.89718V45.5149H2.41626V46.6421ZM2.41626 48.5229H8.89718V47.3676H2.41626V48.5229Z" fill="white"/>
</g>
<defs>
<clipPath id="clip0_153_195">
<rect width="11.8065" height="55.7717" fill="white"/>
</clipPath>
</defs>
</svg>
