<?xml version="1.0" encoding="UTF-8"?>
<svg id="_圖層_2" data-name="圖層 2" xmlns="http://www.w3.org/2000/svg" viewBox="0 0 560.19 24.49">
  <defs>
    <style>
      .cls-1 {
        fill: #fff;
      }
    </style>
  </defs>
  <g id="_圖層_1-2" data-name="圖層 1">
    <g>
      <path class="cls-1" d="M1.97,17.11h.44c.42,1.37.6,2.52.55,3.46-.05.92-.28,1.64-.68,2.16-.28.33-.65.5-1.12.52-.45.02-.79-.15-1.01-.49-.31-.66-.12-1.26.57-1.82.36-.38.68-.94.94-1.69.28-.75.38-1.46.31-2.13ZM1.03,16.56L.07,13.78c.38-.07.65-.17.81-.29,1.2-.95,2.46-2.49,3.8-4.6-.75.28-1.66.59-2.76.94-.19.26-.39.43-.6.52L.17,7.59c.35-.07.59-.16.73-.26.64-.66,1.33-1.73,2.08-3.22.75-1.49,1.27-2.79,1.59-3.9l2.11,1.53c-1.42,2.44-3.01,4.44-4.76,5.98,1.47,0,2.64,0,3.51-.03.61-1.02,1.08-1.92,1.43-2.7l1.77,1.85c-.71,1.21-1.68,2.45-2.91,3.72-1.23,1.25-2.44,2.34-3.64,3.28,1.4-.09,3.1-.21,5.1-.36-.21-.83-.52-1.68-.94-2.55l.34-.13c1.72,1.04,2.64,2.18,2.78,3.41.09.75-.11,1.26-.6,1.53-.45.24-.9.13-1.35-.34,0-.45-.03-.86-.1-1.22-1.94.69-3.8,1.31-5.59,1.85-.21.28-.43.46-.68.55ZM4.15,16.74l.36-.08c1.42,1.27,2.08,2.56,1.98,3.87-.05.8-.35,1.3-.88,1.51-.45.19-.88.04-1.27-.47.28-1.51.22-3.12-.18-4.84ZM6.59,16.35l.31-.16c1.72.85,2.69,1.87,2.91,3.07.12.75-.05,1.28-.52,1.61-.43.33-.9.26-1.4-.21.02-1.4-.42-2.84-1.3-4.32ZM23.26,17.99l.1,3.28c.62.28.94.63.94,1.07,0,.5-.34.86-1.01,1.07-.66.22-1.86.34-3.59.34h-2.08c-1.06,0-1.79-.17-2.18-.52-.38-.33-.57-.94-.57-1.85v-5.77h-4.63V7.2l2.13.31v7.33h2.5V5.56h-5.64l-.21-.75h5.85V.78h2.37v4.03h6.97v.75h-6.97v9.28h2.65v-7.62l2.21.31v9c0,.12-.2.26-.6.42-.4.14-.8.21-1.2.21h-.42v-1.56h-2.65v5.12c0,.28.06.48.18.6.14.12.4.18.78.18h1.69c.66,0,1.18-.02,1.56-.05.26-.04.45-.13.57-.29.21-.31.52-1.37.94-3.17h.31Z"/>
      <path class="cls-1" d="M31.35.18l2.55,1.09c-.9,2.69-1.66,4.96-2.26,6.81v15.52c-.02.07-.12.16-.31.26-.19.12-.45.22-.78.31-.31.1-.62.16-.91.16h-.47v-13.91c-.99,1.28-2.05,2.4-3.2,3.35l-.34-.23c1.16-1.66,2.25-3.69,3.28-6.08,1.04-2.39,1.85-4.82,2.44-7.28ZM50.48,22.44v.75h-17.78l-.21-.75h7.15v-8.06h-5.64l-.21-.75h5.85v-6.66h-6.32l-.21-.75h16.72v.75h-7.57v6.66h7.07v.75h-7.07v8.06h8.22ZM37.38.62l.23-.21c2.67.4,4.4,1.27,5.2,2.6.47.75.51,1.4.13,1.95-.36.54-.89.66-1.59.36-.07-.03-.15-.07-.23-.1-.29-.75-.8-1.54-1.51-2.39-.71-.85-1.46-1.59-2.24-2.21Z"/>
      <path class="cls-1" d="M64.96,11.26c1.11.85,2.67,1.54,4.68,2.08,2.03.54,4,.87,5.93.99l-.03.36c-1.11.45-1.74,1.13-1.9,2.05-1.79-.4-3.49-1.04-5.12-1.92-1.61-.9-2.97-1.95-4.08-3.15-3.34,2.74-7.3,4.54-11.86,5.41l-.21-.36c2.2-.78,4.25-1.82,6.16-3.12,1.91-1.3,3.37-2.61,4.39-3.93h-.23v-4.37h-6.94c.07.76-.04,1.42-.31,1.98-.28.54-.64.93-1.09,1.17-.36.19-.75.24-1.17.16s-.68-.32-.81-.7c-.19-.69.11-1.24.91-1.64.48-.22.88-.61,1.2-1.14.33-.54.46-1.13.39-1.77l.42-.03c.14.33.26.74.36,1.22h7.05v-1.92h-7.23l-.21-.75h17.89v.75h-8.03v1.92h10.17v1.22c-.9.99-1.88,1.83-2.94,2.52l-.31-.18c.29-.9.52-1.84.68-2.81h-7.59v3.82s-.07.1-.21.18c-.12.07-.32.15-.6.23-.26.07-.55.11-.86.13l2.78,1.2c-.14.31-.56.44-1.27.39ZM56.33,11.83l-.99-2.31c1.56-.14,3.75-.4,6.58-.78l.05.39c-.87.42-2.54,1.13-5.02,2.13-.12.33-.33.52-.62.57ZM55.79,6.68l.16-.39c2.43-.4,4.11-.18,5.04.65.47.43.58.85.34,1.25-.16.26-.44.38-.86.36-1.3-.85-2.86-1.47-4.68-1.87ZM67.98,17.84h2.65v1.17c-1.04.87-2.57,1.68-4.58,2.44,1.04.55,1.59,1.19,1.64,1.9.05.54-.19.88-.73,1.01-.17.05-.37.07-.6.05-.73-.62-1.77-1.29-3.12-2-1.35-.69-2.59-1.23-3.72-1.61l.18-.36c2.17-.1,3.95.1,5.36.6,1.02-.8,1.91-1.61,2.65-2.44h-11.7l-.23-.75h12.19ZM68.16,15.13v.75h-8.74l-.21-.75h8.94ZM65.72,9.05l.16-.42c2.93-.17,4.93.23,6.01,1.2.54.49.68.93.42,1.33-.19.26-.5.37-.94.34-.64-.4-1.53-.84-2.65-1.33-1.11-.49-2.11-.86-2.99-1.12ZM70.42,5.38l.73,2.18c-1.89.35-3.62.59-5.2.73l-.1-.34c1.73-.78,3.26-1.64,4.58-2.57Z"/>
      <path class="cls-1" d="M102.19,4.45v.75h-19.14v5.67c0,1.02-.03,1.92-.08,2.7-.04.78-.15,1.72-.34,2.81-.17,1.08-.43,2.04-.78,2.89-.33.85-.81,1.73-1.43,2.65s-1.38,1.73-2.26,2.44l-.31-.23c1.13-1.75,1.86-3.69,2.21-5.82s.52-4.61.52-7.44v-6.42h10.69c-.23-.07-.42-.16-.57-.26-.35-1.25-1.18-2.56-2.5-3.93l.21-.18c2.3.31,3.76,1.05,4.37,2.21.36.69.33,1.29-.1,1.79-.16.17-.35.29-.57.36h10.09ZM101.31,9.7v.75h-8.27v4.45h5.95v8.66c0,.05-.08.12-.23.21s-.4.17-.73.23c-.33.09-.68.13-1.04.13h-.39v-2.16h-9.54v1.72c0,.05-.08.12-.23.21-.14.1-.36.19-.68.26-.31.09-.65.13-1.01.13h-.42v-9.39h5.85V5.51l2.47.31v3.87h8.27ZM96.6,15.65h-9.54v5.56h9.54v-5.56Z"/>
      <path class="cls-1" d="M128.14,2.47v.75h-10.76c-1.06,1.51-2.04,2.79-2.94,3.85h11.75v16.25c0,.07-.09.16-.29.26-.17.1-.43.2-.78.29-.35.1-.71.16-1.09.16h-.42v-1.87h-15.29v1.4c0,.07-.08.16-.23.26-.16.1-.4.2-.73.29-.31.09-.67.13-1.07.13h-.42V7.07h7.67c.17-1.21.35-2.5.52-3.85h-9.78l-.23-.75h24.08ZM108.33,7.83v13.57h3.38V7.83h-3.38ZM117.87,11.78v-3.95h-3.85v3.95h3.85ZM114.02,12.53v4.03h3.85v-4.03h-3.85ZM114.02,17.32v4.08h3.85v-4.08h-3.85ZM123.62,7.83h-3.43v13.57h3.43V7.83Z"/>
      <path class="cls-1" d="M139.43,5.48v13h-.52V5.48h.52Z"/>
      <path class="cls-1" d="M152.51,8.24v8.19c.5-.1,1.25-.26,2.24-.47.99-.22,1.63-.37,1.92-.44l.08.31c-2.13,1.23-4.79,2.61-7.98,4.13-.14.35-.35.56-.62.65l-1.35-3.04c.43-.05,1.53-.26,3.3-.62v-8.71h-3.02l-.21-.75h3.22V.68l2.42.34v6.47h4.06v.75h-4.06ZM170.19,5.02v1.14c-.35,9.71-1.24,15.31-2.68,16.8-.9.92-2.12,1.37-3.64,1.35,0-.87-.19-1.45-.57-1.74-.45-.4-1.4-.74-2.86-1.01l.03-.42c1.94.19,3.28.29,4.03.29.5,0,.89-.13,1.17-.39.47-.43.88-1.72,1.22-3.87-.12.12-.3.18-.55.18h-9.18l-.21-.75h9.98c.4-2.41.69-6.01.88-10.82h-7.98c-1.27,2.34-2.68,4.18-4.24,5.51l-.36-.23c.83-1.26,1.59-2.87,2.26-4.81.69-1.94,1.22-3.91,1.59-5.9l2.55.86c-.38,1.44-.85,2.71-1.4,3.82h9.96ZM166.26,10.82v.73h-8.22l-.21-.73h8.42Z"/>
      <path class="cls-1" d="M179.91,5.15h-2.39c-.23,2.37-1.63,4.08-4.21,5.12l-.23-.36c.92-.76,1.53-1.6,1.82-2.52.29-.92.44-1.95.44-3.09v-2.21h2.6c1.98-.66,3.57-1.29,4.78-1.9l2.13,2.11c-.29.24-.76.23-1.4-.05-1.8.31-3.76.52-5.88.62v1.43l8.09.1v.75h-3.48v3.35c-.02.05-.1.12-.23.21-.14.07-.36.15-.68.23-.29.07-.62.1-.96.1h-.39v-3.9ZM173.69,24.31l-.13-.39c1.56-.42,3.15-1.01,4.78-1.79,1.63-.78,2.89-1.53,3.8-2.24l1.33,2c-1.2.61-2.69,1.12-4.47,1.53-1.79.43-3.55.73-5.3.88ZM196.81,4.39v.75h-4.08v3.3s-.07.08-.16.13-.23.12-.42.21c-.17.07-.37.12-.6.16l2.11,1.59c-.21.24-.53.4-.96.47v8.71c-.02.1-.27.24-.75.42-.49.16-.92.23-1.3.23h-.42v-1.07h-10.17v.78c0,.07-.1.17-.31.29-.19.12-.46.23-.81.34-.33.1-.65.16-.96.16h-.39v-10.95h12.38l.86-.91h-.42v-3.85h-2.37c-.35,2.01-1.8,3.45-4.37,4.32l-.23-.34c.99-.71,1.65-1.48,1.98-2.31.33-.85.49-1.78.49-2.81V1.95h2.42c2.01-.59,3.68-1.18,5.02-1.77l.73,2.16c-1.92.21-3.9.36-5.93.47v1.59h8.66ZM190.23,10.66h-10.17v2.11h10.17v-2.11ZM190.23,13.49h-10.17v2.13h10.17v-2.13ZM180.06,18.54h10.17v-2.16h-10.17v2.16ZM186.28,20.88l.1-.36c4.84.14,7.82.79,8.94,1.95.5.52.52.99.05,1.4-.43.43-1.01.55-1.72.36-.24-.05-.47-.16-.68-.31-1.65-1.28-3.88-2.3-6.71-3.04Z"/>
      <path class="cls-1" d="M221.4,2.7v20.2c-.02.12-.27.29-.75.49-.47.21-.9.31-1.3.31h-.36v-3.09h-16.09v2.68c0,.17-.22.36-.65.57-.42.22-.86.34-1.33.34h-.44V2.7h20.93ZM202.89,19.86h16.09v-4.39c-.54.12-1.4.18-2.6.18h-1.69c-.9,0-1.49-.14-1.77-.42s-.42-.81-.42-1.59V3.46h-3.07c-.02,1.25-.05,2.26-.1,3.04-.05.76-.14,1.65-.26,2.65-.12,1-.31,1.85-.57,2.52-.24.68-.57,1.39-.99,2.13-.4.73-.92,1.4-1.56,2-.62.59-1.37,1.14-2.24,1.64l-.34-.39c.52-.47.97-.98,1.35-1.53.4-.57.73-1.1.99-1.59.26-.5.48-1.13.65-1.87.19-.75.33-1.37.42-1.87.09-.5.16-1.21.21-2.13.05-.94.08-1.66.08-2.18.02-.52.03-1.33.03-2.42h-4.21v16.41ZM218.99,3.46h-4.29v9.57c0,.19.04.33.1.42.09.07.27.1.55.1h2c.29-.02.47-.03.52-.03.1-.02.27-.03.49-.03.16-.02.35-.06.57-.13l.05-9.91Z"/>
      <path class="cls-1" d="M230.01.18l2.55,1.09c-.75,2.32-1.46,4.32-2.13,5.98v16.33c-.02.12-.24.28-.68.47-.43.19-.88.29-1.33.29h-.47v-13.94c-.92,1.23-1.92,2.32-3.02,3.28l-.34-.23c1.09-1.66,2.13-3.68,3.12-6.06.99-2.37,1.75-4.77,2.29-7.2ZM249.41,12.87v.75h-5.04v10.01c0,.07-.08.16-.23.26-.16.1-.4.2-.73.29-.31.09-.67.13-1.07.13h-.44v-10.69h-3.61c-.04,1.08-.15,2.06-.34,2.96-.17.88-.49,1.81-.94,2.78-.45.97-1.13,1.87-2.03,2.7s-2.01,1.57-3.33,2.21l-.26-.26c1.66-1.37,2.81-2.9,3.43-4.6.64-1.7.99-3.63,1.04-5.8h-4.13l-.21-.75h4.34v-5.93h-3.46l-.21-.75h16.61v.75h-4.45v5.93h5.04ZM234.46.65l.29-.16c2.15.71,3.47,1.71,3.95,2.99.31.81.23,1.46-.26,1.95-.47.45-1.02.46-1.66.03-.05-.03-.1-.07-.16-.1-.23-1.51-.94-3.08-2.16-4.71ZM238.31,12.87h3.59v-5.93h-3.59v5.93ZM243.22.18l2.44,1.35c-1.37,2.04-2.71,3.51-4.03,4.39l-.34-.21c.71-1.46,1.35-3.3,1.92-5.54Z"/>
      <path class="cls-1" d="M260.35,5.48v13h-.52V5.48h.52Z"/>
      <path class="cls-1" d="M288.95,7.44v8.5c-.04.09-.31.22-.83.39-.52.16-.96.23-1.33.23h-.42v-1.77h-12.74c-.23,2.01-.77,3.82-1.64,5.43-.87,1.61-2.24,3-4.11,4.16l-.31-.29c.8-.88,1.46-1.84,1.98-2.86.52-1.04.89-2.14,1.12-3.3.24-1.16.41-2.25.49-3.28s.13-2.21.13-3.56V3.38h3.09c2.18-.4,4.33-.9,6.45-1.51,2.12-.62,3.8-1.25,5.04-1.87l2.81,2.7c-.35.26-.88.24-1.61-.05-3.92.87-8.34,1.34-13.26,1.43v3.35h15.13ZM273.72,14.04h12.66v-5.85h-12.56v2.94c0,1.06-.04,2.03-.1,2.91Z"/>
      <path class="cls-1" d="M314.95,7.44v8.5c-.04.09-.31.22-.83.39-.52.16-.96.23-1.33.23h-.42v-1.77h-12.74c-.23,2.01-.77,3.82-1.64,5.43-.87,1.61-2.24,3-4.11,4.16l-.31-.29c.8-.88,1.46-1.84,1.98-2.86.52-1.04.89-2.14,1.12-3.3.24-1.16.41-2.25.49-3.28s.13-2.21.13-3.56V3.38h3.09c2.18-.4,4.33-.9,6.45-1.51,2.12-.62,3.8-1.25,5.04-1.87l2.81,2.7c-.35.26-.88.24-1.61-.05-3.92.87-8.34,1.34-13.26,1.43v3.35h15.13ZM299.72,14.04h12.66v-5.85h-12.56v2.94c0,1.06-.04,2.03-.1,2.91Z"/>
      <path class="cls-1" d="M343.19,17.52l.08,3.56c.61.21.91.55.91,1.04,0,.54-.37.92-1.12,1.14-.73.24-2.12.36-4.16.36h-2.76c-1.2,0-1.99-.16-2.37-.47-.38-.29-.57-.88-.57-1.77v-7.62h-3.17c-.1,1.07-.24,1.98-.42,2.73-.17.75-.48,1.55-.91,2.42-.43.85-1,1.58-1.69,2.18-.69.61-1.63,1.2-2.81,1.77s-2.58,1.07-4.21,1.48l-.23-.36c1.25-.54,2.31-1.13,3.2-1.77.9-.62,1.61-1.24,2.13-1.85.54-.61.96-1.3,1.27-2.08.33-.8.55-1.52.68-2.18.12-.66.22-1.44.29-2.34h-6.21l-.21-.75h22.44v.75h-7.67v7.05c0,.21.06.35.18.42.12.07.39.1.81.1h3.74c.5-.02.79-.03.86-.03.28-.02.47-.15.57-.39.19-.33.54-1.46,1.04-3.41h.31ZM340.2,5.2h-16.38c.12,1.73-.36,2.95-1.43,3.64-.38.29-.83.39-1.35.29-.52-.12-.87-.41-1.04-.86-.14-.42-.11-.79.08-1.12.21-.35.52-.62.94-.83.52-.29.98-.75,1.38-1.35.4-.62.58-1.28.55-1.98h.39c.17.49.3.97.39,1.46h19.29v1.25c-1.13,1.16-2.31,2.11-3.56,2.83l-.26-.18c.4-1,.74-2.05,1.01-3.15ZM339.21,8.74v.75h-14.43l-.21-.75h14.64ZM329.64.34l.23-.18c2.18.19,3.54.83,4.06,1.92.31.66.23,1.25-.23,1.77-.49.54-1.08.63-1.79.29-.12-.05-.25-.13-.39-.23-.05-.62-.26-1.27-.62-1.92-.35-.68-.76-1.22-1.25-1.64Z"/>
      <path class="cls-1" d="M369.63,16.04v.75h-11.13c-.23.94-.56,1.76-1.01,2.47-.45.69-1.13,1.37-2.03,2.03-.9.64-2.12,1.21-3.67,1.72-1.53.5-3.4.95-5.62,1.35l-.16-.47c3.19-.9,5.49-1.91,6.92-3.02,1.42-1.11,2.35-2.47,2.78-4.08h-8.63l-.23-.75h9.02c.12-.62.22-1.61.29-2.96l2.76.29c-.09,1.3-.17,2.19-.26,2.68h10.97ZM346.15,12.01h10.32v-3.09h-7.46l-.21-.75h7.67v-2.94h-8.92l-.23-.75h12.4c.62-1.23,1.18-2.67,1.66-4.32l2.5.88c-.76,1.2-1.88,2.34-3.35,3.43h8.5v.75h-9.91v2.94h8.24v.75h-8.24v3.09h10.58v.75h-23.32l-.23-.75ZM351.46.47l.21-.18c2.13.31,3.43,1,3.9,2.08.28.66.18,1.21-.29,1.66-.49.47-1.06.5-1.72.1-.07-.03-.13-.08-.18-.13-.09-.59-.32-1.2-.7-1.85-.36-.66-.77-1.22-1.22-1.69ZM359.52,18.02l.21-.29c4.11.55,6.97,1.69,8.58,3.41.85.9,1.14,1.71.88,2.42-.21.57-.68.8-1.4.68-.1-.02-.22-.04-.34-.08-.76-1.02-1.92-2.12-3.46-3.28s-3.03-2.11-4.47-2.86Z"/>
      <path class="cls-1" d="M379.77,12.92l.26.21c-.16.21-.49.32-.99.34-.57,2.13-1.59,3.99-3.04,5.56.16.05.29.14.42.26,1,.88,2.31,1.47,3.9,1.77,1.61.28,3.92.42,6.92.42,3.45,0,6.4-.06,8.87-.18v.34c-.5.09-.91.31-1.22.68-.29.38-.48.82-.55,1.33h-7.9c-2.84,0-4.98-.25-6.42-.75-1.44-.49-2.72-1.39-3.85-2.73-.35-.4-.63-.39-.86.03-.73,1.37-1.27,2.46-1.64,3.28.07.21.02.38-.16.52l-1.79-2.39c.26-.17.8-.57,1.61-1.2s1.38-1.03,1.69-1.22c.9-1.63,1.52-3.58,1.85-5.85h-3.61v-1.25c1.09-1.44,2.09-2.89,2.99-4.37h-3.8l-.23-.75h6.03v1.27c-.95,1.42-1.98,2.87-3.07,4.34h4.16c-.24-.69-.03-1.21.65-1.56.33-.16.61-.42.83-.81.24-.4.35-.79.31-1.17h.36V2.34h3.43c.23-.85.4-1.53.52-2.05l2,.62c-.12.49-.34.83-.65,1.04-.29.19-.49.32-.6.39h7.31v6.6c0,.1-.22.24-.65.42-.43.16-.82.23-1.17.23h-.36v-.99h-4.06c.47.12.8.29.99.49s.26.41.21.6c-.04.19-.16.36-.36.49h6.58v1.07c-.69.4-1.52.75-2.47,1.07l-.31-.18c.17-.26.4-.66.68-1.2h-2.34v.88c0,.33.02.53.05.6.05.05.19.08.42.08h2.37c.12,0,.29-.03.49-.08h.39c.47.16.72.28.75.36.02.38-.08.63-.29.75-.19.12-.55.2-1.09.23.8.57,1.42,1.05,1.87,1.43-.05.28-.28.42-.68.42h-8.24c-.09.33-.22.7-.39,1.12h6.66v1.04c-.12.81-.29,1.45-.49,1.9-.21.43-.52.77-.94,1.01-.52.28-1.34.43-2.47.47,0-.54-.13-.92-.39-1.14-.28-.24-.88-.45-1.82-.62v-.39c1.07.1,1.95.16,2.63.16.35,0,.59-.04.73-.13.26-.17.47-.68.62-1.53h-4.91c-.97,1.58-2.75,2.7-5.33,3.38l-.13-.39c1.18-.55,2.06-1.22,2.65-2,.59-.78.99-1.73,1.2-2.86h-3.8l-.21-.75h6.73c-.14-.07-.24-.14-.31-.21-.05-.68-.33-1.23-.83-1.66l.26-.16c1.49.09,2.32.44,2.5,1.07.09.42-.09.74-.52.96h4.16l.96-1.07h-2.47c-1.02,0-1.65-.09-1.87-.29-.21-.19-.31-.76-.31-1.72v-.86h-1.72c-.57,1.87-2.36,3.02-5.36,3.46l-.13-.39c1.82-.62,2.87-1.65,3.15-3.07h-2.26c-.05.85-.36,1.47-.94,1.87-.38.21-.76.24-1.14.1ZM373.32.7l.23-.18c2.04.59,3.29,1.47,3.74,2.65.26.71.16,1.29-.29,1.74-.47.45-1.01.47-1.64.05-.07-.05-.14-.1-.21-.16-.1-1.37-.72-2.74-1.85-4.11ZM383.65,8.61v.42c0,.12-.21.27-.62.44-.4.17-.81.26-1.22.26.02.16.03.31.03.47h4.86c-.1-.07-.18-.13-.23-.18,0-.57-.18-1.04-.55-1.4h-2.26ZM391.32,3.09h-7.67v1.07h7.67v-1.07ZM383.65,6.03h7.67v-1.12h-7.67v1.12ZM383.65,7.88h7.67v-1.09h-7.67v1.09Z"/>
      <path class="cls-1" d="M406.21,9.31h-4.55v14.09c0,.19-.21.39-.62.6-.4.22-.87.34-1.4.34h-.42V2.05h9.28v7.96c-.02.09-.26.22-.73.39-.45.17-.85.26-1.2.26h-.36v-1.35ZM406.21,2.81h-4.55v2.5h4.55v-2.5ZM401.66,8.58h4.55v-2.57h-4.55v2.57ZM414.74,13.39v7.64c-.02.12-.26.28-.73.47-.45.17-.86.26-1.22.26h-.36v-1.48h-5.28v1.04c0,.14-.21.29-.62.47-.42.17-.85.26-1.3.26h-.34v-9.72h9.85v1.07ZM412.43,13.05h-5.28v2.81h5.28v-2.81ZM407.15,19.55h5.28v-2.96h-5.28v2.96ZM420.51,2.05v19.16c0,1-.21,1.74-.62,2.21s-1.31.76-2.68.88c-.09-.85-.26-1.44-.52-1.77-.43-.4-1.14-.68-2.11-.86v-.39c1.59.12,2.56.18,2.89.18.22,0,.37-.04.44-.13.09-.09.13-.22.13-.42v-11.62h-4.73v.52c0,.14-.23.3-.68.49-.43.19-.88.29-1.33.29h-.34V2.05h9.54ZM418.04,2.81h-4.73v2.5h4.73v-2.5ZM413.31,8.58h4.73v-2.57h-4.73v2.57Z"/>
      <path class="cls-1" d="M433.28,5.48v13h-.52V5.48h.52Z"/>
      <path class="cls-1" d="M445.16,3.74l-.49,1.92c-.26,1.11-.81,1.66-1.64,1.66-.66,0-1.11-.3-1.35-.91.19-1.26.79-2.23,1.81-2.89,1.01-.66,2.24-.99,3.68-.99,1.73,0,3.09.42,4.07,1.27.98.85,1.47,1.98,1.47,3.41,0,1.13-.36,2.11-1.07,2.94s-1.75,1.44-3.12,1.82c1.61.29,2.81.89,3.59,1.78.78.89,1.17,2.02,1.17,3.37,0,1.58-.6,2.87-1.79,3.87-1.2,1.01-2.77,1.51-4.73,1.51-1.59,0-2.88-.34-3.86-1.03s-1.57-1.71-1.78-3.08c.28-.64.75-.96,1.4-.96.43,0,.77.14,1,.43.23.29.44.78.61,1.5l.47,1.92c.49.12.99.18,1.51.18,1.35,0,2.41-.39,3.16-1.18.75-.79,1.13-1.86,1.13-3.21s-.37-2.5-1.12-3.29c-.75-.79-1.83-1.18-3.25-1.18h-1.27v-1.14h1.07c1.26,0,2.27-.35,3-1.07.74-.71,1.1-1.73,1.1-3.07,0-1.2-.3-2.12-.91-2.77-.61-.65-1.46-.97-2.55-.97-.4,0-.83.05-1.3.16Z"/>
      <path class="cls-1" d="M458.84,5.41l-.34,5.36c.94-.29,1.96-.44,3.07-.44,1.98,0,3.54.52,4.69,1.57,1.15,1.05,1.73,2.52,1.73,4.41s-.63,3.4-1.9,4.52-2.93,1.69-4.99,1.69c-1.54,0-2.79-.36-3.73-1.07-.95-.71-1.53-1.72-1.75-3.04.22-.64.69-.96,1.4-.96.43,0,.77.14,1.01.42.24.28.44.75.6,1.43l.44,1.95c.54.16,1.11.23,1.72.23,1.35,0,2.41-.44,3.16-1.33.75-.88,1.13-2.11,1.13-3.67s-.39-2.65-1.18-3.48c-.79-.83-1.85-1.25-3.19-1.25-.92,0-1.84.15-2.76.44l-.75-.29.6-8.94h9.62v2.44h-8.58Z"/>
      <path class="cls-1" d="M475.63,8.76v7.88c.38-.12.98-.32,1.79-.6.83-.29,1.46-.51,1.87-.65l.13.31c-2.67,1.85-5.24,3.52-7.72,4.99-.09.36-.29.61-.6.73l-1.35-2.91c.64-.16,1.8-.51,3.48-1.07v-8.68h-2.96l-.21-.75h3.17V1.17l2.39.31v6.53h3.82v.75h-3.82ZM494.64,13.57v.75h-7.67v9.46c-.02.07-.1.16-.26.26-.16.1-.4.2-.73.29-.33.1-.69.16-1.07.16h-.42v-10.17h-7.07l-.21-.75h7.28V3.25h-6.21l-.21-.75h15.96v.75h-7.07v10.32h7.67ZM479.32,4.94l.34-.13c2.03,1.56,3.16,3.21,3.41,4.94.14,1.08-.07,1.82-.62,2.24-.52.4-1.08.29-1.69-.34.02-1.84-.46-4.07-1.43-6.71ZM488.4,12.35l-.39-.18c.75-2.15,1.4-4.65,1.95-7.49l2.5,1.09c-1.33,2.89-2.69,5.09-4.06,6.58Z"/>
      <path class="cls-1" d="M520.27,22.26v.75h-23.97l-.23-.75h3.87v-13.42l2.63.34v13.08h4.6V3.46h-9.7l-.21-.75h22.02v.75h-9.46v8.35h8.4v.75h-8.4v9.7h10.45Z"/>
      <path class="cls-1" d="M526.49,3.74l-.49,1.92c-.26,1.11-.81,1.66-1.64,1.66-.66,0-1.11-.3-1.35-.91.19-1.26.79-2.23,1.81-2.89,1.01-.66,2.24-.99,3.68-.99,1.73,0,3.09.42,4.07,1.27.98.85,1.47,1.98,1.47,3.41,0,1.13-.36,2.11-1.07,2.94s-1.75,1.44-3.12,1.82c1.61.29,2.81.89,3.59,1.78.78.89,1.17,2.02,1.17,3.37,0,1.58-.6,2.87-1.79,3.87-1.2,1.01-2.77,1.51-4.73,1.51-1.59,0-2.88-.34-3.86-1.03s-1.57-1.71-1.78-3.08c.28-.64.75-.96,1.4-.96.43,0,.77.14,1,.43.23.29.44.78.61,1.5l.47,1.92c.49.12.99.18,1.51.18,1.35,0,2.41-.39,3.16-1.18.75-.79,1.13-1.86,1.13-3.21s-.37-2.5-1.12-3.29c-.75-.79-1.83-1.18-3.25-1.18h-1.27v-1.14h1.07c1.26,0,2.27-.35,3-1.07.74-.71,1.1-1.73,1.1-3.07,0-1.2-.3-2.12-.91-2.77-.61-.65-1.46-.97-2.55-.97-.4,0-.83.05-1.3.16Z"/>
      <path class="cls-1" d="M542.11,9.62c0,1.14-.03,2.14-.08,2.99-.04.83-.16,1.84-.36,3.02-.19,1.16-.47,2.2-.83,3.12-.35.92-.86,1.87-1.53,2.86-.66.99-1.46,1.86-2.39,2.63l-.34-.23c1.27-1.89,2.1-4,2.5-6.32.42-2.32.62-4.99.62-8.01V2.81h2.29c5.89-.68,10.69-1.55,14.38-2.63l.83,2.47c-4.63.5-9.66.74-15.08.7v1.79h16.2v4.81c-.02.1-.28.24-.78.42-.49.17-.92.26-1.3.26h-.42v-1.01h-13.7ZM560.19,13.23v.75h-10.48c-.09.9-.23,1.76-.42,2.57h8.27v1.12c-.29,3.17-.95,5.09-1.98,5.75-.76.49-1.73.73-2.91.73,0-.8-.16-1.34-.47-1.64-.4-.38-1.19-.66-2.37-.83v-.36c1.85.14,2.96.21,3.3.21.4,0,.69-.06.88-.18.49-.36.85-1.71,1.09-4.03h-6.06c-.47,1.47-1.33,2.79-2.6,3.95-1.25,1.16-3.08,2.18-5.51,3.04l-.26-.39c1.07-.57,1.99-1.2,2.76-1.87.78-.68,1.38-1.31,1.79-1.9.43-.61.77-1.29,1.01-2.05.26-.76.42-1.43.49-2,.09-.59.15-1.29.18-2.11h-4.11l-.21-.75h8.37c-.24-.04-.47-.12-.68-.26-.23-.92-.75-1.83-1.59-2.73l.23-.16c1.89.12,3.02.62,3.41,1.51.22.54.12.99-.31,1.35-.19.16-.41.25-.65.29h8.79ZM555.82,5.9h-13.7v2.96h13.7v-2.96Z"/>
    </g>
  </g>
</svg>