<svg width="358" height="247" viewBox="0 0 358 247" fill="none" xmlns="http://www.w3.org/2000/svg">
<g clip-path="url(#clip0_5_328)">
<path d="M106.89 153.115L113.604 155.631C112.108 160.652 110.728 164.896 109.453 168.351V202.57C109.418 202.709 109.163 202.929 108.687 203.219C108.212 203.509 107.574 203.764 106.774 203.984C105.974 204.24 105.209 204.367 104.478 204.367H103.33V175.715C101.475 178.011 99.5269 179.993 97.4861 181.663L96.7788 181.28C98.8544 177.755 100.814 173.453 102.669 168.398C104.525 163.307 105.928 158.205 106.867 153.115H106.89ZM148.158 187.496L147.126 196.065C147.892 197.595 148.332 198.755 148.437 199.555C148.576 200.39 148.344 201.144 147.729 201.793C146.895 202.523 145.932 202.79 144.842 202.616C143.787 202.465 142.79 202.129 141.839 201.584C140.923 201.074 140.111 200.425 139.381 199.625C134.545 194.244 131.507 186.162 130.267 175.39H121.048V191.218C122.254 190.893 124.086 190.36 126.556 189.641C129.072 188.91 130.626 188.458 131.252 188.273L131.415 188.922C126.533 192.563 121.79 195.798 117.175 198.639C116.816 199.149 116.34 199.567 115.761 199.891L112.05 193.015C113.175 192.401 113.905 191.89 114.23 191.484C114.589 191.09 114.775 190.557 114.775 189.907V160.316H122.138C129.455 157.881 135.032 155.515 138.894 153.219L141.897 159.226C140.331 159.585 138.256 159.991 135.67 160.432C135.485 165.093 135.612 169.546 136.053 173.801H147.845V175.39H136.273C137.363 183.982 139.705 190.035 143.312 193.56C143.926 194.209 144.459 194.14 144.9 193.34C145.77 191.774 146.651 189.792 147.521 187.391L148.182 187.496H148.158ZM138.87 200.262V201.839H117.964L117.523 200.262H138.859H138.87ZM121.025 173.79H130.081C129.756 170.184 129.548 166.044 129.478 161.348C127.008 161.672 124.179 161.962 121.025 162.217V173.79Z" fill="white"/>
<path d="M205.243 163.864V165.395H183.409C181.009 168.12 178.805 170.288 176.799 171.888H196.558V202.071C196.523 202.327 195.851 202.686 194.541 203.161C193.23 203.637 192.048 203.869 190.992 203.869H189.902V200.1H169.436V201.897C169.436 202.338 168.833 202.825 167.639 203.37C166.433 203.915 165.169 204.193 163.824 204.193H162.792V171.888H174.747C174.782 171.158 174.84 169.975 174.909 168.34C175.014 166.705 175.072 165.72 175.072 165.395H154.606L154.165 163.864H183.096C184.592 160.409 185.751 156.837 186.586 153.162L195.48 155.295C195.225 156.06 194.529 156.42 193.404 156.385C190.934 158.971 188.07 161.464 184.835 163.864H205.243ZM165.343 153.602L165.784 153.324C170.839 154.124 173.97 155.817 175.164 158.403C175.93 160.003 175.779 161.406 174.724 162.6C173.703 163.76 172.393 164.038 170.793 163.424C170.387 163.284 170.004 163.064 169.645 162.774C169.204 159.899 167.767 156.849 165.331 153.602H165.343ZM189.902 173.419H169.436V180.515H189.902V173.419ZM169.436 182.092V189.409H189.902V182.092H169.436ZM169.436 198.523H189.902V190.998H169.436V198.523Z" fill="white"/>
<path d="M221.825 153.057L228.48 155.736C226.764 160.977 225.28 165.371 224.005 168.943V202.558C223.935 202.848 223.309 203.231 222.149 203.706C221.025 204.182 219.888 204.413 218.763 204.413H217.557V175.761C215.633 178.022 213.522 180.04 211.226 181.814L210.519 181.373C212.85 177.848 215.03 173.546 217.07 168.491C219.146 163.4 220.723 158.252 221.813 153.045L221.825 153.057ZM262.977 167.633V169.163H253.596V196.123C253.596 197.433 253.492 198.511 253.272 199.346C253.051 200.146 252.611 200.912 251.961 201.642C251.347 202.373 250.373 202.929 249.074 203.335C247.799 203.776 246.129 204.077 244.053 204.263C243.763 201.932 243.16 200.332 242.256 199.462C240.911 198.337 238.742 197.537 235.762 197.062V196.297C241.143 196.621 244.366 196.784 245.421 196.784C245.966 196.784 246.349 196.714 246.569 196.563C246.79 196.378 246.894 196.076 246.894 195.636V169.152H226.915L226.474 167.621H246.882V153.88L253.596 154.704V167.633H262.977ZM229.582 174.393L230.069 174.068C235.635 175.993 239.183 178.648 240.714 182.034C241.665 184.11 241.641 185.849 240.656 187.275C239.74 188.551 238.511 188.864 236.945 188.203C236.505 188.017 236.075 187.762 235.635 187.438C235.02 183.576 232.991 179.228 229.582 174.393Z" fill="white"/>
<path d="M52.1594 226.607H60.1487V228.161H52.1594V226.607ZM53.0639 230.921V229.39H59.5689V230.921H53.0639ZM53.0639 233.657V232.15H59.5458V233.657H53.0639ZM59.4878 234.979V241.113H53.0755V234.979H59.4762H59.4878ZM57.5165 225.749L56.0091 226.607C55.5685 225.633 55.0351 224.694 54.4437 223.778L55.9743 223.001C56.7396 224.207 57.2614 225.112 57.5281 225.738L57.5165 225.749ZM57.7832 236.545H54.7452V239.536H57.7832V236.545ZM71.1992 224.787V226.689H68.2308L67.9757 241.021C67.8133 241.357 67.5119 241.589 67.0944 241.728C66.4915 241.96 65.0884 242.087 62.8853 242.087C62.7461 241.357 62.491 240.696 62.1084 240.081C62.8737 240.128 64.0564 240.139 65.6682 240.139C65.8769 240.128 66.0276 240.081 66.1088 240.012C66.19 239.931 66.2364 239.791 66.2364 239.594V226.689H60.5893V224.787H71.1992Z" fill="white"/>
<path d="M79.4437 225.912H77.3913C76.7072 227.071 75.9999 228.034 75.2578 228.822C74.8287 228.463 74.2837 228.103 73.646 227.755C74.9679 226.573 75.9999 224.984 76.7188 222.99L78.5393 223.477C78.4465 223.732 78.3074 224.045 78.145 224.439H83.2123V225.923H79.6988C80.1163 226.549 80.4294 227.21 80.6381 227.906L79.0727 228.706C78.9451 228.207 78.6437 227.477 78.1566 226.526L79.4553 225.923L79.4437 225.912ZM82.5281 240.499L81.4034 241.797C80.5801 241.206 79.6525 240.626 78.6205 240.035C77.6117 240.974 76.3709 241.751 74.8751 242.377C74.5504 241.844 74.1562 241.392 73.6808 240.997C76.139 240.174 77.774 239.003 78.5741 237.484L80.3134 237.878C80.1511 238.226 79.9423 238.551 79.7104 238.841C80.812 239.386 81.7512 239.942 82.5397 240.499H82.5281ZM83.2587 226.886L84.8009 227.697C84.5805 227.894 84.4182 228.034 84.3138 228.138C85.2299 228.729 86.5054 229.263 88.1172 229.773C89.7289 230.271 91.3407 230.643 92.9409 230.886C92.4771 231.35 92.0944 231.883 91.7698 232.498C90.1232 232.162 88.4302 231.628 86.7025 230.909V232.127H79.6525V230.979C78.1219 231.651 76.5565 232.196 74.9679 232.637C74.6896 232.069 74.3301 231.547 73.8779 231.083C75.7448 230.666 77.5421 230.086 79.2466 229.355C80.9512 228.625 82.2962 227.802 83.2587 226.897V226.886ZM76.3477 237.391V232.973H82.9224V237.391H76.3477ZM77.9363 234.284V236.058H81.241V234.284H77.9363ZM80.0583 230.77H86.401C85.1835 230.237 84.1167 229.645 83.2007 228.996C82.2383 229.657 81.1947 230.248 80.0583 230.77ZM86.5634 237.53L88.3027 237.797C88.1404 238.226 87.9664 238.585 87.8041 238.864C89.613 239.49 91.2248 240.151 92.6162 240.835L91.4219 242.215C90.1696 241.519 88.6274 240.847 86.7953 240.209C85.9952 241.044 84.9052 241.774 83.5138 242.389C83.2123 241.983 82.8064 241.554 82.2962 241.113C84.5574 240.336 85.9836 239.142 86.5634 237.53ZM88.7781 225.958H85.9256C85.4618 226.561 85.0212 227.036 84.6037 227.407C84.1283 226.967 83.5949 226.607 83.0152 226.341C84.1747 225.436 85.0212 224.311 85.5662 222.966L87.4098 223.43C87.2823 223.72 87.12 224.068 86.9112 224.474H92.8133V225.958H89.1492C89.9029 226.793 90.4131 227.547 90.703 228.196L89.1376 229.031C88.8361 228.3 88.2911 227.477 87.5258 226.561L88.7781 225.958ZM83.966 237.391V232.973H90.645V237.391H83.966ZM85.5778 234.284V236.058H88.952V234.284H85.5778Z" fill="white"/>
<path d="M100.269 240.939C98.2979 240.939 96.6166 240.255 95.2251 238.887L96.3731 237.322C97.4746 238.423 98.6806 238.98 99.9677 238.98C100.861 238.98 101.591 238.678 102.171 238.087C102.739 237.495 103.029 236.695 103.029 235.687C103.029 234.678 102.762 233.889 102.229 233.321C101.695 232.753 101.023 232.463 100.2 232.463C99.3763 232.463 98.5182 232.753 97.6254 233.344L96.4542 232.567L96.918 225.239H104.722V227.291H99.0052L98.6458 231.245C99.3647 230.886 100.072 230.7 100.756 230.7C102.124 230.7 103.249 231.118 104.13 231.941C105.012 232.764 105.452 233.994 105.452 235.617C105.452 237.24 104.942 238.527 103.922 239.49C102.901 240.452 101.684 240.939 100.258 240.939H100.269Z" fill="white"/>
<path d="M114.404 233.414C113.743 234.284 112.862 234.724 111.783 234.724C110.705 234.724 109.824 234.295 109.163 233.426C108.502 232.556 108.177 231.362 108.177 229.831C108.177 228.3 108.502 227.106 109.163 226.248C109.824 225.39 110.693 224.961 111.783 224.961C112.873 224.961 113.755 225.39 114.416 226.248C115.065 227.106 115.401 228.3 115.401 229.819C115.401 231.338 115.065 232.533 114.404 233.402V233.414ZM109.94 229.831C109.94 230.979 110.102 231.837 110.438 232.428C110.775 233.008 111.227 233.31 111.783 233.31C112.34 233.31 112.804 233.02 113.129 232.428C113.465 231.837 113.627 230.979 113.627 229.831C113.627 228.683 113.465 227.825 113.129 227.257C112.792 226.689 112.34 226.399 111.783 226.399C111.227 226.399 110.763 226.689 110.438 227.257C110.102 227.825 109.94 228.683 109.94 229.831ZM112.259 240.94L120.689 224.973H122.219L113.789 240.94H112.259ZM126.324 236.069C126.324 237.588 126 238.783 125.339 239.652C124.678 240.522 123.808 240.951 122.718 240.951C121.628 240.951 120.747 240.522 120.097 239.652C119.436 238.783 119.112 237.6 119.112 236.069C119.112 234.539 119.436 233.356 120.097 232.498C120.758 231.64 121.628 231.211 122.718 231.211C123.808 231.211 124.689 231.64 125.339 232.498C126 233.356 126.324 234.55 126.324 236.069ZM121.385 238.667C121.721 239.247 122.161 239.548 122.718 239.548C123.275 239.548 123.727 239.258 124.063 238.667C124.399 238.075 124.562 237.217 124.562 236.069C124.562 234.921 124.399 234.063 124.063 233.495C123.727 232.927 123.275 232.637 122.718 232.637C122.161 232.637 121.709 232.927 121.373 233.495C121.048 234.063 120.886 234.921 120.886 236.069C120.886 237.217 121.048 238.075 121.385 238.667Z" fill="white"/>
<path d="M129.571 244.859L129.026 243.502C129.757 243.212 130.313 242.806 130.707 242.308C131.102 241.809 131.299 241.252 131.299 240.638C131.241 240.649 131.171 240.661 131.067 240.661C130.615 240.661 130.244 240.522 129.931 240.255C129.617 239.988 129.455 239.606 129.455 239.13C129.455 238.655 129.617 238.272 129.942 237.994C130.267 237.704 130.684 237.565 131.218 237.565C131.751 237.565 132.18 237.797 132.505 238.261C132.829 238.724 132.992 239.42 132.992 240.371C132.992 241.322 132.69 242.203 132.087 243.026C131.484 243.85 130.638 244.464 129.56 244.87L129.571 244.859Z" fill="white"/>
<path d="M141.804 235.524V239.328C142.836 239.722 144.39 239.919 146.454 239.919C147.011 239.931 148.448 239.931 150.767 239.919C153.087 239.907 154.594 239.896 155.29 239.873C154.919 240.418 154.652 241.055 154.49 241.797H146.477C144.239 241.797 142.5 241.565 141.236 241.113C139.972 240.661 138.963 239.815 138.21 238.574C138.001 240.07 137.641 241.31 137.12 242.319C136.679 241.983 136.146 241.693 135.554 241.438C136.088 240.487 136.435 239.293 136.609 237.855C136.783 236.417 136.888 234.62 136.911 232.451L138.65 232.579C138.639 233.275 138.604 234.249 138.546 235.489C138.94 236.707 139.45 237.611 140.076 238.214V231.164H136.122V229.425H139.763V227.141H136.54V225.448H139.763V223.105H141.561V225.448H144.68V227.141H141.561V229.425H145.074V230.156C146.639 229.205 147.59 227.686 147.915 225.599H145.318V223.94H154.42C154.42 225.587 154.327 226.99 154.153 228.161C153.979 229.332 153.759 230.063 153.492 230.364C153.226 230.666 152.797 230.851 152.205 230.909C151.614 230.967 150.872 230.967 150.002 230.932C149.944 230.306 149.782 229.75 149.504 229.274C150.037 229.332 150.652 229.355 151.347 229.355C151.637 229.355 151.846 229.286 151.973 229.147C152.217 228.868 152.391 227.686 152.495 225.587H149.759C149.341 228.335 148.101 230.341 146.037 231.617C145.874 231.454 145.55 231.188 145.074 230.816V231.153H141.804V233.808H144.842V235.501H141.804V235.524ZM145.932 238.388V231.941H153.968V238.388H145.932ZM147.729 233.53V236.811H152.02V233.53H147.729Z" fill="white"/>
<path d="M162.131 223.221L163.952 223.766C163.418 225.158 162.723 226.642 161.865 228.207V242.308H160.021V231.095C159.522 231.79 158.931 232.509 158.247 233.252C157.968 232.556 157.609 231.895 157.18 231.28C158.154 230.318 159.082 229.124 159.963 227.686C160.844 226.248 161.563 224.764 162.143 223.233L162.131 223.221ZM176.486 232.765H172.718C172.973 234.944 173.286 236.684 173.669 237.982C174.051 239.281 174.469 239.942 174.909 239.965C175.246 239.965 175.489 239.014 175.64 237.113C175.941 237.495 176.382 237.809 176.962 238.075C176.591 240.812 175.907 242.168 174.909 242.134C172.973 242.087 171.64 238.968 170.909 232.753H166.433V237.948L170.028 237.066C169.97 237.669 169.981 238.214 170.074 238.701C166.642 239.664 164.74 240.267 164.358 240.522C164.23 239.965 163.998 239.444 163.662 238.957C164.288 238.655 164.601 238.191 164.601 237.577V225.274H164.624L164.601 225.251C168.903 224.613 172.138 223.871 174.33 223.036L175.814 224.485C174.736 224.88 173.53 225.216 172.196 225.506C172.266 227.477 172.37 229.297 172.509 230.967H176.463V232.765H176.486ZM166.445 230.956H170.781C170.642 229.402 170.538 227.72 170.468 225.888C169.123 226.167 167.79 226.399 166.456 226.584V230.956H166.445ZM166.526 241.821V240.232H172.092V241.821H166.526Z" fill="white"/>
<path d="M188.059 224.01V231.79H182.342V242.296H180.417V224.01H188.059ZM186.238 225.645H182.342V227.129H186.238V225.645ZM182.342 230.213H186.238V228.578H182.342V230.213ZM197.66 224.01V239.814C197.66 240.429 197.579 240.893 197.416 241.217C197.254 241.542 196.976 241.786 196.593 241.948C195.979 242.192 194.634 242.307 192.558 242.307C192.488 241.693 192.256 241.02 191.874 240.301C192.488 240.325 193.578 240.348 195.144 240.348C195.352 240.336 195.492 240.29 195.573 240.22C195.654 240.151 195.689 240.023 195.689 239.826V231.837H189.787V224.033H197.672L197.66 224.01ZM195.677 225.645H191.642V227.129H195.677V225.645ZM191.642 230.248H195.677V228.578H191.642V230.248Z" fill="white"/>
<path d="M207.899 234.33L206.959 235.71C206.658 234.944 206.206 234.005 205.626 232.88V242.296H203.863V233.483C203.226 235.675 202.553 237.322 201.857 238.423C201.637 237.878 201.336 237.333 200.953 236.788C201.498 235.953 202.02 234.84 202.518 233.449C203.017 232.057 203.411 230.677 203.689 229.297H201.382V227.523H203.852V223.105H205.614V227.523H207.643V229.297H205.614V230.677C205.881 231.037 206.275 231.651 206.82 232.533C207.365 233.414 207.713 234.005 207.899 234.318V234.33ZM219.193 239.977H220.387V241.589H207.145V239.977H208.629V234.875H219.193V239.977ZM214.38 232.243V233.669H207.98V223.836H214.253V225.239H212.247V226.584H214.044V229.263C214.752 227.871 215.262 225.819 215.552 223.129L217.268 223.419C217.175 224.195 217.036 225.054 216.85 225.97H220.364V227.639H216.456C216.166 228.718 215.83 229.611 215.447 230.318C215.041 229.97 214.578 229.657 214.044 229.402V230.828H212.247V232.254H214.38V232.243ZM210.821 225.227H209.464V226.573H210.821V225.227ZM212.606 229.518V227.883H209.464V229.518H212.606ZM209.464 230.816V232.243H210.821V230.816H209.464ZM210.218 236.382V239.977H211.771V236.382H210.218ZM214.612 236.382H213.082V239.977H214.612V236.382ZM215.123 233.008V231.35H220.085V233.008H215.123ZM217.5 236.382H215.934V239.977H217.5V236.382Z" fill="white"/>
<path d="M231.171 238.852H227.889V242.331H226.254V238.852H222.868V237.113H226.254V235.652H223.518V228.312H226.242V226.955H223.17V225.262H226.242V223.128H227.877V225.262H230.973V226.955H227.877V228.312H230.741V235.652H227.901V237.113H231.182V238.852H231.171ZM224.886 229.703V231.268H226.416V229.703H224.886ZM224.886 232.637V234.225H226.416V232.637H224.886ZM229.269 231.28V229.715H227.738V231.28H229.269ZM229.269 234.225V232.637H227.738V234.225H229.269ZM237.525 240.127H242.151V241.797H230.846V240.127H235.577V236.486H231.936V234.828H241.502V236.486H237.525V240.127ZM234.87 233.727L233.316 234.33C232.887 233.112 232.145 231.709 231.101 230.12C231.924 228.729 232.562 227.43 233.026 226.248L234.638 226.63C234.209 227.546 233.606 228.706 232.84 230.109C233.756 231.477 234.44 232.683 234.87 233.727ZM241.862 224.056V225.714H231.507V224.056H241.862ZM236.4 226.248L238.012 226.63C237.525 227.639 236.899 228.787 236.133 230.086C237.107 231.408 237.838 232.602 238.313 233.646L236.783 234.295C236.296 233.066 235.496 231.674 234.371 230.109C235.264 228.683 235.936 227.407 236.4 226.259V226.248ZM241.862 233.68L240.331 234.33C239.844 233.147 238.986 231.744 237.757 230.12C238.696 228.659 239.415 227.361 239.914 226.248L241.549 226.642C241.166 227.396 240.505 228.544 239.566 230.097C240.609 231.477 241.375 232.672 241.873 233.68H241.862Z" fill="white"/>
<path d="M250.152 235.791V236.209C250.477 236.441 250.952 236.823 251.579 237.345C252.205 237.867 252.622 238.226 252.831 238.423L251.764 239.722C251.405 239.247 250.86 238.632 250.152 237.855V242.273H248.413V237.925C247.59 239.154 246.72 240.151 245.792 240.916C245.445 240.453 245.05 240.024 244.598 239.618C245.213 239.212 245.839 238.667 246.488 237.96C247.138 237.252 247.694 236.533 248.146 235.78H245.132V234.249H248.401V232.66H250.141V234.249H252.901V235.78H250.141L250.152 235.791ZM254.999 232.092L253.701 232.765C253.561 232.568 253.341 232.289 253.051 231.93C248.703 232.231 246.349 232.463 246.001 232.602C245.908 232.162 245.769 231.744 245.584 231.373C245.839 231.327 246.129 231.176 246.477 230.909C246.824 230.643 247.103 230.388 247.346 230.133H245.027V228.985H246.72V223.674H254.593V224.799H248.506V225.529H254.048V226.515H248.506V227.245H254.048V228.231H248.506V228.985H255.138V230.133H253.086C253.99 230.967 254.628 231.628 255.011 232.104L254.999 232.092ZM247.845 231.234L252.112 230.979C251.961 230.828 251.776 230.654 251.544 230.457L252.251 230.121H249.074C248.749 230.457 248.343 230.828 247.845 231.234ZM255.486 232.765L257.098 233.147C256.344 235.049 255.22 236.626 253.724 237.902C253.515 237.612 253.098 237.229 252.471 236.754C253.817 235.722 254.814 234.4 255.486 232.776V232.765ZM259.023 238.203L260.472 237.6C261.899 239.606 262.791 240.951 263.174 241.635L261.667 242.343C261.33 241.74 261.099 241.345 260.959 241.148C258.153 241.38 256.344 241.554 255.533 241.647C254.721 241.74 254.164 241.844 253.886 241.96C253.759 241.403 253.573 240.882 253.318 240.395C253.84 240.302 254.663 239.421 255.811 237.774C256.379 236.951 256.855 236.139 257.237 235.351L258.895 236.162C258.014 237.565 257.063 238.841 256.054 239.966L260.055 239.676C259.788 239.258 259.452 238.76 259.046 238.191L259.023 238.203ZM261.933 228.556L263.545 229.159C262.084 230.62 259.614 231.686 256.136 232.336C255.857 231.802 255.533 231.373 255.15 231.037C258.455 230.515 260.716 229.692 261.933 228.544V228.556ZM260.774 223.222L262.281 223.975C260.901 224.961 258.965 225.831 256.46 226.573C256.043 226.074 255.649 225.692 255.289 225.425C256.275 225.181 257.295 224.868 258.327 224.462C259.359 224.057 260.171 223.651 260.774 223.222ZM261.412 225.9L262.965 226.526C261.528 227.686 259.417 228.614 256.646 229.309C256.31 228.834 255.95 228.428 255.579 228.092C258.234 227.558 260.171 226.828 261.423 225.9H261.412ZM257.342 232.452H260.333C260.681 233.263 261.191 234.029 261.864 234.759C262.536 235.49 263.244 236.058 263.997 236.499C263.522 236.893 263.128 237.357 262.803 237.902C261.319 236.893 260.136 235.582 259.22 233.971H257.342V232.463V232.452Z" fill="white"/>
<path d="M285.391 232.532H276.625V242.307H274.573V232.532H266.746V230.608H274.515V223.14H276.567V225.865H283.374V227.732H276.567V230.619H285.403V232.544L285.391 232.532ZM284.51 237.368L283.42 239.13C282.075 238.388 279.814 237.356 276.613 236.034L277.622 234.527C280.579 235.64 282.875 236.591 284.51 237.368Z" fill="white"/>
<path d="M293.137 223.198L294.981 223.767C294.482 225.1 293.798 226.549 292.951 228.103V242.296H290.98V231.164C290.482 231.895 289.902 232.579 289.264 233.24C288.974 232.533 288.603 231.872 288.174 231.269C289.16 230.306 290.099 229.1 290.98 227.674C291.861 226.236 292.58 224.752 293.137 223.222V223.198ZM303.26 239.606H307.214V241.473H294.192V239.606H301.451C302.286 236.556 302.912 233.194 303.329 229.541L305.359 229.877C304.64 233.936 303.932 237.182 303.248 239.606H303.26ZM306.437 226.781V228.66H295.027V226.781H306.437ZM299.596 238.238L297.671 238.806C297.474 236.313 297.033 233.391 296.349 230.063L298.088 229.669C298.854 233.02 299.352 235.872 299.596 238.249V238.238ZM301.984 226.132L300.059 226.677C299.909 225.761 299.584 224.659 299.097 223.372L300.941 222.908C301.428 224.172 301.776 225.251 301.984 226.132Z" fill="white"/>
</g>
<defs>
<clipPath id="clip0_5_328">
<rect width="255.054" height="91.8015" fill="white" transform="translate(52.1594 153.057)"/>
</clipPath>
</defs>
</svg>
