<svg width="319" height="12" viewBox="0 0 319 12" fill="none" xmlns="http://www.w3.org/2000/svg">
<path d="M0.926695 8.34624H1.13429C1.33245 8.99262 1.41737 9.53519 1.39378 9.97869C1.37019 10.4127 1.26168 10.7524 1.07295 10.9978C0.940849 11.1535 0.766282 11.2337 0.544533 11.2431C0.332221 11.2526 0.171808 11.1724 0.0680107 11.0119C-0.0782488 10.7005 0.0113941 10.4175 0.336939 10.1533C0.506789 9.97397 0.657767 9.70976 0.780436 9.35591C0.912541 9.00205 0.959722 8.66707 0.926695 8.35096V8.34624ZM0.483199 8.08675L0.0302663 6.77513C0.209552 6.74211 0.336939 6.69493 0.412428 6.63831C0.978594 6.19009 1.57307 5.46352 2.20529 4.46801C1.85143 4.60011 1.42209 4.74637 0.903105 4.9115C0.813462 5.03417 0.719101 5.11438 0.620022 5.15684L0.0774467 3.85466C0.242578 3.82163 0.355812 3.77917 0.421864 3.73199C0.723819 3.4206 1.04936 2.91577 1.40322 2.21278C1.75707 1.50979 2.00241 0.896445 2.15339 0.372742L3.1489 1.0946C2.47893 2.24581 1.72876 3.18942 0.903105 3.916C1.59666 3.916 2.14867 3.916 2.55914 3.90184C2.84694 3.4206 3.06869 2.99598 3.23382 2.62797L4.06892 3.50081C3.73393 4.07169 3.27628 4.65673 2.69596 5.25592C2.11564 5.84568 1.54476 6.35994 0.978594 6.80344C1.63912 6.76098 2.44119 6.70436 3.3848 6.63359C3.28572 6.24199 3.13946 5.84096 2.9413 5.43049L3.10172 5.36915C3.91322 5.85983 4.34728 6.39769 4.41333 6.97801C4.45579 7.33186 4.36143 7.57248 4.13025 7.69987C3.91794 7.8131 3.70563 7.7612 3.49331 7.53946C3.49331 7.32714 3.47916 7.1337 3.44613 6.96385C2.53083 7.2894 1.65327 7.58192 0.808744 7.83669C0.709665 7.9688 0.605868 8.05372 0.487917 8.09619L0.483199 8.08675ZM1.95523 8.17168L2.12508 8.13393C2.79504 8.73312 3.10643 9.34175 3.05925 9.95982C3.03566 10.3373 2.89412 10.5732 2.64406 10.6722C2.43175 10.7619 2.22888 10.6911 2.04487 10.4505C2.17698 9.73807 2.14867 8.97846 1.95995 8.16696L1.95523 8.17168ZM3.10643 7.98767L3.25269 7.91218C4.0642 8.31322 4.52185 8.79446 4.62565 9.36062C4.68226 9.71448 4.60205 9.96453 4.38031 10.1202C4.17743 10.2759 3.95568 10.2429 3.71978 10.0212C3.72922 9.36062 3.52162 8.68122 3.10643 7.98295V7.98767ZM10.9714 8.76143L11.0186 10.309C11.3111 10.4411 11.4621 10.6062 11.4621 10.8138C11.4621 11.0497 11.3017 11.2195 10.9856 11.3186C10.6742 11.4224 10.108 11.479 9.29179 11.479H8.31044C7.81033 11.479 7.46591 11.3988 7.28191 11.2337C7.10262 11.078 7.01298 10.7902 7.01298 10.3608V7.63854H4.82852V3.67066L5.83347 3.81692V7.27525H7.01298V2.8969H4.352L4.25292 2.54304H7.01298V0.64167H8.13115V2.54304H11.4196V2.8969H8.13115V7.27525H9.38144V3.68009L10.4241 3.82635V8.0726C10.4241 8.12921 10.3298 8.19527 10.141 8.27075C9.95232 8.33681 9.7636 8.36983 9.57488 8.36983H9.37672V7.63382H8.12644V10.0495C8.12644 10.1816 8.15474 10.2759 8.21136 10.3325C8.27741 10.3892 8.40008 10.4175 8.57937 10.4175H9.37672C9.68811 10.4175 9.93345 10.408 10.1127 10.3939C10.2354 10.375 10.325 10.3325 10.3817 10.2571C10.4807 10.1108 10.627 9.61068 10.8252 8.76143H10.9714Z" fill="white"/>
<path d="M16.2733 0.0846558L17.4764 0.598923C17.0518 1.86808 16.6932 2.93907 16.4101 3.81191V11.1343C16.4007 11.1673 16.3535 11.2098 16.2639 11.257C16.1742 11.3136 16.0516 11.3608 15.8959 11.4033C15.7496 11.4504 15.6033 11.4787 15.4665 11.4787H15.2448V4.91594C14.7777 5.51985 14.2776 6.04827 13.735 6.49648L13.5746 6.38797C14.1219 5.60477 14.6361 4.64701 15.1221 3.51939C15.6128 2.39178 15.9949 1.2453 16.2733 0.0846558ZM25.2989 10.587V10.9409H16.9102L16.8112 10.587H20.1846V6.78428H17.5236L17.4245 6.43043H20.1846V3.28821H17.2028L17.1037 2.93436H24.9923V3.28821H21.4207V6.43043H24.7564V6.78428H21.4207V10.587H25.2989ZM19.1183 0.29225L19.2268 0.193171C20.4865 0.381893 21.3027 0.792363 21.6802 1.41986C21.9019 1.77372 21.9208 2.08039 21.7415 2.33988C21.5717 2.59466 21.3216 2.65127 20.9914 2.50973C20.9583 2.49558 20.9206 2.47671 20.8828 2.46255C20.746 2.1087 20.5054 1.73597 20.1704 1.33494C19.8354 0.933904 19.4816 0.584769 19.1136 0.29225H19.1183Z" fill="white"/>
<path d="M33.3775 5.27093C33.9012 5.67196 34.6372 5.99751 35.5855 6.25228C36.5433 6.50706 37.4728 6.66275 38.3833 6.71937L38.3692 6.88922C37.8455 7.10153 37.5482 7.42236 37.4728 7.85642C36.6282 7.6677 35.8262 7.36574 35.0571 6.95055C34.2975 6.52593 33.6559 6.03053 33.1322 5.46437C31.5563 6.75711 29.688 7.60636 27.5366 8.01683L27.4375 7.84698C28.4754 7.47897 29.4426 6.9883 30.3438 6.37495C31.2449 5.7616 31.9338 5.14354 32.415 4.52076H32.3065V2.45897H29.0322C29.0652 2.81754 29.0133 3.12893 28.8859 3.39314C28.7538 3.64792 28.584 3.83192 28.3716 3.94516C28.2018 4.0348 28.0178 4.05839 27.8196 4.02064C27.6215 3.9829 27.4988 3.86967 27.4375 3.69038C27.3478 3.36484 27.4894 3.10534 27.8668 2.91662C28.0933 2.81282 28.282 2.62882 28.433 2.37876C28.5887 2.12399 28.65 1.84562 28.617 1.54367L28.8151 1.52951C28.8812 1.68521 28.9378 1.87865 28.985 2.10512H32.3112V1.19925H28.9001L28.801 0.845398H37.2416V1.19925H33.453V2.10512H38.2512V2.68072C37.8266 3.14781 37.3642 3.54412 36.8641 3.86967L36.7179 3.78474C36.8547 3.36012 36.9632 2.91662 37.0387 2.45897H33.4577V4.26126C33.4577 4.26126 33.4247 4.30845 33.3586 4.34619C33.302 4.37922 33.2076 4.41696 33.0755 4.4547C32.9529 4.48773 32.816 4.5066 32.6698 4.51604L33.9814 5.0822C33.9154 5.22846 33.7172 5.2898 33.3822 5.26621L33.3775 5.27093ZM29.3058 5.53986L28.8387 4.44999C29.5747 4.38393 30.608 4.26126 31.9432 4.08198L31.9668 4.26598C31.5563 4.46414 30.7684 4.79912 29.5983 5.27093C29.5417 5.42662 29.4426 5.51627 29.3058 5.53986ZM29.051 3.11006L29.1265 2.92606C30.273 2.73734 31.0657 2.84113 31.5044 3.23273C31.7262 3.43561 31.7781 3.63376 31.6648 3.82249C31.5894 3.94516 31.4573 4.00177 31.2591 3.99234C30.6457 3.5913 29.9097 3.29878 29.051 3.11006ZM34.8023 8.3754H36.0526V8.92741C35.562 9.33788 34.8401 9.72005 33.8918 10.0786C34.3824 10.3381 34.6419 10.6401 34.6655 10.975C34.6891 11.2298 34.5759 11.3902 34.3211 11.4516C34.2409 11.4752 34.1465 11.4846 34.038 11.4752C33.6936 11.1826 33.2029 10.8665 32.566 10.5316C31.9291 10.206 31.344 9.95123 30.8109 9.77194L30.8958 9.6021C31.9196 9.55492 32.7594 9.64928 33.4247 9.88518C33.9059 9.50774 34.3258 9.12557 34.675 8.73397H29.1548L29.0463 8.38012H34.7976L34.8023 8.3754ZM34.8873 7.09681V7.45066H30.7637L30.6646 7.09681H34.8826H34.8873ZM33.7361 4.22824L33.8116 4.03008C35.1939 3.94987 36.1376 4.1386 36.6471 4.59625C36.9019 4.82743 36.9679 5.03502 36.8453 5.22375C36.7556 5.34642 36.6094 5.39831 36.4018 5.38416C36.0998 5.19544 35.6799 4.98784 35.1515 4.75666C34.6278 4.52548 34.156 4.35091 33.7408 4.22824H33.7361ZM35.9535 2.49671L36.298 3.52525C35.4063 3.69038 34.59 3.80361 33.8446 3.86967L33.7974 3.70925C34.6136 3.34125 35.3355 2.93549 35.9583 2.49671H35.9535Z" fill="white"/>
<path d="M51.9795 2.08516V2.43902H42.9492V5.11415C42.9492 5.59539 42.935 6.02002 42.9114 6.38802C42.8926 6.75603 42.8407 7.19953 42.751 7.71379C42.6708 8.22334 42.5481 8.67628 42.383 9.07731C42.2273 9.47835 42.0008 9.89353 41.7083 10.3276C41.4158 10.7617 41.0572 11.1438 40.6421 11.4788L40.4958 11.3703C41.0289 10.5446 41.3733 9.62932 41.5385 8.62438C41.7036 7.61943 41.7838 6.44936 41.7838 5.11415V2.08516H46.8274C46.7189 2.05214 46.6293 2.00967 46.5585 1.96249C46.3933 1.37274 46.0017 0.754674 45.379 0.108301L45.478 0.0233765C46.5632 0.169636 47.252 0.518772 47.5398 1.06607C47.7097 1.39161 47.6955 1.67469 47.4927 1.9106C47.4172 1.9908 47.3275 2.04742 47.2237 2.08045H51.9842L51.9795 2.08516ZM51.5643 4.56214V4.91599H47.6625V7.01552H50.4697V11.1014C50.4697 11.1249 50.432 11.158 50.3612 11.2004C50.2905 11.2429 50.1725 11.2806 50.0168 11.3089C49.8611 11.3514 49.696 11.3703 49.5261 11.3703H49.3421V10.3512H44.8411V11.1627C44.8411 11.1863 44.8034 11.2193 44.7326 11.2618C44.6665 11.3089 44.5627 11.3514 44.4118 11.3844C44.2655 11.4269 44.1051 11.4458 43.9352 11.4458H43.7371V7.01552H46.4971V2.58528L47.6625 2.73154V4.55742H51.5643V4.56214ZM49.3421 7.36938H44.8411V9.99261H49.3421V7.36938Z" fill="white"/>
<path d="M65.4626 1.20758V1.56143H60.386C59.8858 2.27386 59.4235 2.87777 58.9989 3.37788H64.5426V11.0447C64.5426 11.0777 64.5001 11.1202 64.4057 11.1674C64.3255 11.2146 64.2029 11.2617 64.0377 11.3042C63.8726 11.3514 63.7027 11.3797 63.5235 11.3797H63.3253V10.4974H56.1114V11.1579C56.1114 11.191 56.0737 11.2334 56.0029 11.2806C55.9274 11.3278 55.8142 11.375 55.6585 11.4174C55.5122 11.4599 55.3424 11.4788 55.1536 11.4788H54.9555V3.37788H58.5742C58.6544 2.807 58.7394 2.19837 58.8196 1.56143H54.2053L54.0968 1.20758H65.4579H65.4626ZM56.1161 3.73645V10.1388H57.7108V3.73645H56.1161ZM60.6171 5.60008V3.73645H58.8007V5.60008H60.6171ZM58.8007 5.95394V7.85531H60.6171V5.95394H58.8007ZM58.8007 8.21388V10.1388H60.6171V8.21388H58.8007ZM63.33 3.73645H61.7117V10.1388H63.33V3.73645Z" fill="white"/>
<path d="M75.214 2.68457V8.81803H74.9687V2.68457H75.214Z" fill="white"/>
<path d="M87.4143 3.87079V7.73488C87.6502 7.6877 88.004 7.61221 88.4711 7.51313C88.9382 7.40933 89.2402 7.33856 89.377 7.30553L89.4147 7.45179C88.4098 8.03211 87.1548 8.6832 85.6497 9.40035C85.5837 9.56548 85.4846 9.66456 85.3572 9.70702L84.7203 8.27273C84.9232 8.24914 85.4421 8.15006 86.2772 7.98021V3.87079H84.8524L84.7533 3.51694H86.2725V0.30395L87.4143 0.464364V3.51694H89.3298V3.87079H87.4143ZM95.7558 2.35158V2.88944C95.5907 7.47067 95.1707 10.1128 94.4914 10.8158C94.0667 11.2498 93.4911 11.4621 92.774 11.4527C92.774 11.0422 92.6843 10.7686 92.5051 10.6318C92.2927 10.443 91.8445 10.2826 91.1557 10.1552L91.1698 9.95708C92.0851 10.0467 92.7174 10.0939 93.0712 10.0939C93.3071 10.0939 93.4911 10.0326 93.6232 9.9099C93.845 9.70702 94.0384 9.09839 94.1988 8.08401C94.1422 8.14063 94.0573 8.16894 93.9393 8.16894H89.6082L89.5091 7.81508H94.2177C94.4064 6.67803 94.5433 4.97954 94.6329 2.71015H90.8679C90.2687 3.81418 89.6035 4.6823 88.8674 5.3098L88.6976 5.20128C89.0892 4.60681 89.4478 3.8472 89.7639 2.9319C90.0894 2.0166 90.3395 1.08715 90.514 0.148254L91.7171 0.554007C91.5379 1.23341 91.3161 1.8326 91.0566 2.3563H95.7558V2.35158ZM93.9016 5.08805V5.43247H90.0234L89.9243 5.08805H93.8969H93.9016Z" fill="white"/>
<path d="M102.147 2.40975H101.019C100.911 3.52793 100.25 4.33471 99.0329 4.82539L98.9244 4.65554C99.3584 4.29697 99.6462 3.90065 99.7831 3.46659C99.9199 3.03253 99.9907 2.54657 99.9907 2.00872V0.966027H101.217C102.152 0.654636 102.902 0.357399 103.473 0.0695984L104.478 1.06511C104.341 1.17834 104.119 1.17362 103.817 1.04152C102.968 1.18778 102.043 1.28685 101.043 1.33404V2.00872L104.86 2.0559V2.40975H103.218V3.9903C103.208 4.01389 103.171 4.04691 103.109 4.08938C103.043 4.1224 102.939 4.16015 102.788 4.19789C102.652 4.23092 102.496 4.24507 102.336 4.24507H102.152V2.40503L102.147 2.40975ZM99.2122 11.4495L99.1508 11.2655C99.8869 11.0674 100.637 10.789 101.406 10.421C102.175 10.053 102.77 9.69913 103.199 9.36415L103.826 10.3078C103.26 10.5956 102.557 10.8362 101.717 11.0296C100.873 11.2325 100.043 11.374 99.2169 11.4448L99.2122 11.4495ZM110.12 2.05118V2.40503H108.195V3.96199C108.195 3.96199 108.162 3.99973 108.12 4.02332C108.077 4.04691 108.011 4.07994 107.922 4.1224C107.841 4.15543 107.747 4.17902 107.639 4.19789L108.634 4.94806C108.535 5.06129 108.384 5.13678 108.181 5.16981V9.27923C108.172 9.32641 108.054 9.39246 107.827 9.47739C107.596 9.55287 107.393 9.5859 107.214 9.5859H107.016V9.08107H102.218V9.44908C102.218 9.4821 102.17 9.52928 102.071 9.5859C101.982 9.64252 101.854 9.69442 101.689 9.74632C101.533 9.7935 101.382 9.8218 101.236 9.8218H101.052V4.65554H106.893L107.299 4.2262H107.101V2.40975H105.983C105.817 3.35808 105.133 4.03748 103.921 4.44795L103.812 4.28753C104.279 3.95255 104.591 3.58926 104.746 3.19766C104.902 2.79663 104.978 2.35785 104.978 1.87189V0.899975H106.119C107.068 0.62161 107.856 0.343245 108.488 0.0648804L108.832 1.08398C107.926 1.18306 106.992 1.25383 106.034 1.30573V2.0559H110.12V2.05118ZM107.016 5.00939H102.218V6.0049H107.016V5.00939ZM107.016 6.3446H102.218V7.34955H107.016V6.3446ZM102.218 8.72722H107.016V7.70812H102.218V8.72722ZM105.152 9.83124L105.199 9.66139C107.483 9.72744 108.889 10.0341 109.417 10.5814C109.653 10.8267 109.663 11.0485 109.441 11.2419C109.238 11.4448 108.964 11.5014 108.629 11.4118C108.516 11.3882 108.408 11.3363 108.309 11.2655C107.53 10.6616 106.478 10.1804 105.143 9.83124H105.152Z" fill="white"/>
<path d="M123.159 1.3092V10.8397C123.15 10.8963 123.032 10.9765 122.805 11.0708C122.584 11.1699 122.381 11.2171 122.192 11.2171H122.022V9.75923H114.431V11.0237C114.431 11.1039 114.327 11.1935 114.124 11.2926C113.926 11.3964 113.718 11.453 113.497 11.453H113.289V1.3092H123.164H123.159ZM114.426 9.40537H122.017V7.33415C121.763 7.39077 121.357 7.41908 120.791 7.41908H119.993C119.569 7.41908 119.29 7.35302 119.158 7.22092C119.026 7.08881 118.96 6.83876 118.96 6.47075V1.66778H117.512C117.502 2.25753 117.488 2.73405 117.465 3.10206C117.441 3.46063 117.398 3.88054 117.342 4.35234C117.285 4.82415 117.196 5.22518 117.073 5.54129C116.96 5.86212 116.804 6.1971 116.606 6.54624C116.417 6.89065 116.172 7.20676 115.87 7.48985C115.577 7.76821 115.223 8.0277 114.813 8.26361L114.653 8.0796C114.898 7.85785 115.11 7.61723 115.29 7.35774C115.478 7.08881 115.634 6.83876 115.757 6.60757C115.879 6.37167 115.983 6.07443 116.063 5.7253C116.153 5.37144 116.219 5.07892 116.261 4.84302C116.304 4.60712 116.337 4.27214 116.361 3.83808C116.384 3.39458 116.398 3.05488 116.398 2.80954C116.408 2.5642 116.412 2.18204 116.412 1.66778H114.426V9.41009V9.40537ZM122.022 1.66778H119.998V6.18295C119.998 6.27259 120.017 6.33864 120.045 6.38111C120.088 6.41413 120.173 6.42829 120.305 6.42829H121.248C121.385 6.41885 121.47 6.41413 121.494 6.41413C121.541 6.4047 121.621 6.39998 121.725 6.39998C121.8 6.39054 121.89 6.37167 121.994 6.33864L122.017 1.66306L122.022 1.66778Z" fill="white"/>
<path d="M128.89 0.0542176L130.093 0.568485C129.739 1.66307 129.404 2.60668 129.088 3.38988V11.0944C129.079 11.1511 128.975 11.2266 128.767 11.3162C128.564 11.4058 128.352 11.453 128.14 11.453H127.918V4.87606C127.484 5.45638 127.012 5.97065 126.493 6.42358L126.333 6.31507C126.847 5.53187 127.338 4.57883 127.805 3.45593C128.272 2.33775 128.63 1.20542 128.885 0.0589356L128.89 0.0542176ZM138.043 6.04142V6.39527H135.665V11.118C135.665 11.1511 135.627 11.1935 135.556 11.2407C135.481 11.2879 135.368 11.3351 135.212 11.3775C135.066 11.42 134.896 11.4389 134.707 11.4389H134.5V6.39527H132.796C132.778 6.90482 132.726 7.36719 132.636 7.79182C132.556 8.207 132.405 8.64578 132.193 9.10343C131.98 9.56108 131.659 9.98571 131.235 10.3773C130.81 10.7689 130.286 11.118 129.664 11.42L129.541 11.2973C130.324 10.651 130.867 9.92909 131.159 9.12702C131.461 8.32495 131.626 7.41437 131.65 6.39056H129.701L129.602 6.0367H131.65V3.2389H130.017L129.918 2.88505H137.755V3.2389H135.656V6.0367H138.033L138.043 6.04142ZM130.989 0.275966L131.126 0.200477C132.141 0.535458 132.763 1.00726 132.99 1.61117C133.136 1.99334 133.098 2.30001 132.867 2.53119C132.645 2.7435 132.386 2.74822 132.084 2.54535C132.06 2.53119 132.037 2.51232 132.009 2.49817C131.9 1.78574 131.565 1.04501 130.989 0.275966ZM132.806 6.04142H134.5V3.24362H132.806V6.04142ZM135.122 0.0542176L136.274 0.691154C135.627 1.65364 134.995 2.34719 134.372 2.76238L134.212 2.6633C134.547 1.97446 134.849 1.10634 135.118 0.0494995L135.122 0.0542176Z" fill="white"/>
<path d="M147.794 2.68457V8.81803H147.549V2.68457H147.794Z" fill="white"/>
<path d="M167.388 3.51023V7.52057C167.369 7.56303 167.242 7.62436 166.996 7.70457C166.751 7.78006 166.543 7.81309 166.369 7.81309H166.171V6.97799H160.16C160.051 7.92632 159.796 8.78029 159.386 9.53989C158.975 10.2995 158.329 10.9553 157.447 11.5026L157.301 11.3658C157.678 10.9506 157.989 10.4977 158.235 10.0164C158.48 9.52574 158.655 9.00675 158.763 8.45946C158.876 7.91217 158.957 7.3979 158.994 6.91194C159.032 6.42598 159.056 5.86925 159.056 5.23232V1.5947H160.514C161.542 1.40598 162.556 1.17008 163.557 0.882275C164.557 0.589756 165.35 0.292519 165.935 0L167.26 1.27387C167.095 1.39654 166.845 1.38711 166.501 1.25028C164.651 1.66075 162.566 1.8825 160.245 1.92496V3.50551H167.383L167.388 3.51023ZM160.202 6.62414H166.175V3.86408H160.249V5.25119C160.249 5.7513 160.231 6.20895 160.202 6.62414Z" fill="white"/>
<path d="M180.644 3.51023V7.52057C180.625 7.56303 180.497 7.62436 180.252 7.70457C180.007 7.78006 179.799 7.81309 179.625 7.81309H179.426V6.97799H173.416C173.307 7.92632 173.052 8.78029 172.642 9.53989C172.231 10.2995 171.585 10.9553 170.703 11.5026L170.557 11.3658C170.934 10.9506 171.245 10.4977 171.491 10.0164C171.736 9.52574 171.911 9.00675 172.019 8.45946C172.132 7.91217 172.213 7.3979 172.25 6.91194C172.288 6.42598 172.312 5.86925 172.312 5.23232V1.5947H173.77C174.798 1.40598 175.812 1.17008 176.813 0.882275C177.813 0.589756 178.606 0.292519 179.191 0L180.516 1.27387C180.351 1.39654 180.101 1.38711 179.757 1.25028C177.907 1.66075 175.822 1.8825 173.501 1.92496V3.50551H180.639L180.644 3.51023ZM173.458 6.62414H179.431V3.86408H173.505V5.25119C173.505 5.7513 173.486 6.20895 173.458 6.62414Z" fill="white"/>
<path d="M194.867 8.28489L194.905 9.96452C195.192 10.0636 195.334 10.224 195.334 10.4552C195.334 10.71 195.159 10.8893 194.805 10.9931C194.461 11.1063 193.805 11.1629 192.843 11.1629H191.541C190.974 11.1629 190.602 11.0874 190.422 10.9412C190.243 10.8043 190.153 10.526 190.153 10.1061V6.51091H188.658C188.611 7.01574 188.545 7.44508 188.46 7.79893C188.379 8.15279 188.233 8.53023 188.03 8.9407C187.827 9.34173 187.559 9.68615 187.233 9.96923C186.907 10.257 186.464 10.5354 185.907 10.8043C185.351 11.0733 184.69 11.3092 183.921 11.5026L183.812 11.3327C184.402 11.078 184.902 10.7996 185.322 10.4977C185.747 10.2051 186.082 9.91262 186.327 9.62482C186.582 9.33702 186.78 9.01147 186.926 8.64346C187.082 8.26602 187.186 7.92632 187.247 7.61493C187.304 7.30354 187.351 6.93553 187.384 6.51091H184.454L184.355 6.15705H194.942V6.51091H191.324V9.83713C191.324 9.93621 191.352 10.0023 191.408 10.0353C191.465 10.0683 191.593 10.0825 191.791 10.0825H193.555C193.791 10.073 193.928 10.0683 193.961 10.0683C194.093 10.0589 194.183 9.99754 194.23 9.88431C194.32 9.72861 194.485 9.19547 194.721 8.27546H194.867V8.28489ZM193.456 2.47226H185.728C185.785 3.28848 185.558 3.86408 185.053 4.18963C184.874 4.32645 184.662 4.37363 184.416 4.32645C184.171 4.26983 184.006 4.13301 183.926 3.9207C183.86 3.72254 183.874 3.54797 183.963 3.39228C184.062 3.22714 184.209 3.09976 184.407 3.00068C184.652 2.86385 184.869 2.64682 185.058 2.36374C185.247 2.07122 185.332 1.75983 185.317 1.42957H185.501C185.582 1.66075 185.643 1.88722 185.686 2.1184H194.787V2.70816C194.253 3.25545 193.697 3.70367 193.107 4.04337L192.984 3.95844C193.173 3.48664 193.333 2.99124 193.461 2.47226H193.456ZM192.989 4.14245V4.4963H186.181L186.082 4.14245H192.989ZM188.474 0.179285L188.582 0.0943604C189.611 0.184003 190.253 0.485958 190.498 1.00023C190.644 1.31162 190.606 1.58998 190.389 1.83532C190.158 2.09009 189.88 2.13256 189.545 1.97214C189.488 1.94855 189.427 1.91081 189.361 1.86363C189.337 1.57111 189.238 1.26444 189.068 0.957763C188.903 0.636936 188.71 0.382161 188.479 0.184003L188.474 0.179285Z" fill="white"/>
<path d="M209.647 7.57716V7.93101H204.395C204.287 8.37451 204.131 8.76139 203.919 9.09637C203.707 9.42192 203.386 9.74274 202.961 10.0541C202.537 10.3561 201.961 10.625 201.23 10.8656C200.508 11.1015 199.626 11.3139 198.578 11.5026L198.503 11.2808C200.008 10.8562 201.093 10.3797 201.768 9.85598C202.437 9.33227 202.876 8.69062 203.079 7.93101H199.007L198.899 7.57716H203.155C203.211 7.28464 203.258 6.81755 203.291 6.18062L204.594 6.31744C204.551 6.93079 204.513 7.35069 204.471 7.58188H209.647V7.57716ZM198.569 5.67579H203.438V4.21791H199.918L199.819 3.86406H203.438V2.47695H199.229L199.121 2.1231H204.971C205.264 1.54278 205.528 0.863378 205.754 0.0848999L206.934 0.500088C206.575 1.06625 206.047 1.60411 205.353 2.11838H209.364V2.47223H204.688V3.85934H208.576V4.21319H204.688V5.67107H209.68V6.02492H198.677L198.569 5.67107V5.67579ZM201.074 0.231159L201.173 0.146235C202.178 0.292494 202.791 0.618039 203.013 1.12759C203.145 1.43898 203.098 1.69847 202.876 1.91078C202.645 2.13253 202.376 2.14669 202.065 1.95796C202.032 1.94381 202.003 1.92022 201.98 1.89663C201.937 1.61827 201.829 1.33046 201.65 1.02379C201.48 0.7124 201.286 0.44819 201.074 0.226441V0.231159ZM204.877 8.51133L204.976 8.37451C206.915 8.634 208.264 9.17186 209.024 9.98336C209.425 10.408 209.562 10.7901 209.439 11.1251C209.34 11.3941 209.118 11.5026 208.779 11.446C208.731 11.4365 208.675 11.4271 208.618 11.4082C208.26 10.927 207.712 10.408 206.986 9.86069C206.259 9.3134 205.556 8.86519 204.877 8.51133Z" fill="white"/>
<path d="M216.646 6.27493L216.769 6.37401C216.694 6.47309 216.538 6.52499 216.302 6.53443C216.033 7.53937 215.552 8.41693 214.868 9.15766C214.943 9.18125 215.005 9.22371 215.066 9.28033C215.538 9.69552 216.156 9.97388 216.906 10.1154C217.666 10.2475 218.755 10.3136 220.171 10.3136C221.799 10.3136 223.19 10.2853 224.356 10.2287V10.3891C224.12 10.4315 223.926 10.5353 223.78 10.7099C223.643 10.8892 223.554 11.0968 223.521 11.3374H219.793C218.453 11.3374 217.444 11.2194 216.764 10.9835C216.085 10.7524 215.481 10.3277 214.948 9.69552C214.783 9.5068 214.651 9.51152 214.542 9.70967C214.198 10.356 213.943 10.8703 213.768 11.2572C213.801 11.3563 213.778 11.4365 213.693 11.5025L212.848 10.3749C212.971 10.2947 213.226 10.106 213.608 9.80875C213.99 9.51151 214.259 9.32279 214.405 9.23315C214.83 8.46411 215.122 7.54409 215.278 6.47309H213.575V5.88334C214.089 5.20394 214.561 4.51982 214.986 3.82155H213.193L213.084 3.4677H215.929V4.06689C215.481 4.73685 214.995 5.42097 214.481 6.11452H216.444C216.33 5.78898 216.429 5.54364 216.75 5.37851C216.906 5.30302 217.038 5.18035 217.142 4.99634C217.255 4.80762 217.307 4.62362 217.288 4.44433H217.458V1.28324H219.076C219.185 0.882206 219.265 0.561379 219.322 0.31604L220.265 0.608559C220.209 0.839743 220.105 1.00016 219.958 1.09924C219.822 1.18888 219.727 1.25021 219.675 1.28324H223.124V4.39715C223.124 4.44433 223.021 4.51038 222.818 4.59531C222.615 4.6708 222.431 4.70382 222.266 4.70382H222.096V4.23674H220.18C220.402 4.29335 220.558 4.37356 220.647 4.46792C220.737 4.56228 220.77 4.66136 220.746 4.75101C220.728 4.84065 220.671 4.92086 220.577 4.98219H223.681V5.48702C223.355 5.67574 222.964 5.84087 222.516 5.99185L222.369 5.90693C222.45 5.78426 222.558 5.59554 222.69 5.34076H221.586V5.75595C221.586 5.91164 221.596 6.00601 221.61 6.03903C221.633 6.06262 221.699 6.07678 221.808 6.07678H222.926C222.983 6.07678 223.063 6.06262 223.157 6.03903H223.341C223.563 6.11452 223.681 6.17114 223.695 6.20888C223.705 6.38817 223.657 6.50612 223.558 6.56274C223.469 6.61935 223.299 6.6571 223.044 6.67125C223.422 6.94018 223.714 7.16665 223.926 7.34593C223.903 7.47804 223.794 7.54409 223.606 7.54409H219.718C219.675 7.69978 219.614 7.87435 219.534 8.07251H222.676V8.56319C222.619 8.94535 222.539 9.2473 222.445 9.45962C222.346 9.66249 222.2 9.82291 222.001 9.93614C221.756 10.0682 221.369 10.139 220.836 10.1579C220.836 9.90311 220.775 9.72383 220.652 9.62003C220.52 9.5068 220.237 9.40772 219.793 9.32751V9.14351C220.298 9.19069 220.713 9.219 221.034 9.219C221.199 9.219 221.313 9.20012 221.379 9.15766C221.501 9.07745 221.6 8.83683 221.671 8.4358H219.355C218.897 9.18125 218.057 9.70967 216.84 10.0305L216.779 9.8465C217.335 9.587 217.75 9.2709 218.029 8.90289C218.307 8.53488 218.496 8.08667 218.595 7.55353H216.802L216.703 7.19967H219.878C219.812 7.16665 219.765 7.13362 219.732 7.10059C219.708 6.77977 219.576 6.52027 219.34 6.3174L219.463 6.24191C220.166 6.28437 220.558 6.4495 220.643 6.74674C220.685 6.9449 220.6 7.09588 220.397 7.19967H222.36L222.813 6.69484H221.648C221.166 6.69484 220.869 6.65238 220.765 6.55802C220.666 6.46837 220.619 6.19945 220.619 5.74651V5.34076H219.808C219.539 6.22304 218.694 6.76561 217.279 6.97321L217.217 6.7892C218.076 6.49668 218.571 6.01072 218.703 5.34076H217.637C217.614 5.7418 217.467 6.03431 217.194 6.22304C217.014 6.32212 216.835 6.33627 216.656 6.27022L216.646 6.27493ZM213.603 0.50948L213.712 0.424555C214.674 0.70292 215.264 1.11811 215.476 1.67484C215.599 2.00982 215.552 2.28347 215.34 2.49578C215.118 2.70809 214.863 2.71753 214.566 2.51937C214.533 2.49578 214.5 2.47219 214.467 2.44388C214.419 1.79751 214.127 1.15113 213.594 0.504762L213.603 0.50948ZM218.477 4.24146V4.43961C218.477 4.49623 218.378 4.567 218.184 4.64721C217.996 4.72742 217.802 4.76988 217.609 4.76988C217.618 4.84537 217.623 4.91614 217.623 4.99163H219.916C219.869 4.9586 219.831 4.93029 219.808 4.9067C219.808 4.63777 219.723 4.41602 219.548 4.24617H218.482L218.477 4.24146ZM222.096 1.63709H218.477V2.14192H222.096V1.63709ZM218.477 3.0242H222.096V2.49578H218.477V3.0242ZM218.477 3.89704H222.096V3.38277H218.477V3.89704Z" fill="white"/>
<path d="M230.822 4.41139H228.676V11.0591C228.676 11.1488 228.577 11.2431 228.383 11.3422C228.194 11.446 227.973 11.5026 227.723 11.5026H227.524V0.986084H231.903V4.74165C231.893 4.78411 231.78 4.84545 231.558 4.92565C231.346 5.00586 231.157 5.04832 230.992 5.04832H230.822V4.41139ZM230.822 1.34466H228.676V2.52417H230.822V1.34466ZM228.676 4.06697H230.822V2.85443H228.676V4.06697ZM234.847 6.33635V9.94094C234.837 9.99756 234.724 10.073 234.502 10.1627C234.29 10.2429 234.097 10.2854 233.927 10.2854H233.757V9.58709H231.266V10.0778C231.266 10.1438 231.167 10.2146 230.973 10.2995C230.775 10.3797 230.572 10.4222 230.36 10.4222H230.2V5.83624H234.847V6.34107V6.33635ZM233.757 6.17594H231.266V7.50171H233.757V6.17594ZM231.266 9.24267H233.757V7.84613H231.266V9.24267ZM237.569 0.986084V10.0259C237.569 10.4977 237.47 10.8468 237.277 11.0686C237.083 11.2903 236.659 11.4271 236.012 11.4837C235.97 11.0827 235.89 10.8043 235.767 10.6486C235.564 10.4599 235.229 10.3278 234.771 10.2429V10.0589C235.522 10.1155 235.979 10.1438 236.135 10.1438C236.239 10.1438 236.309 10.1249 236.343 10.0825C236.385 10.04 236.404 9.97868 236.404 9.88432V4.40195H234.172V4.64729C234.172 4.71334 234.064 4.78883 233.851 4.87847C233.649 4.96812 233.436 5.0153 233.224 5.0153H233.063V0.986084H237.564H237.569ZM236.404 1.34466H234.172V2.52417H236.404V1.34466ZM234.172 4.06697H236.404V2.85443H234.172V4.06697Z" fill="white"/>
<path d="M247.321 2.68457V8.81803H247.075V2.68457H247.321Z" fill="white"/>
<path d="M258.733 1.61117L258.502 2.51703C258.379 3.04074 258.12 3.30023 257.728 3.30023C257.417 3.30023 257.204 3.15869 257.091 2.87089C257.181 2.27641 257.464 1.81876 257.945 1.50737C258.422 1.19598 259.002 1.04028 259.681 1.04028C260.498 1.04028 261.139 1.23844 261.602 1.63948C262.064 2.04051 262.295 2.57365 262.295 3.24833C262.295 3.78147 262.125 4.24384 261.79 4.63544C261.455 5.02703 260.965 5.31483 260.318 5.49412C261.078 5.63094 261.644 5.91403 262.012 6.33393C262.38 6.75384 262.564 7.28698 262.564 7.92392C262.564 8.66937 262.281 9.27799 261.72 9.7498C261.153 10.2263 260.413 10.4622 259.488 10.4622C258.738 10.4622 258.129 10.3018 257.667 9.97626C257.204 9.65072 256.926 9.16948 256.827 8.52311C256.959 8.22115 257.181 8.07017 257.487 8.07017C257.69 8.07017 257.851 8.13623 257.959 8.27305C258.068 8.40987 258.167 8.64106 258.247 8.98076L258.469 9.88662C258.7 9.94324 258.936 9.97155 259.181 9.97155C259.818 9.97155 260.318 9.78754 260.672 9.41482C261.026 9.04209 261.205 8.53726 261.205 7.90032C261.205 7.26339 261.031 6.72081 260.677 6.34809C260.323 5.97536 259.813 5.79136 259.144 5.79136H258.544V5.2535H259.049C259.644 5.2535 260.12 5.08837 260.465 4.74867C260.814 4.41369 260.984 3.93245 260.984 3.30023C260.984 2.73406 260.842 2.3 260.554 1.99333C260.266 1.68666 259.865 1.53568 259.351 1.53568C259.162 1.53568 258.96 1.55927 258.738 1.61117H258.733Z" fill="white"/>
<path d="M266.196 2.29301L266.035 4.82188C266.479 4.68506 266.96 4.61429 267.484 4.61429C268.418 4.61429 269.154 4.85962 269.697 5.35502C270.239 5.85041 270.513 6.54397 270.513 7.43568C270.513 8.32739 270.216 9.03981 269.616 9.56824C269.017 10.0967 268.234 10.3656 267.262 10.3656C266.535 10.3656 265.946 10.1957 265.502 9.86076C265.054 9.52577 264.78 9.04925 264.677 8.42647C264.78 8.12451 265.002 7.97354 265.337 7.97354C265.54 7.97354 265.7 8.03959 265.814 8.17169C265.927 8.3038 266.021 8.52555 266.097 8.84638L266.304 9.7664C266.559 9.84188 266.828 9.87491 267.116 9.87491C267.753 9.87491 268.253 9.66732 268.607 9.24741C268.961 8.83222 269.14 8.2519 269.14 7.51589C269.14 6.77987 268.956 6.2656 268.583 5.87401C268.21 5.48241 267.71 5.28425 267.078 5.28425C266.644 5.28425 266.21 5.35502 265.776 5.49184L265.422 5.35502L265.705 1.13708H270.244V2.28829H266.196V2.29301Z" fill="white"/>
<path d="M275.399 3.83106V7.54888C275.579 7.49226 275.862 7.3979 276.244 7.2658C276.636 7.12897 276.933 7.02518 277.126 6.95913L277.188 7.10538C275.928 7.97822 274.715 8.76614 273.545 9.45969C273.503 9.62954 273.408 9.74749 273.262 9.80411L272.625 8.43116C272.927 8.35567 273.474 8.19054 274.267 7.92632V3.83106H272.871L272.772 3.47721H274.267V0.250061L275.395 0.396321V3.47721H277.197V3.83106H275.395H275.399ZM284.368 6.10044V6.45429H280.75V10.9176C280.74 10.9506 280.703 10.9931 280.627 11.0402C280.552 11.0874 280.438 11.1346 280.283 11.1771C280.127 11.2242 279.957 11.2525 279.778 11.2525H279.58V6.45429H276.244L276.145 6.10044H279.58V1.23141H276.65L276.551 0.877561H284.081V1.23141H280.745V6.10044H284.364H284.368ZM277.14 2.02876L277.301 1.96743C278.259 2.70345 278.792 3.48192 278.91 4.29815C278.976 4.80769 278.877 5.15683 278.617 5.35499C278.372 5.54371 278.108 5.49181 277.82 5.19457C277.829 4.32645 277.603 3.27433 277.145 2.02876H277.14ZM281.424 5.52484L281.24 5.43991C281.594 4.42553 281.901 3.24602 282.16 1.9061L283.34 2.42036C282.712 3.78388 282.071 4.82185 281.424 5.52484Z" fill="white"/>
<path d="M297.899 10.1862V10.5401H286.59L286.481 10.1862H288.307V3.85463L289.548 4.01504V10.1862H291.718V1.31632H287.142L287.042 0.962463H297.432V1.31632H292.968V5.25589H296.931V5.60974H292.968V10.1862H297.899Z" fill="white"/>
<path d="M301.917 1.61117L301.686 2.51703C301.563 3.04074 301.304 3.30023 300.912 3.30023C300.601 3.30023 300.389 3.15869 300.275 2.87089C300.365 2.27641 300.648 1.81876 301.129 1.50737C301.606 1.19598 302.186 1.04028 302.866 1.04028C303.682 1.04028 304.323 1.23844 304.786 1.63948C305.248 2.04051 305.479 2.57365 305.479 3.24833C305.479 3.78147 305.31 4.24384 304.975 4.63544C304.64 5.02703 304.149 5.31483 303.503 5.49412C304.262 5.63094 304.828 5.91403 305.196 6.33393C305.564 6.75384 305.748 7.28698 305.748 7.92392C305.748 8.66937 305.465 9.27799 304.904 9.7498C304.338 10.2263 303.597 10.4622 302.672 10.4622C301.922 10.4622 301.313 10.3018 300.851 9.97626C300.389 9.65072 300.11 9.16948 300.011 8.52311C300.143 8.22115 300.365 8.07017 300.672 8.07017C300.875 8.07017 301.035 8.13623 301.143 8.27305C301.252 8.40987 301.351 8.64106 301.431 8.98076L301.653 9.88662C301.884 9.94324 302.12 9.97155 302.365 9.97155C303.002 9.97155 303.503 9.78754 303.856 9.41482C304.21 9.04209 304.39 8.53726 304.39 7.90032C304.39 7.26339 304.215 6.72081 303.861 6.34809C303.507 5.97536 302.998 5.79136 302.328 5.79136H301.729V5.2535H302.233C302.828 5.2535 303.304 5.08837 303.649 4.74867C303.998 4.41369 304.168 3.93245 304.168 3.30023C304.168 2.73406 304.026 2.3 303.738 1.99333C303.451 1.68666 303.05 1.53568 302.535 1.53568C302.347 1.53568 302.144 1.55927 301.922 1.61117H301.917Z" fill="white"/>
<path d="M310.47 4.5128C310.47 5.05065 310.456 5.52246 310.432 5.92349C310.413 6.31509 310.357 6.79161 310.262 7.34834C310.173 7.89564 310.041 8.38631 309.871 8.82037C309.706 9.25443 309.465 9.70265 309.149 10.1697C308.837 10.6368 308.46 11.0473 308.021 11.4106L307.861 11.3021C308.46 10.4104 308.852 9.41485 309.04 8.32026C309.238 7.22567 309.333 5.96596 309.333 4.54111V1.29981H310.413C313.192 0.978979 315.457 0.568509 317.198 0.05896L317.589 1.22432C315.405 1.46022 313.032 1.57345 310.475 1.55458V2.39911H318.118V4.66849C318.108 4.71567 317.986 4.78173 317.75 4.86665C317.519 4.94686 317.316 4.98932 317.136 4.98932H316.938V4.5128H310.475H310.47ZM319 6.21601V6.56987H314.056C314.013 6.99449 313.947 7.40024 313.857 7.7824H317.759V8.31083C317.622 9.80645 317.311 10.7123 316.825 11.0237C316.466 11.2549 316.009 11.3681 315.452 11.3681C315.452 10.9907 315.377 10.7359 315.23 10.5944C315.042 10.4151 314.669 10.283 314.112 10.2028V10.0329C314.985 10.099 315.509 10.132 315.669 10.132C315.858 10.132 315.995 10.1037 316.084 10.0471C316.316 9.87722 316.485 9.24028 316.599 8.14569H313.739C313.518 8.83925 313.112 9.46203 312.513 10.0093C311.923 10.5566 311.06 11.0379 309.913 11.4436L309.79 11.2596C310.295 10.9907 310.729 10.6934 311.093 10.3773C311.461 10.0565 311.744 9.75927 311.937 9.4809C312.14 9.1931 312.3 8.87227 312.414 8.5137C312.536 8.15513 312.612 7.83902 312.645 7.57009C312.687 7.29173 312.716 6.96146 312.73 6.57458H310.791L310.692 6.22073H314.641C314.527 6.20186 314.419 6.16411 314.32 6.09806C314.211 5.664 313.966 5.23466 313.57 4.81003L313.678 4.73455C314.57 4.79116 315.103 5.02706 315.287 5.44697C315.391 5.70175 315.344 5.91406 315.141 6.08391C315.051 6.1594 314.947 6.20186 314.834 6.22073H318.981L319 6.21601ZM316.938 2.75768H310.475V4.15422H316.938V2.75768Z" fill="white"/>
</svg>
