<?xml version="1.0" encoding="UTF-8"?>
<svg id="_圖層_2" xmlns="http://www.w3.org/2000/svg" version="1.1" viewBox="0 0 325.5 26.1">
  <!-- Generator: Adobe Illustrator 30.6.0, SVG Export Plug-In . SVG Version: 2.1.4 Build 109)  -->
  <defs>
    <style>
      .st0 {
        fill: #fff;
      }
    </style>
  </defs>
  <g id="_圖層_1-2">
    <g>
      <path class="st0" d="M7.6,4.7H0V0h20.9v4.7h-7.5v20.9h-5.8V4.7Z"/>
      <path class="st0" d="M23.1,0h5.4v10.1h0c1.3-2,3-3.3,6.1-3.3,4.4,0,6.1,2.5,6.1,6.7v12.1h-5.4v-10.7c0-2.4-.7-3.6-2.9-3.6s-3.9,1.6-3.9,4v10.3h-5.4V0Z"/>
      <path class="st0" d="M61.8,18.8c-.2,3.9-3,7.2-8.6,7.2s-9-3.9-9-9.6,3.1-9.6,9.1-9.6,8.4,3.7,8.4,9.9v.8h-12.1c.1,2.8,1.1,4.4,3.4,4.4s3.2-1.4,3.2-3h5.5ZM56.5,14.4c0-1.9-1-3.6-3.2-3.6s-3.2,1.2-3.4,3.6h6.6Z"/>
      <path class="st0" d="M76.2,7.1h5.4v3h0c1.3-2,3-3.3,6.1-3.3,4.4,0,6.1,2.5,6.1,6.7v12.1h-5.4v-10.7c0-2.4-.7-3.6-2.9-3.6s-3.9,1.6-3.9,4v10.3h-5.4V7.1h0Z"/>
      <path class="st0" d="M114.6,18.8c-.2,3.9-3,7.2-8.6,7.2s-9-3.9-9-9.6,3.1-9.6,9.1-9.6,8.4,3.7,8.4,9.9v.8h-12.1c.1,2.8,1.1,4.4,3.4,4.4s3.2-1.4,3.2-3h5.5ZM109.2,14.4c0-1.9-1-3.6-3.2-3.6s-3.2,1.2-3.4,3.6h6.6Z"/>
      <path class="st0" d="M122.3,16.3l-6.2-9.2h6.4l3.2,5.4,3.6-5.4h6.1l-6.1,9.2,6.2,9.3h-6.3l-3.5-5.7-3.6,5.7h-6.1l6.4-9.3h0Z"/>
      <path class="st0" d="M140,11.4h-2.5v-4.3h2.5V2.3h5.5v4.8h4.4v4.3h-4.4v7c0,1.7.8,2.5,2.8,2.5s1,0,1.8-.2v4.8c-.7.2-1.7.3-2.8.3-4.9,0-7.2-2.1-7.2-7.4v-7.2h0Z"/>
      <path class="st0" d="M166.9,0h5.4v25.6h-5.4V0Z"/>
      <path class="st0" d="M186.5,23.4h0c-1.1,1.4-3.2,2.5-6,2.5s-5.8-2.1-5.8-4.9c0-5.2,5.1-5.4,8.9-6.1,2.7-.5,3-.7,3-2s-1-2.1-2.8-2.1-3.1.9-3.1,2.5h-5.1c.4-4,2.4-6.6,8.2-6.6s8.2,2.9,8.2,8.1v10.7h-5.5v-2.2ZM186.6,17.1c-2.8.7-6.5.8-6.5,3s1,2,2.5,2c2.4,0,4-1.4,4-3.7v-1.3Z"/>
      <path class="st0" d="M195.5,7.1h5.4v3h0c1.3-2,3-3.3,6.1-3.3,4.4,0,6.1,2.5,6.1,6.7v12.1h-5.4v-10.7c0-2.4-.7-3.6-2.9-3.6s-3.9,1.6-3.9,4v10.3h-5.4V7.1h0Z"/>
      <path class="st0" d="M229.9,22.7h0c-1.2,2-2.9,3.3-5.8,3.3-5.2,0-7.6-4.4-7.6-9.6s2.3-9.6,7.6-9.6,4.6,1.3,5.8,3.3h0V0h5.5v25.6h-5.5v-2.9ZM229.9,16.4c0-3.5-1.3-5.8-3.9-5.8s-3.9,2.2-3.9,5.8,1.3,5.8,3.9,5.8,3.9-2.2,3.9-5.8Z"/>
      <path class="st0" d="M239.6,7.1h5.4v3h0c1.1-2,2.5-3.3,5.2-3.3s4.4,1.3,5.2,3.6h0c1.2-2.2,2.8-3.6,5.5-3.6,3.9,0,5.8,2.2,5.8,6.7v12.1h-5.4v-10.7c0-2.7-1-3.6-2.4-3.6s-3,1.3-3,4v10.3h-5.5v-10.7c0-2.4-.5-3.6-2.4-3.6s-3.2,1.5-3.2,4v10.3h-5.4V7.1h0Z"/>
      <path class="st0" d="M282.4,23.4h0c-1.1,1.4-3.2,2.5-6,2.5s-5.8-2.1-5.8-4.9c0-5.2,5.1-5.4,8.9-6.1,2.7-.5,3-.7,3-2s-1-2.1-2.8-2.1-3.1.9-3.1,2.5h-5.1c.4-4,2.4-6.6,8.2-6.6s8.2,2.9,8.2,8.1v10.7h-5.5v-2.2ZM282.5,17.1c-2.8.7-6.5.8-6.5,3s1,2,2.5,2c2.4,0,4-1.4,4-3.7v-1.3Z"/>
      <path class="st0" d="M291.3,7.1h5.4v3h0c1.2-2.1,2.8-3.3,4.7-3.3s1,0,1.6.2v5.7c-.6-.2-1.4-.4-2.4-.4-2.4,0-4,1.5-4,4.1v9.3h-5.4V7.1h0Z"/>
      <path class="st0" d="M306.2.5h5.4v15.5l6.2-8.4h6.9l-7,8.4,7.8,10.1h-6.9l-7-10v10h-5.4V.5Z"/>
    </g>
  </g>
</svg>